G04*
G04 #@! TF.GenerationSoftware,Altium Limited,Altium Designer,20.0.13 (296)*
G04*
G04 Layer_Color=2752767*
%FSLAX44Y44*%
%MOMM*%
G71*
G01*
G75*
%ADD51C,0.0508*%
%ADD52C,0.0677*%
D51*
X217968Y27171D02*
Y31235D01*
X222032D01*
Y27171D01*
X217968D01*
X-222032D02*
Y31235D01*
X-217968D01*
Y27171D01*
X-222032D01*
X131500Y-34782D02*
X129468Y-30718D01*
X133532D01*
X131500Y-34782D01*
X27750Y-62282D02*
X25718Y-58218D01*
X29782D01*
X27750Y-62282D01*
X116750Y-21282D02*
X114718Y-17218D01*
X118782D01*
X116750Y-21282D01*
X51750Y-61782D02*
X49718Y-57718D01*
X53782D01*
X51750Y-61782D01*
X-57000Y-29532D02*
X-59032Y-25468D01*
X-54968D01*
X-57000Y-29532D01*
X-29500Y-29282D02*
X-31532Y-25218D01*
X-27468D01*
X-29500Y-29282D01*
X95500Y-99032D02*
X93468Y-94968D01*
X97532D01*
X95500Y-99032D01*
X-3500Y-30032D02*
X-5532Y-25968D01*
X-1468D01*
X-3500Y-30032D01*
X100500Y-22032D02*
X98468Y-17968D01*
X102532D01*
X100500Y-22032D01*
X118500Y-67532D02*
X116468Y-63468D01*
X120532D01*
X118500Y-67532D01*
X72500Y-68032D02*
X70468Y-63968D01*
X74532D01*
X72500Y-68032D01*
D52*
X182032Y29203D02*
G03*
X182032Y29203I-2032J0D01*
G01*
X-177968D02*
G03*
X-177968Y29203I-2032J0D01*
G01*
M02*
