G04*
G04 #@! TF.GenerationSoftware,Altium Limited,Altium Designer,20.0.13 (296)*
G04*
G04 Layer_Color=3150156*
%FSLAX44Y44*%
%MOMM*%
G71*
G01*
G75*
%ADD10C,0.1000*%
%ADD27C,0.0127*%
D10*
X19500Y-107070D02*
Y-75070D01*
X35500Y-107070D02*
Y-75070D01*
X19500Y-75070D02*
X35500Y-75070D01*
X19500Y-107070D02*
X35500Y-107070D01*
X43500Y-107070D02*
Y-75070D01*
X59500Y-107070D02*
Y-75070D01*
X43500Y-75070D02*
X59500Y-75070D01*
X43500Y-107070D02*
X59500Y-107070D01*
X165150Y-66000D02*
Y-46000D01*
X177850Y-66000D02*
Y-46000D01*
X165150D02*
X177850D01*
X165150Y-66000D02*
X177850D01*
X103600Y-51500D02*
Y-43500D01*
X87400Y-51500D02*
Y-43500D01*
X103600D01*
X87400Y-51500D02*
X103600D01*
X158850Y-66000D02*
Y-46000D01*
X146150Y-66000D02*
Y-46000D01*
Y-66000D02*
X158850D01*
X146150Y-46000D02*
X158850D01*
X139850Y-66000D02*
Y-46000D01*
X127150Y-66000D02*
Y-46000D01*
Y-66000D02*
X139850D01*
X127150Y-46000D02*
X139850D01*
X85500Y-71850D02*
X105500D01*
X85500Y-59150D02*
X105500D01*
X85500Y-71850D02*
Y-59150D01*
X105500Y-71850D02*
Y-59150D01*
X-58500Y-107000D02*
X-42500Y-107000D01*
X-58500Y-75000D02*
X-42500Y-75000D01*
Y-107000D02*
Y-75000D01*
X-58500Y-107000D02*
Y-75000D01*
X-73650Y-66000D02*
Y-46000D01*
X-86350Y-66000D02*
Y-46000D01*
Y-66000D02*
X-73650D01*
X-86350Y-46000D02*
X-73650D01*
X-91650Y-66000D02*
Y-46000D01*
X-104350Y-66000D02*
Y-46000D01*
Y-66000D02*
X-91650D01*
X-104350Y-46000D02*
X-91650D01*
X-109650Y-66000D02*
Y-46000D01*
X-122350Y-66000D02*
Y-46000D01*
Y-66000D02*
X-109650D01*
X-122350Y-46000D02*
X-109650D01*
D27*
X-182500Y19000D02*
X182500D01*
X222500Y-161000D02*
Y-21000D01*
X-222500Y-161000D02*
Y-21000D01*
M02*
