G04*
G04 #@! TF.GenerationSoftware,Altium Limited,Altium Designer,20.0.13 (296)*
G04*
G04 Layer_Color=5220458*
%FSLAX44Y44*%
%MOMM*%
G71*
G01*
G75*
%ADD17C,0.2000*%
%ADD47C,0.1270*%
%ADD48C,0.2032*%
%ADD49C,0.3810*%
G36*
X51672Y-269013D02*
X52550Y-261236D01*
X58420Y-265049D01*
X51672Y-269013D01*
D02*
G37*
G36*
X-157402Y-344779D02*
X-157308D01*
X-157233Y-344798D01*
X-157177D01*
X-156932Y-344816D01*
X-156707Y-344854D01*
X-156613Y-344873D01*
X-156538D01*
X-156500Y-344892D01*
X-156481D01*
X-156237Y-344929D01*
X-156011Y-344986D01*
X-155918Y-345004D01*
X-155842Y-345023D01*
X-155805Y-345042D01*
X-155786D01*
X-155542Y-345098D01*
X-155297Y-345155D01*
X-155203Y-345192D01*
X-155128Y-345211D01*
X-155091Y-345230D01*
X-155072D01*
Y-346959D01*
X-155560Y-346828D01*
X-155786Y-346752D01*
X-155993Y-346715D01*
X-156143Y-346677D01*
X-156275Y-346640D01*
X-156369Y-346621D01*
X-156387D01*
X-156857Y-346546D01*
X-157083Y-346527D01*
X-157290Y-346508D01*
X-157459Y-346489D01*
X-157703D01*
X-158023Y-346508D01*
X-158305Y-346546D01*
X-158530Y-346602D01*
X-158718Y-346658D01*
X-158869Y-346734D01*
X-158981Y-346790D01*
X-159038Y-346828D01*
X-159057Y-346846D01*
X-159207Y-346997D01*
X-159320Y-347166D01*
X-159395Y-347335D01*
X-159451Y-347504D01*
X-159489Y-347655D01*
X-159508Y-347767D01*
Y-347843D01*
Y-347880D01*
X-159489Y-348106D01*
X-159451Y-348312D01*
X-159432Y-348388D01*
X-159414Y-348444D01*
X-159395Y-348482D01*
Y-348500D01*
X-159282Y-348707D01*
X-159169Y-348876D01*
X-159057Y-348989D01*
X-159038Y-349008D01*
X-159019Y-349027D01*
X-158793Y-349177D01*
X-158568Y-349290D01*
X-158474Y-349328D01*
X-158399Y-349365D01*
X-158342Y-349384D01*
X-158323D01*
X-158154Y-349422D01*
X-157966Y-349440D01*
X-157797Y-349478D01*
X-157609D01*
X-157459Y-349497D01*
X-156105D01*
Y-351076D01*
X-157572D01*
X-157816Y-351094D01*
X-158023Y-351113D01*
X-158192Y-351132D01*
X-158342Y-351170D01*
X-158436Y-351188D01*
X-158511Y-351207D01*
X-158530D01*
X-158718Y-351245D01*
X-158869Y-351301D01*
X-159019Y-351357D01*
X-159132Y-351414D01*
X-159226Y-351451D01*
X-159301Y-351489D01*
X-159338Y-351508D01*
X-159357Y-351527D01*
X-159583Y-351696D01*
X-159733Y-351865D01*
X-159789Y-351921D01*
X-159827Y-351978D01*
X-159865Y-352015D01*
Y-352034D01*
X-159959Y-352260D01*
X-160015Y-352466D01*
X-160034Y-352560D01*
Y-352636D01*
Y-352673D01*
Y-352692D01*
X-160015Y-352974D01*
X-159978Y-353106D01*
X-159959Y-353218D01*
X-159921Y-353312D01*
X-159883Y-353387D01*
X-159865Y-353425D01*
Y-353444D01*
X-159733Y-353669D01*
X-159564Y-353839D01*
X-159489Y-353895D01*
X-159432Y-353951D01*
X-159395Y-353970D01*
X-159376Y-353989D01*
X-159113Y-354139D01*
X-158850Y-354233D01*
X-158718Y-354271D01*
X-158643Y-354308D01*
X-158568Y-354327D01*
X-158549D01*
X-158154Y-354384D01*
X-157948Y-354421D01*
X-157760D01*
X-157590Y-354440D01*
X-157083D01*
X-156820Y-354421D01*
X-156575D01*
X-156369Y-354402D01*
X-156200D01*
X-156068Y-354384D01*
X-155955D01*
X-155711Y-354365D01*
X-155485Y-354327D01*
X-155297Y-354308D01*
X-155109Y-354271D01*
X-154978Y-354252D01*
X-154865Y-354233D01*
X-154790Y-354214D01*
X-154771D01*
Y-356000D01*
X-154940Y-356019D01*
X-155128Y-356038D01*
X-155184Y-356056D01*
X-155297D01*
X-155523Y-356075D01*
X-155711Y-356094D01*
X-155786Y-356113D01*
X-155899D01*
X-156143Y-356132D01*
X-156331D01*
X-156425Y-356150D01*
X-156538D01*
X-156763Y-356169D01*
X-157139D01*
X-157609Y-356150D01*
X-158041Y-356132D01*
X-158417Y-356094D01*
X-158737Y-356038D01*
X-159019Y-356000D01*
X-159207Y-355962D01*
X-159282Y-355944D01*
X-159338D01*
X-159357Y-355925D01*
X-159376D01*
X-159714Y-355831D01*
X-160034Y-355718D01*
X-160297Y-355605D01*
X-160523Y-355493D01*
X-160711Y-355380D01*
X-160842Y-355305D01*
X-160936Y-355248D01*
X-160955Y-355229D01*
X-161180Y-355042D01*
X-161368Y-354854D01*
X-161537Y-354665D01*
X-161669Y-354496D01*
X-161763Y-354327D01*
X-161838Y-354214D01*
X-161876Y-354139D01*
X-161895Y-354102D01*
X-162007Y-353857D01*
X-162083Y-353594D01*
X-162139Y-353350D01*
X-162177Y-353124D01*
X-162195Y-352918D01*
X-162214Y-352767D01*
Y-352673D01*
Y-352636D01*
X-162195Y-352260D01*
X-162158Y-352109D01*
X-162139Y-351959D01*
X-162101Y-351846D01*
X-162064Y-351771D01*
X-162045Y-351715D01*
Y-351696D01*
X-161895Y-351395D01*
X-161819Y-351264D01*
X-161744Y-351151D01*
X-161669Y-351076D01*
X-161613Y-351000D01*
X-161575Y-350963D01*
X-161556Y-350944D01*
X-161312Y-350718D01*
X-161086Y-350568D01*
X-160974Y-350493D01*
X-160898Y-350455D01*
X-160842Y-350418D01*
X-160823D01*
X-160504Y-350286D01*
X-160335Y-350230D01*
X-160184Y-350192D01*
X-160053Y-350154D01*
X-159959Y-350136D01*
X-159883Y-350117D01*
X-159865D01*
X-160165Y-349985D01*
X-160410Y-349816D01*
X-160635Y-349666D01*
X-160823Y-349515D01*
X-160974Y-349365D01*
X-161068Y-349252D01*
X-161143Y-349177D01*
X-161162Y-349158D01*
X-161312Y-348914D01*
X-161425Y-348651D01*
X-161519Y-348369D01*
X-161575Y-348125D01*
X-161613Y-347880D01*
X-161632Y-347711D01*
Y-347636D01*
Y-347579D01*
Y-347561D01*
Y-347542D01*
X-161613Y-347316D01*
X-161594Y-347091D01*
X-161556Y-346903D01*
X-161519Y-346734D01*
X-161462Y-346583D01*
X-161425Y-346489D01*
X-161406Y-346414D01*
X-161387Y-346395D01*
X-161293Y-346207D01*
X-161180Y-346038D01*
X-161049Y-345888D01*
X-160936Y-345756D01*
X-160842Y-345644D01*
X-160748Y-345568D01*
X-160692Y-345531D01*
X-160673Y-345512D01*
X-160485Y-345380D01*
X-160297Y-345267D01*
X-160090Y-345174D01*
X-159921Y-345098D01*
X-159752Y-345042D01*
X-159620Y-345004D01*
X-159545Y-344967D01*
X-159508D01*
X-159244Y-344892D01*
X-158981Y-344854D01*
X-158718Y-344816D01*
X-158474Y-344779D01*
X-158248D01*
X-158079Y-344760D01*
X-157647D01*
X-157402Y-344779D01*
D02*
G37*
G36*
X-82012Y-347260D02*
X-81636Y-347298D01*
X-81316Y-347354D01*
X-81016Y-347410D01*
X-80790Y-347467D01*
X-80621Y-347523D01*
X-80508Y-347561D01*
X-80489Y-347579D01*
X-80470D01*
X-80170Y-347711D01*
X-79907Y-347880D01*
X-79662Y-348031D01*
X-79474Y-348181D01*
X-79305Y-348331D01*
X-79173Y-348444D01*
X-79098Y-348519D01*
X-79079Y-348538D01*
X-78892Y-348764D01*
X-78722Y-349008D01*
X-78572Y-349252D01*
X-78459Y-349478D01*
X-78365Y-349685D01*
X-78309Y-349835D01*
X-78271Y-349948D01*
X-78253Y-349967D01*
Y-349985D01*
X-78158Y-350305D01*
X-78102Y-350643D01*
X-78046Y-350944D01*
X-78027Y-351245D01*
X-78008Y-351489D01*
X-77989Y-351696D01*
Y-351771D01*
Y-351827D01*
Y-351846D01*
Y-351865D01*
X-78008Y-352222D01*
X-78027Y-352560D01*
X-78064Y-352880D01*
X-78102Y-353143D01*
X-78140Y-353369D01*
X-78158Y-353519D01*
X-78196Y-353632D01*
Y-353651D01*
Y-353669D01*
X-78290Y-353951D01*
X-78384Y-354214D01*
X-78478Y-354440D01*
X-78572Y-354647D01*
X-78666Y-354797D01*
X-78741Y-354929D01*
X-78779Y-355004D01*
X-78798Y-355023D01*
X-78967Y-355229D01*
X-79136Y-355399D01*
X-79286Y-355549D01*
X-79455Y-355662D01*
X-79587Y-355756D01*
X-79700Y-355831D01*
X-79775Y-355868D01*
X-79794Y-355887D01*
X-80019Y-355981D01*
X-80264Y-356056D01*
X-80489Y-356113D01*
X-80696Y-356150D01*
X-80884Y-356169D01*
X-81016Y-356188D01*
X-81147D01*
X-81448Y-356169D01*
X-81598Y-356150D01*
X-81711Y-356132D01*
X-81805D01*
X-81899Y-356113D01*
X-81937Y-356094D01*
X-81955D01*
X-82218Y-356019D01*
X-82444Y-355925D01*
X-82538Y-355887D01*
X-82594Y-355850D01*
X-82632Y-355831D01*
X-82651D01*
X-82876Y-355681D01*
X-83064Y-355549D01*
X-83139Y-355493D01*
X-83196Y-355436D01*
X-83215Y-355417D01*
X-83233Y-355399D01*
X-83421Y-355211D01*
X-83572Y-355042D01*
X-83628Y-354966D01*
X-83685Y-354929D01*
X-83703Y-354891D01*
X-83722Y-354872D01*
X-83647Y-356526D01*
Y-359365D01*
X-85715D01*
Y-347241D01*
X-84286Y-347542D01*
X-84136Y-347504D01*
X-84004Y-347467D01*
X-83910Y-347429D01*
X-83872D01*
X-83703Y-347392D01*
X-83553Y-347354D01*
X-83421Y-347335D01*
X-83384D01*
X-83196Y-347316D01*
X-83046Y-347298D01*
X-82914Y-347279D01*
X-82876D01*
X-82707Y-347260D01*
X-82557Y-347241D01*
X-82406D01*
X-82012Y-347260D01*
D02*
G37*
G36*
X-110149Y-344779D02*
X-109792Y-344816D01*
X-109473Y-344892D01*
X-109172Y-344967D01*
X-108927Y-345042D01*
X-108740Y-345117D01*
X-108683Y-345136D01*
X-108627Y-345155D01*
X-108608Y-345174D01*
X-108589D01*
X-108270Y-345324D01*
X-107950Y-345512D01*
X-107687Y-345681D01*
X-107443Y-345850D01*
X-107255Y-346001D01*
X-107104Y-346132D01*
X-107010Y-346207D01*
X-106973Y-346245D01*
X-108063Y-347636D01*
X-108251Y-347467D01*
X-108439Y-347316D01*
X-108608Y-347185D01*
X-108777Y-347091D01*
X-108909Y-346997D01*
X-109022Y-346940D01*
X-109097Y-346903D01*
X-109115Y-346884D01*
X-109322Y-346790D01*
X-109548Y-346715D01*
X-109736Y-346677D01*
X-109924Y-346640D01*
X-110093Y-346621D01*
X-110206Y-346602D01*
X-110318D01*
X-110582Y-346621D01*
X-110807Y-346658D01*
X-110882Y-346696D01*
X-110939Y-346715D01*
X-110976Y-346734D01*
X-110995D01*
X-111202Y-346828D01*
X-111352Y-346940D01*
X-111446Y-347016D01*
X-111484Y-347034D01*
Y-347053D01*
X-111615Y-347222D01*
X-111709Y-347373D01*
X-111766Y-347486D01*
X-111784Y-347523D01*
Y-347542D01*
X-111860Y-347749D01*
X-111878Y-347955D01*
X-111897Y-348031D01*
Y-348087D01*
Y-348125D01*
Y-348143D01*
X-111878Y-348406D01*
X-111860Y-348651D01*
X-111841Y-348745D01*
X-111822Y-348820D01*
X-111803Y-348858D01*
Y-348876D01*
X-111728Y-349158D01*
X-111615Y-349403D01*
X-111559Y-349515D01*
X-111521Y-349591D01*
X-111503Y-349647D01*
X-111484Y-349666D01*
X-111390Y-349816D01*
X-111277Y-349985D01*
X-111164Y-350136D01*
X-111070Y-350286D01*
X-110957Y-350418D01*
X-110882Y-350512D01*
X-110826Y-350587D01*
X-110807Y-350606D01*
X-110638Y-350812D01*
X-110431Y-351019D01*
X-110243Y-351226D01*
X-110055Y-351433D01*
X-109886Y-351602D01*
X-109755Y-351733D01*
X-109661Y-351827D01*
X-109623Y-351865D01*
X-107029Y-354496D01*
Y-356000D01*
X-114529D01*
Y-354102D01*
X-109867D01*
X-111465Y-352579D01*
X-111691Y-352354D01*
X-111916Y-352147D01*
X-112104Y-351959D01*
X-112273Y-351771D01*
X-112405Y-351639D01*
X-112499Y-351527D01*
X-112574Y-351451D01*
X-112593Y-351433D01*
X-112781Y-351226D01*
X-112931Y-351038D01*
X-113082Y-350850D01*
X-113213Y-350700D01*
X-113307Y-350549D01*
X-113382Y-350455D01*
X-113420Y-350380D01*
X-113439Y-350361D01*
X-113664Y-349967D01*
X-113739Y-349779D01*
X-113814Y-349609D01*
X-113871Y-349459D01*
X-113909Y-349346D01*
X-113946Y-349271D01*
Y-349252D01*
X-114059Y-348820D01*
X-114096Y-348594D01*
X-114115Y-348406D01*
X-114134Y-348256D01*
Y-348125D01*
Y-348049D01*
Y-348012D01*
X-114115Y-347730D01*
X-114096Y-347467D01*
X-114059Y-347222D01*
X-114003Y-347016D01*
X-113946Y-346846D01*
X-113909Y-346734D01*
X-113890Y-346640D01*
X-113871Y-346621D01*
X-113758Y-346395D01*
X-113645Y-346207D01*
X-113533Y-346019D01*
X-113401Y-345888D01*
X-113307Y-345756D01*
X-113213Y-345681D01*
X-113157Y-345625D01*
X-113138Y-345606D01*
X-112950Y-345456D01*
X-112762Y-345343D01*
X-112574Y-345230D01*
X-112405Y-345136D01*
X-112236Y-345080D01*
X-112123Y-345023D01*
X-112048Y-344986D01*
X-112010D01*
X-111766Y-344910D01*
X-111503Y-344854D01*
X-111258Y-344816D01*
X-111033Y-344779D01*
X-110826D01*
X-110676Y-344760D01*
X-110544D01*
X-110149Y-344779D01*
D02*
G37*
G36*
X-97368Y-346715D02*
X-98045Y-348406D01*
X-100507Y-347072D01*
Y-354158D01*
X-97688D01*
Y-356000D01*
X-105056D01*
Y-354158D01*
X-102631D01*
Y-344873D01*
X-100883D01*
X-97368Y-346715D01*
D02*
G37*
G36*
X-145016D02*
X-145693Y-348406D01*
X-148155Y-347072D01*
Y-354158D01*
X-145335D01*
Y-356000D01*
X-152703D01*
Y-354158D01*
X-150279D01*
Y-344873D01*
X-148531D01*
X-145016Y-346715D01*
D02*
G37*
G36*
X-188040Y-344986D02*
X-187683Y-345023D01*
X-187382Y-345061D01*
X-187119Y-345098D01*
X-186950Y-345136D01*
X-186875Y-345155D01*
X-186818D01*
X-186799Y-345174D01*
X-186781D01*
X-186461Y-345267D01*
X-186160Y-345362D01*
X-185897Y-345456D01*
X-185672Y-345550D01*
X-185502Y-345644D01*
X-185352Y-345719D01*
X-185277Y-345756D01*
X-185239Y-345775D01*
X-185014Y-345925D01*
X-184807Y-346095D01*
X-184619Y-346245D01*
X-184469Y-346395D01*
X-184337Y-346527D01*
X-184243Y-346640D01*
X-184187Y-346715D01*
X-184168Y-346734D01*
X-183886Y-347166D01*
X-183754Y-347392D01*
X-183660Y-347579D01*
X-183585Y-347749D01*
X-183529Y-347899D01*
X-183491Y-347974D01*
X-183472Y-348012D01*
X-183303Y-348538D01*
X-183247Y-348801D01*
X-183190Y-349027D01*
X-183153Y-349234D01*
X-183115Y-349403D01*
X-183097Y-349497D01*
Y-349515D01*
Y-349534D01*
X-183040Y-350136D01*
X-183021Y-350436D01*
Y-350700D01*
X-183003Y-350925D01*
Y-351113D01*
Y-351226D01*
Y-351245D01*
Y-351264D01*
X-183021Y-351715D01*
X-183040Y-352147D01*
X-183097Y-352542D01*
X-183153Y-352899D01*
X-183247Y-353237D01*
X-183322Y-353538D01*
X-183416Y-353820D01*
X-183510Y-354064D01*
X-183604Y-354271D01*
X-183698Y-354459D01*
X-183792Y-354628D01*
X-183867Y-354759D01*
X-183924Y-354854D01*
X-183980Y-354929D01*
X-183999Y-354966D01*
X-184018Y-354985D01*
X-184224Y-355192D01*
X-184431Y-355380D01*
X-184675Y-355549D01*
X-184901Y-355681D01*
X-185145Y-355793D01*
X-185390Y-355887D01*
X-185878Y-356038D01*
X-186104Y-356094D01*
X-186311Y-356132D01*
X-186480Y-356150D01*
X-186649Y-356169D01*
X-186781Y-356188D01*
X-186968D01*
X-187307Y-356169D01*
X-187608Y-356150D01*
X-187889Y-356113D01*
X-188134Y-356056D01*
X-188322Y-356019D01*
X-188472Y-355981D01*
X-188566Y-355962D01*
X-188604Y-355944D01*
X-188867Y-355831D01*
X-189130Y-355718D01*
X-189337Y-355587D01*
X-189525Y-355474D01*
X-189675Y-355361D01*
X-189788Y-355267D01*
X-189863Y-355211D01*
X-189882Y-355192D01*
X-190070Y-355004D01*
X-190239Y-354797D01*
X-190389Y-354609D01*
X-190502Y-354421D01*
X-190596Y-354271D01*
X-190671Y-354139D01*
X-190709Y-354064D01*
X-190728Y-354026D01*
X-190840Y-353763D01*
X-190916Y-353500D01*
X-190972Y-353237D01*
X-191010Y-353012D01*
X-191028Y-352805D01*
X-191047Y-352636D01*
Y-352542D01*
Y-352504D01*
Y-352222D01*
X-191010Y-351959D01*
X-190972Y-351715D01*
X-190935Y-351508D01*
X-190897Y-351339D01*
X-190859Y-351207D01*
X-190840Y-351113D01*
X-190822Y-351094D01*
X-190728Y-350869D01*
X-190615Y-350662D01*
X-190502Y-350474D01*
X-190389Y-350324D01*
X-190295Y-350192D01*
X-190201Y-350098D01*
X-190145Y-350042D01*
X-190126Y-350023D01*
X-189957Y-349873D01*
X-189769Y-349722D01*
X-189581Y-349609D01*
X-189393Y-349515D01*
X-189243Y-349440D01*
X-189111Y-349384D01*
X-189036Y-349365D01*
X-188999Y-349346D01*
X-188735Y-349271D01*
X-188472Y-349196D01*
X-188209Y-349158D01*
X-187965Y-349140D01*
X-187758Y-349121D01*
X-187589Y-349102D01*
X-187438D01*
X-186987Y-349121D01*
X-186799Y-349140D01*
X-186611Y-349177D01*
X-186461Y-349196D01*
X-186348Y-349234D01*
X-186273Y-349252D01*
X-186254D01*
X-186047Y-349309D01*
X-185860Y-349365D01*
X-185690Y-349422D01*
X-185540Y-349478D01*
X-185427Y-349515D01*
X-185333Y-349553D01*
X-185277Y-349572D01*
X-185258Y-349591D01*
X-185277Y-349403D01*
X-185296Y-349177D01*
X-185333Y-348951D01*
X-185371Y-348764D01*
X-185427Y-348594D01*
X-185465Y-348463D01*
X-185484Y-348369D01*
X-185521Y-348294D01*
Y-348275D01*
X-185596Y-348087D01*
X-185690Y-347937D01*
X-185784Y-347786D01*
X-185878Y-347655D01*
X-185972Y-347561D01*
X-186047Y-347486D01*
X-186085Y-347448D01*
X-186104Y-347429D01*
X-186254Y-347298D01*
X-186423Y-347185D01*
X-186762Y-347016D01*
X-186893Y-346959D01*
X-187025Y-346922D01*
X-187100Y-346884D01*
X-187119D01*
X-187363Y-346828D01*
X-187626Y-346771D01*
X-187871Y-346734D01*
X-188115Y-346715D01*
X-188322Y-346696D01*
X-190126D01*
Y-344948D01*
X-188435D01*
X-188040Y-344986D01*
D02*
G37*
G36*
X-192062Y-356000D02*
X-193829D01*
X-194017Y-349703D01*
X-194073Y-347260D01*
X-194543Y-348951D01*
X-195652Y-352711D01*
X-196968D01*
X-198190Y-348951D01*
X-198716Y-347260D01*
X-198791Y-349760D01*
X-198998Y-356000D01*
X-200840Y-356000D01*
X-200295Y-344948D01*
X-197889D01*
X-196874Y-348200D01*
X-196404Y-349873D01*
X-195934Y-348106D01*
X-194957Y-344948D01*
X-192607D01*
X-192062Y-356000D01*
D02*
G37*
G36*
X-126088D02*
X-128212D01*
Y-350662D01*
X-131520Y-356000D01*
X-134208D01*
X-130261Y-350230D01*
X-134020Y-344948D01*
X-131502D01*
X-128212Y-350004D01*
Y-344948D01*
X-126088D01*
Y-356000D01*
D02*
G37*
G36*
X-91391Y-347335D02*
X-91203Y-347373D01*
X-91128Y-347410D01*
X-91071Y-347429D01*
X-91034Y-347448D01*
X-91015D01*
X-90827Y-347542D01*
X-90677Y-347655D01*
X-90583Y-347730D01*
X-90564Y-347749D01*
X-90545Y-347767D01*
X-90414Y-347937D01*
X-90301Y-348087D01*
X-90244Y-348200D01*
X-90225Y-348237D01*
Y-348256D01*
X-90169Y-348463D01*
X-90132Y-348651D01*
X-90113Y-348726D01*
Y-348782D01*
Y-348820D01*
Y-348839D01*
X-90132Y-349083D01*
X-90169Y-349271D01*
X-90188Y-349346D01*
X-90207Y-349403D01*
X-90225Y-349440D01*
Y-349459D01*
X-90319Y-349647D01*
X-90432Y-349797D01*
X-90507Y-349891D01*
X-90545Y-349910D01*
Y-349929D01*
X-90714Y-350061D01*
X-90865Y-350173D01*
X-90977Y-350230D01*
X-90996Y-350248D01*
X-91015D01*
X-91241Y-350305D01*
X-91428Y-350342D01*
X-91522Y-350361D01*
X-91635D01*
X-91861Y-350342D01*
X-92049Y-350305D01*
X-92124Y-350286D01*
X-92180Y-350267D01*
X-92199Y-350248D01*
X-92218D01*
X-92406Y-350154D01*
X-92575Y-350042D01*
X-92669Y-349967D01*
X-92707Y-349929D01*
X-92838Y-349760D01*
X-92951Y-349609D01*
X-93007Y-349497D01*
X-93026Y-349478D01*
Y-349459D01*
X-93101Y-349234D01*
X-93139Y-349045D01*
X-93158Y-348951D01*
Y-348895D01*
Y-348858D01*
Y-348839D01*
X-93139Y-348613D01*
X-93101Y-348425D01*
X-93064Y-348369D01*
X-93045Y-348312D01*
X-93026Y-348275D01*
Y-348256D01*
X-92932Y-348068D01*
X-92819Y-347899D01*
X-92744Y-347805D01*
X-92725Y-347767D01*
X-92707D01*
X-92537Y-347636D01*
X-92387Y-347523D01*
X-92274Y-347467D01*
X-92237Y-347448D01*
X-92218D01*
X-92011Y-347373D01*
X-91823Y-347335D01*
X-91748Y-347316D01*
X-91635D01*
X-91391Y-347335D01*
D02*
G37*
G36*
X-138531Y-344121D02*
X-138268Y-344140D01*
X-138042Y-344177D01*
X-137836Y-344234D01*
X-137667Y-344290D01*
X-137554Y-344328D01*
X-137460Y-344347D01*
X-137441Y-344365D01*
X-137234Y-344478D01*
X-137028Y-344572D01*
X-136858Y-344704D01*
X-136708Y-344798D01*
X-136595Y-344892D01*
X-136501Y-344967D01*
X-136445Y-345023D01*
X-136426Y-345042D01*
X-136276Y-345192D01*
X-136163Y-345362D01*
X-136050Y-345531D01*
X-135956Y-345681D01*
X-135900Y-345813D01*
X-135843Y-345907D01*
X-135825Y-345982D01*
X-135806Y-346001D01*
X-135731Y-346207D01*
X-135693Y-346414D01*
X-135655Y-346602D01*
X-135618Y-346771D01*
Y-346922D01*
X-135599Y-347053D01*
Y-347128D01*
Y-347147D01*
X-135618Y-347373D01*
X-135637Y-347579D01*
X-135674Y-347786D01*
X-135731Y-347974D01*
X-135768Y-348125D01*
X-135806Y-348237D01*
X-135825Y-348312D01*
X-135843Y-348350D01*
X-135956Y-348576D01*
X-136069Y-348782D01*
X-136201Y-348989D01*
X-136313Y-349177D01*
X-136407Y-349328D01*
X-136501Y-349440D01*
X-136558Y-349534D01*
X-136576Y-349553D01*
X-136746Y-349779D01*
X-136464Y-349985D01*
X-136219Y-350154D01*
X-136125Y-350230D01*
X-136050Y-350286D01*
X-136013Y-350324D01*
X-135994Y-350342D01*
X-135749Y-350568D01*
X-135543Y-350794D01*
X-135468Y-350887D01*
X-135430Y-350963D01*
X-135392Y-351019D01*
X-135373Y-351038D01*
X-135204Y-351339D01*
X-135054Y-351621D01*
X-135016Y-351752D01*
X-134979Y-351846D01*
X-134941Y-351903D01*
Y-351921D01*
X-134847Y-352297D01*
X-134828Y-352485D01*
X-134810Y-352654D01*
X-134791Y-352805D01*
Y-352918D01*
Y-352993D01*
Y-353030D01*
X-134810Y-353293D01*
X-134828Y-353538D01*
X-134866Y-353763D01*
X-134922Y-353951D01*
X-134960Y-354120D01*
X-134998Y-354233D01*
X-135016Y-354327D01*
X-135035Y-354346D01*
X-135129Y-354553D01*
X-135242Y-354741D01*
X-135373Y-354910D01*
X-135486Y-355060D01*
X-135580Y-355173D01*
X-135674Y-355267D01*
X-135731Y-355323D01*
X-135749Y-355342D01*
X-135937Y-355493D01*
X-136125Y-355624D01*
X-136313Y-355718D01*
X-136501Y-355812D01*
X-136652Y-355887D01*
X-136783Y-355944D01*
X-136858Y-355962D01*
X-136896Y-355981D01*
X-137159Y-356056D01*
X-137441Y-356094D01*
X-137704Y-356132D01*
X-137949Y-356169D01*
X-138155D01*
X-138324Y-356188D01*
X-138475D01*
X-138757Y-356169D01*
X-139039Y-356150D01*
X-139283Y-356113D01*
X-139509Y-356075D01*
X-139697Y-356038D01*
X-139847Y-356000D01*
X-139922Y-355962D01*
X-139960D01*
X-140223Y-355868D01*
X-140467Y-355756D01*
X-140693Y-355643D01*
X-140881Y-355530D01*
X-141031Y-355436D01*
X-141163Y-355361D01*
X-141238Y-355305D01*
X-141257Y-355286D01*
X-141858Y-356000D01*
X-144302D01*
X-142497Y-353820D01*
X-142779Y-353275D01*
X-142873Y-352993D01*
X-142967Y-352748D01*
X-143042Y-352542D01*
X-143099Y-352372D01*
X-143118Y-352260D01*
X-143136Y-352241D01*
Y-352222D01*
X-143211Y-351884D01*
X-143268Y-351527D01*
X-143305Y-351188D01*
X-143343Y-350887D01*
Y-350624D01*
X-143362Y-350418D01*
Y-350342D01*
Y-350286D01*
Y-350248D01*
Y-350230D01*
X-141445D01*
Y-350662D01*
X-141426Y-350850D01*
Y-351000D01*
X-141407Y-351151D01*
Y-351245D01*
X-141388Y-351320D01*
Y-351339D01*
X-141332Y-351696D01*
X-141313Y-351865D01*
X-141276Y-351996D01*
X-141257Y-352109D01*
X-141238Y-352203D01*
X-141219Y-352260D01*
Y-352278D01*
X-139340Y-349985D01*
X-139697Y-349779D01*
X-139866Y-349685D01*
X-139997Y-349591D01*
X-140129Y-349534D01*
X-140223Y-349478D01*
X-140279Y-349440D01*
X-140298Y-349422D01*
X-140618Y-349196D01*
X-140768Y-349083D01*
X-140881Y-348970D01*
X-140993Y-348876D01*
X-141069Y-348801D01*
X-141106Y-348764D01*
X-141125Y-348745D01*
X-141369Y-348444D01*
X-141557Y-348162D01*
X-141614Y-348049D01*
X-141670Y-347955D01*
X-141689Y-347899D01*
X-141708Y-347880D01*
X-141783Y-347692D01*
X-141839Y-347486D01*
X-141877Y-347279D01*
X-141915Y-347109D01*
Y-346940D01*
X-141933Y-346828D01*
Y-346752D01*
Y-346715D01*
Y-346527D01*
X-141896Y-346339D01*
X-141858Y-346170D01*
X-141820Y-346019D01*
X-141783Y-345888D01*
X-141745Y-345794D01*
X-141727Y-345737D01*
X-141708Y-345719D01*
X-141520Y-345380D01*
X-141426Y-345249D01*
X-141332Y-345117D01*
X-141238Y-345023D01*
X-141163Y-344948D01*
X-141125Y-344910D01*
X-141106Y-344892D01*
X-140787Y-344647D01*
X-140467Y-344478D01*
X-140336Y-344403D01*
X-140223Y-344365D01*
X-140148Y-344328D01*
X-140129D01*
X-139903Y-344253D01*
X-139678Y-344196D01*
X-139471Y-344159D01*
X-139264Y-344121D01*
X-139076D01*
X-138945Y-344102D01*
X-138813D01*
X-138531Y-344121D01*
D02*
G37*
G36*
X12607Y-344798D02*
X13002Y-344835D01*
X13359Y-344910D01*
X13660Y-344967D01*
X13923Y-345042D01*
X14111Y-345117D01*
X14186Y-345136D01*
X14243Y-345155D01*
X14261Y-345173D01*
X14280D01*
X14619Y-345343D01*
X14919Y-345512D01*
X15201Y-345700D01*
X15446Y-345888D01*
X15633Y-346057D01*
X15784Y-346189D01*
X15859Y-346283D01*
X15897Y-346320D01*
X16122Y-346621D01*
X16329Y-346922D01*
X16498Y-347241D01*
X16648Y-347523D01*
X16761Y-347786D01*
X16837Y-347974D01*
X16874Y-348049D01*
X16893Y-348106D01*
X16912Y-348143D01*
Y-348162D01*
X17025Y-348576D01*
X17100Y-349008D01*
X17175Y-349421D01*
X17212Y-349816D01*
X17231Y-350136D01*
Y-350286D01*
X17250Y-350399D01*
Y-350512D01*
Y-350587D01*
Y-350624D01*
Y-350643D01*
X17231Y-351132D01*
X17194Y-351602D01*
X17156Y-352015D01*
X17081Y-352354D01*
X17025Y-352654D01*
X17006Y-352767D01*
X16987Y-352861D01*
X16968Y-352936D01*
X16949Y-352993D01*
X16931Y-353030D01*
Y-353049D01*
X16799Y-353406D01*
X16648Y-353745D01*
X16498Y-354026D01*
X16348Y-354290D01*
X16197Y-354478D01*
X16085Y-354628D01*
X16010Y-354722D01*
X15991Y-354759D01*
X15746Y-355004D01*
X15483Y-355211D01*
X15220Y-355399D01*
X14976Y-355549D01*
X14750Y-355662D01*
X14581Y-355737D01*
X14468Y-355793D01*
X14449Y-355812D01*
X14431D01*
X14073Y-355925D01*
X13716Y-356000D01*
X13359Y-356075D01*
X13040Y-356113D01*
X12739Y-356132D01*
X12626D01*
X12532Y-356150D01*
X12043D01*
X11780Y-356132D01*
X11536Y-356094D01*
X11329Y-356075D01*
X11141Y-356038D01*
X11010Y-356019D01*
X10934Y-356000D01*
X10897D01*
X10371Y-355868D01*
X10126Y-355812D01*
X9920Y-355737D01*
X9732Y-355662D01*
X9581Y-355624D01*
X9487Y-355587D01*
X9450Y-355568D01*
Y-353613D01*
X9656Y-353707D01*
X9863Y-353801D01*
X9938Y-353820D01*
X10014Y-353857D01*
X10051Y-353876D01*
X10070D01*
X10314Y-353951D01*
X10521Y-354026D01*
X10596Y-354045D01*
X10671Y-354064D01*
X10709Y-354083D01*
X10728D01*
X10972Y-354139D01*
X11179Y-354196D01*
X11254Y-354214D01*
X11329D01*
X11367Y-354233D01*
X11386D01*
X11611Y-354252D01*
X11799Y-354271D01*
X11987D01*
X12269Y-354252D01*
X12513Y-354233D01*
X12739Y-354196D01*
X12946Y-354139D01*
X13096Y-354102D01*
X13228Y-354064D01*
X13303Y-354045D01*
X13322Y-354026D01*
X13528Y-353914D01*
X13698Y-353801D01*
X13867Y-353669D01*
X13998Y-353557D01*
X14111Y-353444D01*
X14186Y-353350D01*
X14243Y-353293D01*
X14261Y-353275D01*
X14393Y-353087D01*
X14487Y-352880D01*
X14581Y-352692D01*
X14656Y-352504D01*
X14713Y-352335D01*
X14750Y-352203D01*
X14788Y-352128D01*
Y-352090D01*
X14882Y-351527D01*
X14919Y-351263D01*
X14938Y-351019D01*
Y-350793D01*
X14957Y-350624D01*
Y-350512D01*
Y-350493D01*
Y-350474D01*
Y-350173D01*
X14938Y-349873D01*
X14900Y-349609D01*
X14882Y-349384D01*
X14844Y-349196D01*
X14825Y-349045D01*
X14806Y-348970D01*
Y-348933D01*
X14731Y-348670D01*
X14656Y-348444D01*
X14562Y-348237D01*
X14487Y-348049D01*
X14393Y-347918D01*
X14337Y-347805D01*
X14299Y-347730D01*
X14280Y-347711D01*
X14130Y-347523D01*
X13980Y-347373D01*
X13829Y-347241D01*
X13679Y-347128D01*
X13547Y-347034D01*
X13453Y-346978D01*
X13378Y-346940D01*
X13359Y-346922D01*
X13134Y-346828D01*
X12908Y-346752D01*
X12683Y-346696D01*
X12476Y-346658D01*
X12288Y-346640D01*
X12138Y-346621D01*
X12006D01*
X11592Y-346640D01*
X11404Y-346658D01*
X11216Y-346696D01*
X11066Y-346715D01*
X10953Y-346752D01*
X10859Y-346771D01*
X10841D01*
X10352Y-346903D01*
X10108Y-346978D01*
X9901Y-347053D01*
X9713Y-347128D01*
X9581Y-347185D01*
X9487Y-347222D01*
X9450Y-347241D01*
Y-345173D01*
X9713Y-345098D01*
X9938Y-345042D01*
X10014Y-345023D01*
X10089Y-345004D01*
X10126Y-344986D01*
X10145D01*
X10389Y-344929D01*
X10596Y-344892D01*
X10690D01*
X10747Y-344873D01*
X10803D01*
X11047Y-344835D01*
X11254Y-344816D01*
X11329Y-344798D01*
X11461D01*
X11705Y-344779D01*
X12175D01*
X12607Y-344798D01*
D02*
G37*
G36*
X3848Y-347241D02*
X4168Y-347279D01*
X4450Y-347335D01*
X4694Y-347392D01*
X4901Y-347448D01*
X5051Y-347504D01*
X5145Y-347542D01*
X5183Y-347561D01*
X5446Y-347692D01*
X5691Y-347861D01*
X5916Y-348012D01*
X6104Y-348162D01*
X6254Y-348312D01*
X6367Y-348425D01*
X6442Y-348500D01*
X6461Y-348519D01*
X6649Y-348764D01*
X6799Y-349008D01*
X6950Y-349252D01*
X7063Y-349478D01*
X7157Y-349685D01*
X7213Y-349835D01*
X7250Y-349948D01*
X7269Y-349967D01*
Y-349985D01*
X7363Y-350305D01*
X7438Y-350643D01*
X7476Y-350963D01*
X7514Y-351245D01*
X7533Y-351508D01*
X7551Y-351715D01*
Y-351790D01*
Y-351827D01*
Y-351865D01*
Y-351884D01*
X7533Y-352260D01*
X7514Y-352617D01*
X7457Y-352936D01*
X7401Y-353199D01*
X7363Y-353425D01*
X7307Y-353594D01*
X7288Y-353707D01*
X7269Y-353726D01*
Y-353745D01*
X7157Y-354026D01*
X7025Y-354290D01*
X6875Y-354534D01*
X6743Y-354722D01*
X6630Y-354891D01*
X6536Y-355004D01*
X6461Y-355079D01*
X6442Y-355098D01*
X6235Y-355286D01*
X6010Y-355455D01*
X5784Y-355605D01*
X5578Y-355718D01*
X5390Y-355812D01*
X5258Y-355868D01*
X5164Y-355906D01*
X5127Y-355925D01*
X4826Y-356019D01*
X4525Y-356075D01*
X4224Y-356132D01*
X3961Y-356150D01*
X3717Y-356169D01*
X3529Y-356188D01*
X3078D01*
X2815Y-356169D01*
X2721D01*
X2646Y-356150D01*
X2570D01*
X2270Y-356113D01*
X2119D01*
X2006Y-356094D01*
X1894Y-356075D01*
X1819Y-356056D01*
X1743D01*
X1443Y-356019D01*
X1311Y-356000D01*
X1198Y-355981D01*
X1085Y-355962D01*
X1010Y-355944D01*
X954D01*
X672Y-355887D01*
X446Y-355812D01*
X352Y-355793D01*
X277Y-355774D01*
X240Y-355756D01*
X221D01*
Y-354120D01*
X503Y-354196D01*
X785Y-354271D01*
X1029Y-354327D01*
X1255Y-354365D01*
X1443Y-354402D01*
X1574Y-354421D01*
X1668Y-354440D01*
X1706D01*
X1969Y-354478D01*
X2213Y-354496D01*
X2439Y-354515D01*
X2646D01*
X2815Y-354534D01*
X3040D01*
X3416Y-354515D01*
X3585Y-354478D01*
X3736Y-354459D01*
X3867Y-354421D01*
X3961Y-354402D01*
X4018Y-354384D01*
X4036D01*
X4337Y-354252D01*
X4469Y-354177D01*
X4581Y-354102D01*
X4657Y-354045D01*
X4732Y-353989D01*
X4769Y-353970D01*
X4788Y-353951D01*
X4995Y-353707D01*
X5145Y-353481D01*
X5202Y-353387D01*
X5239Y-353312D01*
X5277Y-353256D01*
Y-353237D01*
X5371Y-352899D01*
X5408Y-352729D01*
X5427Y-352560D01*
Y-352429D01*
X5446Y-352316D01*
Y-352241D01*
Y-352222D01*
X-193D01*
X-212Y-351996D01*
Y-351809D01*
X-230Y-351715D01*
Y-351658D01*
Y-351621D01*
Y-351602D01*
X-249Y-351376D01*
Y-351207D01*
Y-351094D01*
Y-351057D01*
X-230Y-350756D01*
X-212Y-350455D01*
X-174Y-350192D01*
X-117Y-349967D01*
X-61Y-349779D01*
X-23Y-349628D01*
X-5Y-349553D01*
X14Y-349515D01*
X108Y-349271D01*
X221Y-349027D01*
X352Y-348820D01*
X465Y-348651D01*
X559Y-348500D01*
X653Y-348406D01*
X710Y-348331D01*
X728Y-348312D01*
X916Y-348125D01*
X1104Y-347974D01*
X1311Y-347843D01*
X1499Y-347730D01*
X1668Y-347636D01*
X1800Y-347579D01*
X1875Y-347542D01*
X1912Y-347523D01*
X2176Y-347429D01*
X2458Y-347354D01*
X2721Y-347298D01*
X2965Y-347260D01*
X3191Y-347241D01*
X3360Y-347222D01*
X3510D01*
X3848Y-347241D01*
D02*
G37*
G36*
X-13444Y-345230D02*
Y-347410D01*
X-11151D01*
Y-349027D01*
X-13444D01*
Y-353218D01*
Y-353500D01*
X-13482Y-353745D01*
X-13500Y-353970D01*
X-13538Y-354177D01*
X-13575Y-354327D01*
X-13594Y-354459D01*
X-13632Y-354534D01*
Y-354553D01*
X-13707Y-354759D01*
X-13801Y-354929D01*
X-13895Y-355098D01*
X-13989Y-355229D01*
X-14083Y-355342D01*
X-14158Y-355417D01*
X-14196Y-355474D01*
X-14215Y-355493D01*
X-14365Y-355624D01*
X-14534Y-355718D01*
X-14872Y-355887D01*
X-15004Y-355944D01*
X-15136Y-355981D01*
X-15211Y-356019D01*
X-15230D01*
X-15474Y-356075D01*
X-15718Y-356113D01*
X-15963Y-356150D01*
X-16188Y-356169D01*
X-16395D01*
X-16545Y-356188D01*
X-16696D01*
X-17071Y-356169D01*
X-17260Y-356150D01*
X-17429Y-356132D01*
X-17560D01*
X-17673Y-356113D01*
X-17748Y-356094D01*
X-17767D01*
X-18181Y-356038D01*
X-18368Y-356000D01*
X-18538Y-355962D01*
X-18688Y-355944D01*
X-18801Y-355925D01*
X-18876Y-355906D01*
X-18895D01*
Y-354252D01*
X-18575Y-354327D01*
X-18425Y-354365D01*
X-18293Y-354402D01*
X-18162Y-354421D01*
X-18068Y-354440D01*
X-18011Y-354459D01*
X-17993D01*
X-17635Y-354496D01*
X-17485Y-354515D01*
X-17335D01*
X-17203Y-354534D01*
X-17015D01*
X-16733Y-354515D01*
X-16508Y-354478D01*
X-16320Y-354421D01*
X-16150Y-354346D01*
X-16038Y-354290D01*
X-15963Y-354233D01*
X-15906Y-354196D01*
X-15887Y-354177D01*
X-15775Y-354026D01*
X-15699Y-353839D01*
X-15643Y-353669D01*
X-15605Y-353481D01*
X-15587Y-353312D01*
X-15568Y-353181D01*
Y-353105D01*
Y-353068D01*
Y-349027D01*
X-18895D01*
Y-347410D01*
X-15568D01*
Y-344666D01*
X-13444Y-345230D01*
D02*
G37*
G36*
X-24740Y-347241D02*
X-24421Y-347279D01*
X-24139Y-347335D01*
X-23894Y-347392D01*
X-23688Y-347448D01*
X-23537Y-347504D01*
X-23443Y-347542D01*
X-23406Y-347561D01*
X-23143Y-347692D01*
X-22898Y-347861D01*
X-22673Y-348012D01*
X-22485Y-348162D01*
X-22334Y-348312D01*
X-22222Y-348425D01*
X-22146Y-348500D01*
X-22128Y-348519D01*
X-21940Y-348764D01*
X-21789Y-349008D01*
X-21639Y-349252D01*
X-21526Y-349478D01*
X-21432Y-349685D01*
X-21376Y-349835D01*
X-21338Y-349948D01*
X-21319Y-349967D01*
Y-349985D01*
X-21225Y-350305D01*
X-21150Y-350643D01*
X-21113Y-350963D01*
X-21075Y-351245D01*
X-21056Y-351508D01*
X-21037Y-351715D01*
Y-351790D01*
Y-351827D01*
Y-351865D01*
Y-351884D01*
X-21056Y-352260D01*
X-21075Y-352617D01*
X-21131Y-352936D01*
X-21188Y-353199D01*
X-21225Y-353425D01*
X-21282Y-353594D01*
X-21301Y-353707D01*
X-21319Y-353726D01*
Y-353745D01*
X-21432Y-354026D01*
X-21564Y-354290D01*
X-21714Y-354534D01*
X-21846Y-354722D01*
X-21958Y-354891D01*
X-22052Y-355004D01*
X-22128Y-355079D01*
X-22146Y-355098D01*
X-22353Y-355286D01*
X-22579Y-355455D01*
X-22804Y-355605D01*
X-23011Y-355718D01*
X-23199Y-355812D01*
X-23331Y-355868D01*
X-23424Y-355906D01*
X-23462Y-355925D01*
X-23763Y-356019D01*
X-24064Y-356075D01*
X-24364Y-356132D01*
X-24627Y-356150D01*
X-24872Y-356169D01*
X-25060Y-356188D01*
X-25511D01*
X-25774Y-356169D01*
X-25868D01*
X-25943Y-356150D01*
X-26018D01*
X-26319Y-356113D01*
X-26470D01*
X-26582Y-356094D01*
X-26695Y-356075D01*
X-26770Y-356056D01*
X-26845D01*
X-27146Y-356019D01*
X-27278Y-356000D01*
X-27390Y-355981D01*
X-27503Y-355962D01*
X-27578Y-355944D01*
X-27635D01*
X-27917Y-355887D01*
X-28142Y-355812D01*
X-28236Y-355793D01*
X-28312Y-355774D01*
X-28349Y-355756D01*
X-28368D01*
Y-354120D01*
X-28086Y-354196D01*
X-27804Y-354271D01*
X-27560Y-354327D01*
X-27334Y-354365D01*
X-27146Y-354402D01*
X-27015Y-354421D01*
X-26921Y-354440D01*
X-26883D01*
X-26620Y-354478D01*
X-26376Y-354496D01*
X-26150Y-354515D01*
X-25943D01*
X-25774Y-354534D01*
X-25549D01*
X-25173Y-354515D01*
X-25003Y-354478D01*
X-24853Y-354459D01*
X-24722Y-354421D01*
X-24627Y-354402D01*
X-24571Y-354384D01*
X-24552D01*
X-24252Y-354252D01*
X-24120Y-354177D01*
X-24007Y-354102D01*
X-23932Y-354045D01*
X-23857Y-353989D01*
X-23819Y-353970D01*
X-23800Y-353951D01*
X-23594Y-353707D01*
X-23443Y-353481D01*
X-23387Y-353387D01*
X-23349Y-353312D01*
X-23312Y-353256D01*
Y-353237D01*
X-23218Y-352899D01*
X-23180Y-352729D01*
X-23161Y-352560D01*
Y-352429D01*
X-23143Y-352316D01*
Y-352241D01*
Y-352222D01*
X-28781D01*
X-28800Y-351996D01*
Y-351809D01*
X-28819Y-351715D01*
Y-351658D01*
Y-351621D01*
Y-351602D01*
X-28838Y-351376D01*
Y-351207D01*
Y-351094D01*
Y-351057D01*
X-28819Y-350756D01*
X-28800Y-350455D01*
X-28763Y-350192D01*
X-28706Y-349967D01*
X-28650Y-349779D01*
X-28612Y-349628D01*
X-28593Y-349553D01*
X-28575Y-349515D01*
X-28481Y-349271D01*
X-28368Y-349027D01*
X-28236Y-348820D01*
X-28124Y-348651D01*
X-28030Y-348500D01*
X-27936Y-348406D01*
X-27879Y-348331D01*
X-27860Y-348312D01*
X-27672Y-348125D01*
X-27485Y-347974D01*
X-27278Y-347843D01*
X-27090Y-347730D01*
X-26921Y-347636D01*
X-26789Y-347579D01*
X-26714Y-347542D01*
X-26676Y-347523D01*
X-26413Y-347429D01*
X-26131Y-347354D01*
X-25868Y-347298D01*
X-25624Y-347260D01*
X-25398Y-347241D01*
X-25229Y-347222D01*
X-25079D01*
X-24740Y-347241D01*
D02*
G37*
G36*
X-72388Y-347241D02*
X-72069Y-347279D01*
X-71787Y-347335D01*
X-71542Y-347392D01*
X-71336Y-347448D01*
X-71185Y-347504D01*
X-71091Y-347542D01*
X-71054Y-347561D01*
X-70791Y-347692D01*
X-70546Y-347861D01*
X-70321Y-348012D01*
X-70133Y-348162D01*
X-69982Y-348312D01*
X-69869Y-348425D01*
X-69794Y-348500D01*
X-69776Y-348519D01*
X-69587Y-348764D01*
X-69437Y-349008D01*
X-69287Y-349252D01*
X-69174Y-349478D01*
X-69080Y-349685D01*
X-69024Y-349835D01*
X-68986Y-349948D01*
X-68967Y-349967D01*
Y-349985D01*
X-68873Y-350305D01*
X-68798Y-350643D01*
X-68760Y-350963D01*
X-68723Y-351245D01*
X-68704Y-351508D01*
X-68685Y-351715D01*
Y-351790D01*
Y-351827D01*
Y-351865D01*
Y-351884D01*
X-68704Y-352260D01*
X-68723Y-352617D01*
X-68779Y-352936D01*
X-68836Y-353199D01*
X-68873Y-353425D01*
X-68930Y-353594D01*
X-68948Y-353707D01*
X-68967Y-353726D01*
Y-353745D01*
X-69080Y-354026D01*
X-69212Y-354290D01*
X-69362Y-354534D01*
X-69493Y-354722D01*
X-69606Y-354891D01*
X-69700Y-355004D01*
X-69776Y-355079D01*
X-69794Y-355098D01*
X-70001Y-355286D01*
X-70227Y-355455D01*
X-70452Y-355605D01*
X-70659Y-355718D01*
X-70847Y-355812D01*
X-70978Y-355868D01*
X-71072Y-355906D01*
X-71110Y-355925D01*
X-71411Y-356019D01*
X-71712Y-356075D01*
X-72012Y-356132D01*
X-72275Y-356150D01*
X-72520Y-356169D01*
X-72708Y-356188D01*
X-73159D01*
X-73422Y-356169D01*
X-73516D01*
X-73591Y-356150D01*
X-73666D01*
X-73967Y-356113D01*
X-74117D01*
X-74230Y-356094D01*
X-74343Y-356075D01*
X-74418Y-356056D01*
X-74493D01*
X-74794Y-356019D01*
X-74926Y-356000D01*
X-75038Y-355981D01*
X-75151Y-355962D01*
X-75226Y-355944D01*
X-75283D01*
X-75565Y-355887D01*
X-75790Y-355812D01*
X-75884Y-355793D01*
X-75959Y-355774D01*
X-75997Y-355756D01*
X-76016D01*
Y-354120D01*
X-75734Y-354196D01*
X-75452Y-354271D01*
X-75208Y-354327D01*
X-74982Y-354365D01*
X-74794Y-354402D01*
X-74662Y-354421D01*
X-74569Y-354440D01*
X-74531D01*
X-74268Y-354478D01*
X-74023Y-354496D01*
X-73798Y-354515D01*
X-73591D01*
X-73422Y-354534D01*
X-73196D01*
X-72820Y-354515D01*
X-72651Y-354478D01*
X-72501Y-354459D01*
X-72369Y-354421D01*
X-72275Y-354402D01*
X-72219Y-354384D01*
X-72200D01*
X-71899Y-354252D01*
X-71768Y-354177D01*
X-71655Y-354102D01*
X-71580Y-354045D01*
X-71505Y-353989D01*
X-71467Y-353970D01*
X-71448Y-353951D01*
X-71242Y-353707D01*
X-71091Y-353481D01*
X-71035Y-353387D01*
X-70997Y-353312D01*
X-70960Y-353256D01*
Y-353237D01*
X-70866Y-352899D01*
X-70828Y-352729D01*
X-70809Y-352560D01*
Y-352429D01*
X-70791Y-352316D01*
Y-352241D01*
Y-352222D01*
X-76429D01*
X-76448Y-351996D01*
Y-351809D01*
X-76467Y-351715D01*
Y-351658D01*
Y-351621D01*
Y-351602D01*
X-76486Y-351376D01*
Y-351207D01*
Y-351094D01*
Y-351057D01*
X-76467Y-350756D01*
X-76448Y-350455D01*
X-76410Y-350192D01*
X-76354Y-349967D01*
X-76298Y-349779D01*
X-76260Y-349628D01*
X-76241Y-349553D01*
X-76223Y-349515D01*
X-76129Y-349271D01*
X-76016Y-349027D01*
X-75884Y-348820D01*
X-75771Y-348651D01*
X-75677Y-348500D01*
X-75583Y-348406D01*
X-75527Y-348331D01*
X-75508Y-348312D01*
X-75320Y-348125D01*
X-75132Y-347974D01*
X-74926Y-347843D01*
X-74738Y-347730D01*
X-74569Y-347636D01*
X-74437Y-347579D01*
X-74362Y-347542D01*
X-74324Y-347523D01*
X-74061Y-347429D01*
X-73779Y-347354D01*
X-73516Y-347298D01*
X-73271Y-347260D01*
X-73046Y-347241D01*
X-72877Y-347222D01*
X-72726D01*
X-72388Y-347241D01*
D02*
G37*
G36*
X-6508Y-347241D02*
X-6377Y-347260D01*
X-6245Y-347279D01*
X-6151Y-347298D01*
X-6076Y-347316D01*
X-6019Y-347335D01*
X-6001D01*
X-5738Y-347429D01*
X-5512Y-347523D01*
X-5418Y-347561D01*
X-5343Y-347598D01*
X-5305Y-347617D01*
X-5286Y-347636D01*
X-5042Y-347786D01*
X-4854Y-347937D01*
X-4779Y-347993D01*
X-4723Y-348049D01*
X-4685Y-348068D01*
X-4666Y-348087D01*
X-4459Y-348294D01*
X-4290Y-348482D01*
X-4215Y-348576D01*
X-4159Y-348632D01*
X-4140Y-348670D01*
X-4121Y-348688D01*
X-4083Y-347410D01*
X-2298D01*
Y-356000D01*
X-4365D01*
Y-350568D01*
X-4553Y-350305D01*
X-4741Y-350079D01*
X-4911Y-349891D01*
X-5061Y-349722D01*
X-5192Y-349591D01*
X-5286Y-349497D01*
X-5343Y-349440D01*
X-5362Y-349421D01*
X-5549Y-349271D01*
X-5719Y-349177D01*
X-5907Y-349102D01*
X-6057Y-349045D01*
X-6189Y-349008D01*
X-6283Y-348989D01*
X-6377D01*
X-6564Y-349008D01*
X-6734Y-349045D01*
X-6865Y-349121D01*
X-6978Y-349215D01*
X-7166Y-349440D01*
X-7298Y-349703D01*
X-7373Y-349967D01*
X-7410Y-350192D01*
X-7429Y-350286D01*
Y-350361D01*
Y-350399D01*
Y-350418D01*
Y-356000D01*
X-9497D01*
Y-350248D01*
Y-350004D01*
X-9478Y-349760D01*
X-9440Y-349553D01*
X-9421Y-349365D01*
X-9384Y-349215D01*
X-9346Y-349102D01*
X-9327Y-349027D01*
Y-349008D01*
X-9252Y-348801D01*
X-9177Y-348613D01*
X-9102Y-348463D01*
X-9008Y-348312D01*
X-8933Y-348200D01*
X-8876Y-348125D01*
X-8839Y-348068D01*
X-8820Y-348049D01*
X-8557Y-347786D01*
X-8294Y-347598D01*
X-8181Y-347542D01*
X-8087Y-347485D01*
X-8031Y-347448D01*
X-8012D01*
X-7824Y-347373D01*
X-7617Y-347316D01*
X-7429Y-347279D01*
X-7241Y-347241D01*
X-7091D01*
X-6959Y-347222D01*
X-6847D01*
X-6508Y-347241D01*
D02*
G37*
G36*
X-35492D02*
X-35341Y-347260D01*
X-35228Y-347279D01*
X-35116Y-347298D01*
X-35041Y-347316D01*
X-34984Y-347335D01*
X-34965D01*
X-34683Y-347429D01*
X-34458Y-347523D01*
X-34364Y-347561D01*
X-34289Y-347598D01*
X-34251Y-347617D01*
X-34232Y-347636D01*
X-34007Y-347786D01*
X-33819Y-347937D01*
X-33744Y-347993D01*
X-33687Y-348049D01*
X-33668Y-348068D01*
X-33650Y-348087D01*
X-33462Y-348294D01*
X-33311Y-348482D01*
X-33255Y-348557D01*
X-33217Y-348613D01*
X-33198Y-348651D01*
X-33180Y-348670D01*
X-33086Y-347410D01*
X-31225D01*
Y-356000D01*
X-33349D01*
Y-350568D01*
X-33556Y-350267D01*
X-33744Y-350023D01*
X-33932Y-349816D01*
X-34082Y-349647D01*
X-34213Y-349515D01*
X-34326Y-349421D01*
X-34383Y-349365D01*
X-34401Y-349346D01*
X-34589Y-349215D01*
X-34759Y-349121D01*
X-34909Y-349045D01*
X-35059Y-349008D01*
X-35172Y-348970D01*
X-35266Y-348951D01*
X-35341D01*
X-35529Y-348970D01*
X-35680Y-349008D01*
X-35773Y-349045D01*
X-35811Y-349064D01*
X-35943Y-349158D01*
X-36056Y-349252D01*
X-36131Y-349346D01*
X-36149Y-349365D01*
Y-349384D01*
X-36243Y-349572D01*
X-36319Y-349741D01*
X-36337Y-349835D01*
Y-349891D01*
X-36356Y-349929D01*
Y-349948D01*
X-36394Y-350211D01*
X-36413Y-350474D01*
Y-350587D01*
Y-350681D01*
Y-350737D01*
Y-350756D01*
X-38480D01*
Y-350436D01*
X-38461Y-350154D01*
X-38442Y-349891D01*
X-38405Y-349666D01*
X-38386Y-349478D01*
X-38349Y-349346D01*
X-38330Y-349271D01*
Y-349234D01*
X-38255Y-348989D01*
X-38179Y-348782D01*
X-38104Y-348576D01*
X-38010Y-348425D01*
X-37935Y-348294D01*
X-37879Y-348200D01*
X-37841Y-348143D01*
X-37822Y-348125D01*
X-37691Y-347974D01*
X-37540Y-347824D01*
X-37409Y-347711D01*
X-37277Y-347617D01*
X-37164Y-347542D01*
X-37070Y-347485D01*
X-36995Y-347467D01*
X-36976Y-347448D01*
X-36788Y-347373D01*
X-36600Y-347316D01*
X-36394Y-347279D01*
X-36225Y-347241D01*
X-36056D01*
X-35943Y-347222D01*
X-35830D01*
X-35492Y-347241D01*
D02*
G37*
G36*
X-50322Y-356000D02*
X-52446D01*
Y-351470D01*
X-56618Y-351470D01*
Y-349760D01*
X-52446Y-349760D01*
Y-346715D01*
X-56863Y-346715D01*
Y-344948D01*
X-50322Y-344948D01*
Y-356000D01*
D02*
G37*
G36*
X-64080Y-347241D02*
X-63930Y-347260D01*
X-63817Y-347279D01*
X-63704Y-347298D01*
X-63629Y-347316D01*
X-63573Y-347335D01*
X-63554D01*
X-63272Y-347429D01*
X-63046Y-347523D01*
X-62952Y-347561D01*
X-62877Y-347598D01*
X-62840Y-347617D01*
X-62821Y-347636D01*
X-62595Y-347786D01*
X-62407Y-347937D01*
X-62332Y-347993D01*
X-62276Y-348049D01*
X-62257Y-348068D01*
X-62238Y-348087D01*
X-62050Y-348294D01*
X-61900Y-348482D01*
X-61844Y-348557D01*
X-61806Y-348613D01*
X-61787Y-348651D01*
X-61768Y-348670D01*
X-61674Y-347410D01*
X-59814D01*
Y-356000D01*
X-61937D01*
Y-350568D01*
X-62144Y-350267D01*
X-62332Y-350023D01*
X-62520Y-349816D01*
X-62671Y-349647D01*
X-62802Y-349515D01*
X-62915Y-349422D01*
X-62971Y-349365D01*
X-62990Y-349346D01*
X-63178Y-349215D01*
X-63347Y-349121D01*
X-63498Y-349045D01*
X-63648Y-349008D01*
X-63761Y-348970D01*
X-63855Y-348951D01*
X-63930D01*
X-64118Y-348970D01*
X-64268Y-349008D01*
X-64362Y-349045D01*
X-64400Y-349064D01*
X-64531Y-349158D01*
X-64644Y-349252D01*
X-64719Y-349346D01*
X-64738Y-349365D01*
Y-349384D01*
X-64832Y-349572D01*
X-64907Y-349741D01*
X-64926Y-349835D01*
Y-349891D01*
X-64945Y-349929D01*
Y-349948D01*
X-64983Y-350211D01*
X-65001Y-350474D01*
Y-350587D01*
Y-350681D01*
Y-350737D01*
Y-350756D01*
X-67069D01*
Y-350436D01*
X-67050Y-350154D01*
X-67031Y-349891D01*
X-66994Y-349666D01*
X-66975Y-349478D01*
X-66937Y-349346D01*
X-66919Y-349271D01*
Y-349234D01*
X-66843Y-348989D01*
X-66768Y-348782D01*
X-66693Y-348576D01*
X-66599Y-348425D01*
X-66524Y-348294D01*
X-66467Y-348200D01*
X-66430Y-348143D01*
X-66411Y-348125D01*
X-66279Y-347974D01*
X-66129Y-347824D01*
X-65998Y-347711D01*
X-65866Y-347617D01*
X-65753Y-347542D01*
X-65659Y-347486D01*
X-65584Y-347467D01*
X-65565Y-347448D01*
X-65377Y-347373D01*
X-65189Y-347316D01*
X-64983Y-347279D01*
X-64813Y-347241D01*
X-64644D01*
X-64531Y-347222D01*
X-64419D01*
X-64080Y-347241D01*
D02*
G37*
G36*
X-116991Y-350831D02*
X-119153D01*
X-119641Y-350850D01*
X-120036Y-350906D01*
X-120393Y-350981D01*
X-120656Y-351057D01*
X-120882Y-351132D01*
X-121032Y-351207D01*
X-121107Y-351264D01*
X-121145Y-351282D01*
X-121352Y-351470D01*
X-121502Y-351677D01*
X-121615Y-351884D01*
X-121690Y-352109D01*
X-121728Y-352297D01*
X-121765Y-352448D01*
Y-352560D01*
Y-352579D01*
Y-352598D01*
X-121728Y-352899D01*
X-121652Y-353181D01*
X-121559Y-353406D01*
X-121427Y-353594D01*
X-121295Y-353745D01*
X-121201Y-353857D01*
X-121126Y-353932D01*
X-121089Y-353951D01*
X-120825Y-354102D01*
X-120506Y-354214D01*
X-120186Y-354308D01*
X-119867Y-354365D01*
X-119585Y-354402D01*
X-119472D01*
X-119359Y-354421D01*
X-119153D01*
X-118683Y-354402D01*
X-118476D01*
X-118269Y-354384D01*
X-118119D01*
X-117987Y-354365D01*
X-117874D01*
X-117649Y-354327D01*
X-117442Y-354308D01*
X-117254Y-354271D01*
X-117104Y-354233D01*
X-116972Y-354196D01*
X-116860Y-354177D01*
X-116803Y-354158D01*
X-116784D01*
Y-355962D01*
X-116972Y-355981D01*
X-117141Y-356019D01*
X-117217D01*
X-117254Y-356038D01*
X-117311D01*
X-117517Y-356056D01*
X-117705Y-356075D01*
X-117781Y-356094D01*
X-117893D01*
X-118119Y-356113D01*
X-118307Y-356132D01*
X-118382Y-356150D01*
X-118495D01*
X-118701Y-356169D01*
X-119059D01*
X-119453Y-356150D01*
X-119810Y-356132D01*
X-120149Y-356094D01*
X-120431Y-356038D01*
X-120675Y-356000D01*
X-120863Y-355962D01*
X-120919Y-355944D01*
X-120976D01*
X-120995Y-355925D01*
X-121013D01*
X-121333Y-355831D01*
X-121634Y-355718D01*
X-121897Y-355587D01*
X-122141Y-355474D01*
X-122310Y-355380D01*
X-122461Y-355286D01*
X-122536Y-355229D01*
X-122573Y-355211D01*
X-122799Y-355023D01*
X-123006Y-354835D01*
X-123194Y-354647D01*
X-123344Y-354459D01*
X-123457Y-354308D01*
X-123532Y-354177D01*
X-123588Y-354102D01*
X-123607Y-354064D01*
X-123739Y-353801D01*
X-123833Y-353519D01*
X-123889Y-353256D01*
X-123946Y-353012D01*
X-123964Y-352786D01*
X-123983Y-352617D01*
Y-352504D01*
Y-352485D01*
Y-352466D01*
X-123964Y-352109D01*
X-123927Y-351809D01*
X-123870Y-351527D01*
X-123814Y-351282D01*
X-123739Y-351094D01*
X-123682Y-350963D01*
X-123645Y-350887D01*
X-123626Y-350850D01*
X-123476Y-350624D01*
X-123325Y-350418D01*
X-123175Y-350248D01*
X-123025Y-350098D01*
X-122893Y-349985D01*
X-122780Y-349910D01*
X-122705Y-349854D01*
X-122686Y-349835D01*
X-122461Y-349703D01*
X-122235Y-349591D01*
X-122010Y-349497D01*
X-121784Y-349422D01*
X-121615Y-349384D01*
X-121465Y-349346D01*
X-121370Y-349309D01*
X-121333D01*
X-120750Y-349215D01*
X-120487Y-349177D01*
X-120243Y-349158D01*
X-120017Y-349140D01*
X-118927D01*
Y-346903D01*
X-123382D01*
Y-344948D01*
X-116991D01*
Y-350831D01*
D02*
G37*
G36*
X-174168D02*
X-176330D01*
X-176819Y-350850D01*
X-177213Y-350906D01*
X-177570Y-350981D01*
X-177834Y-351057D01*
X-178059Y-351132D01*
X-178210Y-351207D01*
X-178285Y-351264D01*
X-178322Y-351282D01*
X-178529Y-351470D01*
X-178680Y-351677D01*
X-178792Y-351884D01*
X-178867Y-352109D01*
X-178905Y-352297D01*
X-178943Y-352448D01*
Y-352560D01*
Y-352579D01*
Y-352598D01*
X-178905Y-352899D01*
X-178830Y-353181D01*
X-178736Y-353406D01*
X-178604Y-353594D01*
X-178473Y-353745D01*
X-178379Y-353857D01*
X-178304Y-353932D01*
X-178266Y-353951D01*
X-178003Y-354102D01*
X-177683Y-354214D01*
X-177364Y-354308D01*
X-177044Y-354365D01*
X-176762Y-354402D01*
X-176649D01*
X-176537Y-354421D01*
X-176330D01*
X-175860Y-354402D01*
X-175653D01*
X-175447Y-354384D01*
X-175296D01*
X-175165Y-354365D01*
X-175052D01*
X-174826Y-354327D01*
X-174620Y-354308D01*
X-174432Y-354271D01*
X-174281Y-354233D01*
X-174150Y-354196D01*
X-174037Y-354177D01*
X-173981Y-354158D01*
X-173962D01*
Y-355962D01*
X-174150Y-355981D01*
X-174319Y-356019D01*
X-174394D01*
X-174432Y-356038D01*
X-174488D01*
X-174695Y-356056D01*
X-174883Y-356075D01*
X-174958Y-356094D01*
X-175071D01*
X-175296Y-356113D01*
X-175484Y-356132D01*
X-175559Y-356150D01*
X-175672D01*
X-175879Y-356169D01*
X-176236D01*
X-176631Y-356150D01*
X-176988Y-356132D01*
X-177326Y-356094D01*
X-177608Y-356038D01*
X-177852Y-356000D01*
X-178040Y-355962D01*
X-178097Y-355944D01*
X-178153D01*
X-178172Y-355925D01*
X-178191D01*
X-178510Y-355831D01*
X-178811Y-355718D01*
X-179074Y-355587D01*
X-179319Y-355474D01*
X-179488Y-355380D01*
X-179638Y-355286D01*
X-179713Y-355229D01*
X-179751Y-355211D01*
X-179976Y-355023D01*
X-180183Y-354835D01*
X-180371Y-354647D01*
X-180522Y-354459D01*
X-180634Y-354308D01*
X-180709Y-354177D01*
X-180766Y-354102D01*
X-180785Y-354064D01*
X-180916Y-353801D01*
X-181010Y-353519D01*
X-181067Y-353256D01*
X-181123Y-353012D01*
X-181142Y-352786D01*
X-181161Y-352617D01*
Y-352504D01*
Y-352485D01*
Y-352466D01*
X-181142Y-352109D01*
X-181104Y-351809D01*
X-181048Y-351527D01*
X-180991Y-351282D01*
X-180916Y-351094D01*
X-180860Y-350963D01*
X-180822Y-350887D01*
X-180803Y-350850D01*
X-180653Y-350624D01*
X-180503Y-350418D01*
X-180352Y-350248D01*
X-180202Y-350098D01*
X-180070Y-349985D01*
X-179958Y-349910D01*
X-179882Y-349854D01*
X-179864Y-349835D01*
X-179638Y-349703D01*
X-179412Y-349591D01*
X-179187Y-349497D01*
X-178961Y-349422D01*
X-178792Y-349384D01*
X-178642Y-349346D01*
X-178548Y-349309D01*
X-178510D01*
X-177928Y-349215D01*
X-177665Y-349177D01*
X-177420Y-349158D01*
X-177195Y-349140D01*
X-176104D01*
Y-346903D01*
X-180559D01*
Y-344948D01*
X-174168D01*
Y-350831D01*
D02*
G37*
G36*
X-91391Y-353162D02*
X-91203Y-353199D01*
X-91128Y-353237D01*
X-91071Y-353256D01*
X-91034Y-353275D01*
X-91015D01*
X-90827Y-353369D01*
X-90677Y-353481D01*
X-90583Y-353557D01*
X-90564Y-353575D01*
X-90545Y-353594D01*
X-90414Y-353763D01*
X-90301Y-353914D01*
X-90244Y-354026D01*
X-90225Y-354064D01*
Y-354083D01*
X-90169Y-354290D01*
X-90132Y-354478D01*
X-90113Y-354553D01*
Y-354609D01*
Y-354647D01*
Y-354665D01*
X-90132Y-354891D01*
X-90169Y-355079D01*
X-90188Y-355154D01*
X-90207Y-355211D01*
X-90225Y-355248D01*
Y-355267D01*
X-90319Y-355455D01*
X-90432Y-355624D01*
X-90507Y-355718D01*
X-90545Y-355737D01*
Y-355756D01*
X-90714Y-355887D01*
X-90865Y-356000D01*
X-90977Y-356056D01*
X-90996Y-356075D01*
X-91015D01*
X-91241Y-356132D01*
X-91428Y-356169D01*
X-91522Y-356188D01*
X-91635D01*
X-91861Y-356169D01*
X-92049Y-356132D01*
X-92124Y-356113D01*
X-92180Y-356094D01*
X-92199Y-356075D01*
X-92218D01*
X-92406Y-355981D01*
X-92575Y-355868D01*
X-92669Y-355793D01*
X-92707Y-355756D01*
X-92838Y-355587D01*
X-92951Y-355436D01*
X-93007Y-355305D01*
X-93026Y-355286D01*
Y-355267D01*
X-93101Y-355060D01*
X-93139Y-354854D01*
X-93158Y-354778D01*
Y-354722D01*
Y-354684D01*
Y-354665D01*
X-93139Y-354440D01*
X-93101Y-354252D01*
X-93064Y-354177D01*
X-93045Y-354120D01*
X-93026Y-354102D01*
Y-354083D01*
X-92932Y-353895D01*
X-92819Y-353726D01*
X-92744Y-353632D01*
X-92725Y-353594D01*
X-92707D01*
X-92537Y-353463D01*
X-92387Y-353350D01*
X-92274Y-353293D01*
X-92237Y-353275D01*
X-92218D01*
X-92011Y-353199D01*
X-91823Y-353162D01*
X-91748Y-353143D01*
X-91635D01*
X-91391Y-353162D01*
D02*
G37*
G36*
X-167571Y-352899D02*
X-167364Y-352936D01*
X-167289Y-352974D01*
X-167233Y-352993D01*
X-167195Y-353012D01*
X-167176D01*
X-166970Y-353124D01*
X-166800Y-353237D01*
X-166688Y-353331D01*
X-166669Y-353350D01*
X-166650Y-353369D01*
X-166518Y-353557D01*
X-166406Y-353726D01*
X-166368Y-353801D01*
X-166331Y-353857D01*
X-166312Y-353895D01*
Y-353914D01*
X-166255Y-354139D01*
X-166218Y-354346D01*
X-166199Y-354421D01*
Y-354496D01*
Y-354534D01*
Y-354553D01*
X-166218Y-354797D01*
X-166255Y-355004D01*
X-166274Y-355079D01*
X-166293Y-355135D01*
X-166312Y-355173D01*
Y-355192D01*
X-166425Y-355399D01*
X-166537Y-355568D01*
X-166612Y-355681D01*
X-166650Y-355699D01*
Y-355718D01*
X-166819Y-355868D01*
X-167007Y-355962D01*
X-167064Y-356000D01*
X-167120Y-356038D01*
X-167158Y-356056D01*
X-167176D01*
X-167402Y-356132D01*
X-167609Y-356169D01*
X-167684Y-356188D01*
X-167815D01*
X-168079Y-356169D01*
X-168285Y-356113D01*
X-168361Y-356094D01*
X-168417Y-356075D01*
X-168454Y-356056D01*
X-168473D01*
X-168680Y-355962D01*
X-168849Y-355850D01*
X-168962Y-355756D01*
X-168981Y-355718D01*
X-169000D01*
X-169150Y-355549D01*
X-169263Y-355361D01*
X-169300Y-355305D01*
X-169338Y-355248D01*
X-169357Y-355211D01*
Y-355192D01*
X-169432Y-354966D01*
X-169470Y-354759D01*
X-169488Y-354684D01*
Y-354609D01*
Y-354572D01*
Y-354553D01*
X-169470Y-354308D01*
X-169432Y-354102D01*
X-169394Y-354026D01*
X-169375Y-353970D01*
X-169357Y-353932D01*
Y-353914D01*
X-169244Y-353688D01*
X-169131Y-353519D01*
X-169037Y-353406D01*
X-169018Y-353387D01*
X-169000Y-353369D01*
X-168830Y-353218D01*
X-168661Y-353106D01*
X-168586Y-353068D01*
X-168530Y-353030D01*
X-168492Y-353012D01*
X-168473D01*
X-168248Y-352936D01*
X-168041Y-352899D01*
X-167947Y-352880D01*
X-167815D01*
X-167571Y-352899D01*
D02*
G37*
G36*
X-96330Y-328715D02*
X-97007Y-330406D01*
X-99469Y-329072D01*
Y-336158D01*
X-96650D01*
Y-338000D01*
X-104018D01*
Y-336158D01*
X-101593D01*
Y-326873D01*
X-99845D01*
X-96330Y-328715D01*
D02*
G37*
G36*
X-4136Y-329241D02*
X-3854Y-329279D01*
X-3591Y-329297D01*
X-3384Y-329335D01*
X-3215Y-329373D01*
X-3121Y-329392D01*
X-3083D01*
X-2783Y-329448D01*
X-2519Y-329523D01*
X-2275Y-329598D01*
X-2068Y-329655D01*
X-1899Y-329711D01*
X-1787Y-329749D01*
X-1692Y-329767D01*
X-1674Y-329786D01*
Y-331440D01*
X-2181Y-331233D01*
X-2426Y-331158D01*
X-2632Y-331083D01*
X-2820Y-331045D01*
X-2952Y-331008D01*
X-3046Y-330970D01*
X-3083D01*
X-3647Y-330858D01*
X-3892Y-330820D01*
X-4136Y-330801D01*
X-4324Y-330782D01*
X-4606D01*
X-4925Y-330801D01*
X-5076Y-330820D01*
X-5189Y-330839D01*
X-5282Y-330858D01*
X-5358Y-330876D01*
X-5395Y-330895D01*
X-5414D01*
X-5640Y-330970D01*
X-5809Y-331064D01*
X-5922Y-331139D01*
X-5959Y-331177D01*
X-6091Y-331328D01*
X-6185Y-331478D01*
X-6241Y-331591D01*
X-6260Y-331609D01*
Y-331628D01*
X-6316Y-331835D01*
X-6335Y-332023D01*
X-6354Y-332117D01*
Y-332173D01*
Y-332211D01*
Y-332230D01*
Y-332737D01*
X-4831D01*
X-4474Y-332775D01*
X-4155Y-332812D01*
X-3892Y-332850D01*
X-3666Y-332887D01*
X-3497Y-332925D01*
X-3384Y-332944D01*
X-3365Y-332963D01*
X-3347D01*
X-3065Y-333038D01*
X-2801Y-333132D01*
X-2576Y-333245D01*
X-2388Y-333339D01*
X-2238Y-333414D01*
X-2125Y-333489D01*
X-2050Y-333527D01*
X-2031Y-333545D01*
X-1843Y-333677D01*
X-1692Y-333827D01*
X-1542Y-333978D01*
X-1448Y-334128D01*
X-1354Y-334241D01*
X-1298Y-334335D01*
X-1260Y-334410D01*
X-1241Y-334429D01*
X-1166Y-334617D01*
X-1110Y-334823D01*
X-1053Y-335011D01*
X-1035Y-335181D01*
X-1016Y-335331D01*
X-997Y-335444D01*
Y-335519D01*
Y-335557D01*
X-1016Y-335970D01*
X-1053Y-336158D01*
X-1091Y-336308D01*
X-1110Y-336440D01*
X-1147Y-336534D01*
X-1166Y-336609D01*
Y-336628D01*
X-1317Y-336966D01*
X-1411Y-337117D01*
X-1486Y-337229D01*
X-1561Y-337342D01*
X-1617Y-337417D01*
X-1655Y-337455D01*
X-1674Y-337474D01*
X-1956Y-337699D01*
X-2219Y-337868D01*
X-2332Y-337925D01*
X-2426Y-337962D01*
X-2482Y-338000D01*
X-2501D01*
X-2895Y-338113D01*
X-3102Y-338150D01*
X-3271Y-338169D01*
X-3440D01*
X-3553Y-338188D01*
X-3666D01*
X-4023Y-338169D01*
X-4174Y-338150D01*
X-4324Y-338132D01*
X-4437D01*
X-4512Y-338113D01*
X-4568Y-338094D01*
X-4587D01*
X-4888Y-338019D01*
X-5019Y-337962D01*
X-5151Y-337925D01*
X-5245Y-337887D01*
X-5320Y-337850D01*
X-5358Y-337831D01*
X-5376D01*
X-5621Y-337681D01*
X-5828Y-337549D01*
X-5903Y-337492D01*
X-5959Y-337455D01*
X-5997Y-337436D01*
X-6016Y-337417D01*
X-6241Y-337229D01*
X-6429Y-337060D01*
X-6485Y-336985D01*
X-6542Y-336948D01*
X-6579Y-336910D01*
X-6598Y-336891D01*
X-6636Y-338000D01*
X-8421D01*
Y-332136D01*
Y-331872D01*
X-8384Y-331628D01*
X-8346Y-331421D01*
X-8309Y-331233D01*
X-8271Y-331083D01*
X-8234Y-330970D01*
X-8215Y-330895D01*
X-8196Y-330876D01*
X-8102Y-330688D01*
X-8008Y-330500D01*
X-7895Y-330350D01*
X-7782Y-330219D01*
X-7688Y-330125D01*
X-7613Y-330031D01*
X-7557Y-329993D01*
X-7538Y-329974D01*
X-7369Y-329843D01*
X-7181Y-329730D01*
X-6993Y-329636D01*
X-6805Y-329542D01*
X-6655Y-329485D01*
X-6523Y-329448D01*
X-6448Y-329410D01*
X-6410D01*
X-6147Y-329354D01*
X-5865Y-329297D01*
X-5602Y-329260D01*
X-5339Y-329241D01*
X-5113Y-329222D01*
X-4455D01*
X-4136Y-329241D01*
D02*
G37*
G36*
X-82177Y-326986D02*
X-81820Y-327023D01*
X-81519Y-327061D01*
X-81256Y-327098D01*
X-81087Y-327136D01*
X-81012Y-327155D01*
X-80955D01*
X-80936Y-327174D01*
X-80918D01*
X-80598Y-327267D01*
X-80297Y-327361D01*
X-80034Y-327455D01*
X-79809Y-327550D01*
X-79640Y-327644D01*
X-79489Y-327719D01*
X-79414Y-327756D01*
X-79376Y-327775D01*
X-79151Y-327925D01*
X-78944Y-328095D01*
X-78756Y-328245D01*
X-78606Y-328395D01*
X-78474Y-328527D01*
X-78380Y-328640D01*
X-78324Y-328715D01*
X-78305Y-328734D01*
X-78023Y-329166D01*
X-77892Y-329392D01*
X-77797Y-329580D01*
X-77722Y-329749D01*
X-77666Y-329899D01*
X-77628Y-329974D01*
X-77610Y-330012D01*
X-77440Y-330538D01*
X-77384Y-330801D01*
X-77328Y-331027D01*
X-77290Y-331233D01*
X-77252Y-331403D01*
X-77234Y-331497D01*
Y-331515D01*
Y-331534D01*
X-77177Y-332136D01*
X-77158Y-332436D01*
Y-332700D01*
X-77140Y-332925D01*
Y-333113D01*
Y-333226D01*
Y-333245D01*
Y-333264D01*
X-77158Y-333715D01*
X-77177Y-334147D01*
X-77234Y-334542D01*
X-77290Y-334899D01*
X-77384Y-335237D01*
X-77459Y-335538D01*
X-77553Y-335820D01*
X-77647Y-336064D01*
X-77741Y-336271D01*
X-77835Y-336459D01*
X-77929Y-336628D01*
X-78004Y-336759D01*
X-78061Y-336853D01*
X-78117Y-336929D01*
X-78136Y-336966D01*
X-78155Y-336985D01*
X-78361Y-337192D01*
X-78568Y-337380D01*
X-78812Y-337549D01*
X-79038Y-337681D01*
X-79282Y-337793D01*
X-79527Y-337887D01*
X-80015Y-338038D01*
X-80241Y-338094D01*
X-80448Y-338132D01*
X-80617Y-338150D01*
X-80786Y-338169D01*
X-80918Y-338188D01*
X-81106D01*
X-81444Y-338169D01*
X-81745Y-338150D01*
X-82027Y-338113D01*
X-82271Y-338056D01*
X-82459Y-338019D01*
X-82609Y-337981D01*
X-82703Y-337962D01*
X-82741Y-337944D01*
X-83004Y-337831D01*
X-83267Y-337718D01*
X-83474Y-337587D01*
X-83662Y-337474D01*
X-83812Y-337361D01*
X-83925Y-337267D01*
X-84000Y-337211D01*
X-84019Y-337192D01*
X-84207Y-337004D01*
X-84376Y-336797D01*
X-84527Y-336609D01*
X-84639Y-336421D01*
X-84733Y-336271D01*
X-84808Y-336139D01*
X-84846Y-336064D01*
X-84865Y-336026D01*
X-84978Y-335763D01*
X-85053Y-335500D01*
X-85109Y-335237D01*
X-85147Y-335011D01*
X-85166Y-334805D01*
X-85184Y-334636D01*
Y-334542D01*
Y-334504D01*
Y-334222D01*
X-85147Y-333959D01*
X-85109Y-333715D01*
X-85072Y-333508D01*
X-85034Y-333339D01*
X-84996Y-333207D01*
X-84978Y-333113D01*
X-84959Y-333094D01*
X-84865Y-332869D01*
X-84752Y-332662D01*
X-84639Y-332474D01*
X-84527Y-332324D01*
X-84432Y-332192D01*
X-84339Y-332098D01*
X-84282Y-332042D01*
X-84263Y-332023D01*
X-84094Y-331873D01*
X-83906Y-331722D01*
X-83718Y-331609D01*
X-83530Y-331515D01*
X-83380Y-331440D01*
X-83248Y-331384D01*
X-83173Y-331365D01*
X-83136Y-331346D01*
X-82872Y-331271D01*
X-82609Y-331196D01*
X-82346Y-331158D01*
X-82102Y-331139D01*
X-81895Y-331121D01*
X-81726Y-331102D01*
X-81575D01*
X-81124Y-331121D01*
X-80936Y-331139D01*
X-80749Y-331177D01*
X-80598Y-331196D01*
X-80485Y-331233D01*
X-80410Y-331252D01*
X-80391D01*
X-80185Y-331309D01*
X-79997Y-331365D01*
X-79827Y-331422D01*
X-79677Y-331478D01*
X-79564Y-331515D01*
X-79470Y-331553D01*
X-79414Y-331572D01*
X-79395Y-331591D01*
X-79414Y-331403D01*
X-79433Y-331177D01*
X-79470Y-330952D01*
X-79508Y-330764D01*
X-79564Y-330594D01*
X-79602Y-330463D01*
X-79621Y-330369D01*
X-79658Y-330294D01*
Y-330275D01*
X-79734Y-330087D01*
X-79827Y-329937D01*
X-79921Y-329786D01*
X-80015Y-329655D01*
X-80109Y-329561D01*
X-80185Y-329486D01*
X-80222Y-329448D01*
X-80241Y-329429D01*
X-80391Y-329297D01*
X-80561Y-329185D01*
X-80899Y-329016D01*
X-81030Y-328959D01*
X-81162Y-328922D01*
X-81237Y-328884D01*
X-81256D01*
X-81500Y-328828D01*
X-81763Y-328771D01*
X-82008Y-328734D01*
X-82252Y-328715D01*
X-82459Y-328696D01*
X-84263D01*
Y-326948D01*
X-82572D01*
X-82177Y-326986D01*
D02*
G37*
G36*
X-38984Y-338000D02*
X-40882D01*
Y-334579D01*
Y-329993D01*
X-41484Y-331421D01*
X-44435Y-338000D01*
X-46991D01*
Y-326948D01*
X-45093D01*
Y-330012D01*
Y-334880D01*
X-44547Y-333602D01*
X-41540Y-326948D01*
X-38984D01*
Y-338000D01*
D02*
G37*
G36*
X-70166Y-338000D02*
X-72910D01*
X-76313Y-326948D01*
X-74095D01*
X-72234Y-333489D01*
X-71614Y-335801D01*
X-71012Y-333621D01*
X-69151Y-326948D01*
X-66783D01*
X-70166Y-338000D01*
D02*
G37*
G36*
X8288Y-335181D02*
Y-335425D01*
X8269Y-335650D01*
X8232Y-335876D01*
X8213Y-336045D01*
X8175Y-336214D01*
X8157Y-336327D01*
X8138Y-336402D01*
Y-336421D01*
X8063Y-336609D01*
X7987Y-336797D01*
X7912Y-336966D01*
X7837Y-337098D01*
X7762Y-337211D01*
X7706Y-337305D01*
X7668Y-337361D01*
X7649Y-337380D01*
X7367Y-337643D01*
X7104Y-337831D01*
X6991Y-337887D01*
X6897Y-337944D01*
X6841Y-337962D01*
X6822Y-337981D01*
X6634Y-338056D01*
X6427Y-338094D01*
X6221Y-338132D01*
X6051Y-338169D01*
X5882D01*
X5770Y-338188D01*
X5657D01*
X5318Y-338169D01*
X5187Y-338150D01*
X5055Y-338132D01*
X4961Y-338113D01*
X4867Y-338094D01*
X4830Y-338075D01*
X4811D01*
X4529Y-338000D01*
X4303Y-337906D01*
X4209Y-337850D01*
X4153Y-337831D01*
X4115Y-337793D01*
X4097D01*
X3852Y-337643D01*
X3664Y-337492D01*
X3589Y-337436D01*
X3533Y-337380D01*
X3514Y-337361D01*
X3495Y-337342D01*
X3288Y-337135D01*
X3101Y-336929D01*
X3044Y-336853D01*
X2988Y-336797D01*
X2950Y-336759D01*
X2931Y-336741D01*
X2894Y-338000D01*
X1089D01*
Y-329410D01*
X3157D01*
Y-334842D01*
X3364Y-335106D01*
X3552Y-335331D01*
X3721Y-335538D01*
X3871Y-335707D01*
X4003Y-335839D01*
X4097Y-335933D01*
X4172Y-335989D01*
X4191Y-336008D01*
X4360Y-336139D01*
X4548Y-336252D01*
X4698Y-336327D01*
X4848Y-336365D01*
X4980Y-336402D01*
X5074Y-336421D01*
X5168D01*
X5356Y-336402D01*
X5525Y-336365D01*
X5657Y-336308D01*
X5770Y-336233D01*
X5864Y-336177D01*
X5920Y-336120D01*
X5957Y-336083D01*
X5976Y-336064D01*
X6051Y-335914D01*
X6108Y-335745D01*
X6183Y-335406D01*
X6202Y-335256D01*
X6221Y-335124D01*
Y-335049D01*
Y-335011D01*
Y-329410D01*
X8288D01*
Y-335181D01*
D02*
G37*
G36*
X18250Y-338000D02*
X15449D01*
X14923Y-337981D01*
X14434Y-337944D01*
X14021Y-337868D01*
X13645Y-337793D01*
X13495Y-337775D01*
X13344Y-337737D01*
X13232Y-337699D01*
X13138Y-337662D01*
X13062Y-337643D01*
X12987Y-337624D01*
X12968Y-337605D01*
X12950D01*
X12574Y-337436D01*
X12235Y-337267D01*
X11935Y-337079D01*
X11690Y-336891D01*
X11484Y-336722D01*
X11333Y-336590D01*
X11258Y-336515D01*
X11220Y-336478D01*
X10976Y-336177D01*
X10769Y-335876D01*
X10600Y-335575D01*
X10468Y-335293D01*
X10356Y-335049D01*
X10280Y-334842D01*
X10262Y-334767D01*
X10243Y-334711D01*
X10224Y-334692D01*
Y-334673D01*
X10111Y-334278D01*
X10036Y-333865D01*
X9980Y-333470D01*
X9942Y-333113D01*
X9923Y-332794D01*
X9905Y-332662D01*
Y-332549D01*
Y-332474D01*
Y-332399D01*
Y-332361D01*
Y-332342D01*
X9923Y-331835D01*
X9961Y-331365D01*
X9999Y-330951D01*
X10055Y-330594D01*
X10130Y-330312D01*
X10149Y-330200D01*
X10168Y-330106D01*
X10187Y-330012D01*
X10205Y-329955D01*
X10224Y-329937D01*
Y-329918D01*
X10356Y-329561D01*
X10506Y-329222D01*
X10675Y-328940D01*
X10826Y-328696D01*
X10957Y-328508D01*
X11070Y-328358D01*
X11145Y-328283D01*
X11183Y-328245D01*
X11427Y-328019D01*
X11709Y-327813D01*
X11972Y-327643D01*
X12217Y-327512D01*
X12442Y-327399D01*
X12611Y-327324D01*
X12743Y-327286D01*
X12762Y-327267D01*
X12780D01*
X13138Y-327155D01*
X13513Y-327080D01*
X13889Y-327023D01*
X14228Y-326986D01*
X14528Y-326967D01*
X14660Y-326948D01*
X18250D01*
Y-338000D01*
D02*
G37*
G36*
X-11128Y-327662D02*
X-13553D01*
Y-336384D01*
X-10827D01*
Y-338000D01*
X-18139D01*
Y-336384D01*
X-15677D01*
Y-326046D01*
X-11128D01*
Y-327662D01*
D02*
G37*
G36*
X-28702Y-338000D02*
X-30770D01*
X-31390Y-335820D01*
X-35243D01*
X-35864Y-338000D01*
X-38157D01*
X-34886Y-326948D01*
X-31973D01*
X-28702Y-338000D01*
D02*
G37*
G36*
X-48401Y-328677D02*
X-51427D01*
Y-338000D01*
X-53551D01*
Y-328677D01*
X-56577Y-328677D01*
Y-326948D01*
X-48401Y-326948D01*
Y-328677D01*
D02*
G37*
G36*
X-114769Y-333978D02*
Y-335745D01*
X-119901D01*
Y-338000D01*
X-121931D01*
Y-335745D01*
X-123603D01*
Y-333921D01*
X-121931D01*
Y-326948D01*
X-119073D01*
X-114769Y-333978D01*
D02*
G37*
G36*
X-90297Y-334899D02*
X-90090Y-334936D01*
X-90015Y-334974D01*
X-89958Y-334993D01*
X-89921Y-335011D01*
X-89902D01*
X-89695Y-335124D01*
X-89526Y-335237D01*
X-89413Y-335331D01*
X-89395Y-335350D01*
X-89376Y-335369D01*
X-89244Y-335557D01*
X-89131Y-335726D01*
X-89094Y-335801D01*
X-89056Y-335857D01*
X-89038Y-335895D01*
Y-335914D01*
X-88981Y-336139D01*
X-88944Y-336346D01*
X-88925Y-336421D01*
Y-336496D01*
Y-336534D01*
Y-336553D01*
X-88944Y-336797D01*
X-88981Y-337004D01*
X-89000Y-337079D01*
X-89019Y-337135D01*
X-89038Y-337173D01*
Y-337192D01*
X-89150Y-337399D01*
X-89263Y-337568D01*
X-89338Y-337681D01*
X-89376Y-337699D01*
Y-337718D01*
X-89545Y-337868D01*
X-89733Y-337962D01*
X-89789Y-338000D01*
X-89846Y-338038D01*
X-89883Y-338056D01*
X-89902D01*
X-90128Y-338132D01*
X-90334Y-338169D01*
X-90410Y-338188D01*
X-90541D01*
X-90804Y-338169D01*
X-91011Y-338113D01*
X-91086Y-338094D01*
X-91143Y-338075D01*
X-91180Y-338056D01*
X-91199D01*
X-91406Y-337962D01*
X-91575Y-337850D01*
X-91688Y-337756D01*
X-91706Y-337718D01*
X-91725D01*
X-91876Y-337549D01*
X-91988Y-337361D01*
X-92026Y-337305D01*
X-92064Y-337248D01*
X-92083Y-337211D01*
Y-337192D01*
X-92158Y-336966D01*
X-92195Y-336759D01*
X-92214Y-336684D01*
Y-336609D01*
Y-336572D01*
Y-336553D01*
X-92195Y-336308D01*
X-92158Y-336102D01*
X-92120Y-336026D01*
X-92101Y-335970D01*
X-92083Y-335933D01*
Y-335914D01*
X-91970Y-335688D01*
X-91857Y-335519D01*
X-91763Y-335406D01*
X-91744Y-335387D01*
X-91725Y-335369D01*
X-91556Y-335218D01*
X-91387Y-335106D01*
X-91312Y-335068D01*
X-91255Y-335030D01*
X-91218Y-335011D01*
X-91199D01*
X-90974Y-334936D01*
X-90767Y-334899D01*
X-90673Y-334880D01*
X-90541D01*
X-90297Y-334899D01*
D02*
G37*
G36*
X-109356D02*
X-109149Y-334936D01*
X-109074Y-334974D01*
X-109018Y-334993D01*
X-108980Y-335011D01*
X-108961D01*
X-108755Y-335124D01*
X-108585Y-335237D01*
X-108473Y-335331D01*
X-108454Y-335350D01*
X-108435Y-335369D01*
X-108303Y-335557D01*
X-108191Y-335726D01*
X-108153Y-335801D01*
X-108116Y-335857D01*
X-108097Y-335895D01*
Y-335914D01*
X-108040Y-336139D01*
X-108003Y-336346D01*
X-107984Y-336421D01*
Y-336496D01*
Y-336534D01*
Y-336553D01*
X-108003Y-336797D01*
X-108040Y-337004D01*
X-108059Y-337079D01*
X-108078Y-337135D01*
X-108097Y-337173D01*
Y-337192D01*
X-108209Y-337399D01*
X-108322Y-337568D01*
X-108397Y-337681D01*
X-108435Y-337699D01*
Y-337718D01*
X-108604Y-337868D01*
X-108792Y-337962D01*
X-108848Y-338000D01*
X-108905Y-338038D01*
X-108942Y-338056D01*
X-108961D01*
X-109187Y-338132D01*
X-109394Y-338169D01*
X-109469Y-338188D01*
X-109600D01*
X-109864Y-338169D01*
X-110070Y-338113D01*
X-110145Y-338094D01*
X-110202Y-338075D01*
X-110239Y-338056D01*
X-110258D01*
X-110465Y-337962D01*
X-110634Y-337850D01*
X-110747Y-337756D01*
X-110766Y-337718D01*
X-110785D01*
X-110935Y-337549D01*
X-111048Y-337361D01*
X-111085Y-337305D01*
X-111123Y-337248D01*
X-111142Y-337211D01*
Y-337192D01*
X-111217Y-336966D01*
X-111254Y-336759D01*
X-111273Y-336684D01*
Y-336609D01*
Y-336572D01*
Y-336553D01*
X-111254Y-336308D01*
X-111217Y-336102D01*
X-111179Y-336026D01*
X-111160Y-335970D01*
X-111142Y-335933D01*
Y-335914D01*
X-111029Y-335688D01*
X-110916Y-335519D01*
X-110822Y-335406D01*
X-110803Y-335387D01*
X-110785Y-335369D01*
X-110615Y-335218D01*
X-110446Y-335106D01*
X-110371Y-335068D01*
X-110315Y-335030D01*
X-110277Y-335011D01*
X-110258D01*
X-110033Y-334936D01*
X-109826Y-334899D01*
X-109732Y-334880D01*
X-109600D01*
X-109356Y-334899D01*
D02*
G37*
G36*
X117392Y-331824D02*
X120775Y-337500D01*
X118257D01*
X116171Y-333440D01*
X114046Y-337500D01*
X111396D01*
X114874Y-331767D01*
X111735Y-326448D01*
X114197D01*
X116114Y-330282D01*
X118106Y-326448D01*
X120550D01*
X117392Y-331824D01*
D02*
G37*
G36*
X136226Y-333609D02*
Y-337500D01*
X134102D01*
Y-333590D01*
X130474Y-326448D01*
X132692D01*
X134403Y-329831D01*
X135154Y-331542D01*
X135887Y-329869D01*
X137504Y-326448D01*
X139816D01*
X136226Y-333609D01*
D02*
G37*
G36*
X128256Y-333816D02*
X122993D01*
Y-331974D01*
X128256D01*
Y-333816D01*
D02*
G37*
G36*
X163160Y-326298D02*
X163555Y-326335D01*
X163912Y-326410D01*
X164213Y-326467D01*
X164476Y-326542D01*
X164664Y-326617D01*
X164739Y-326636D01*
X164796Y-326655D01*
X164814Y-326674D01*
X164833D01*
X165172Y-326843D01*
X165472Y-327012D01*
X165754Y-327200D01*
X165999Y-327388D01*
X166187Y-327557D01*
X166337Y-327688D01*
X166412Y-327783D01*
X166450Y-327820D01*
X166675Y-328121D01*
X166882Y-328422D01*
X167051Y-328741D01*
X167202Y-329023D01*
X167314Y-329286D01*
X167390Y-329474D01*
X167427Y-329549D01*
X167446Y-329606D01*
X167465Y-329643D01*
Y-329662D01*
X167577Y-330076D01*
X167653Y-330508D01*
X167728Y-330921D01*
X167766Y-331316D01*
X167784Y-331636D01*
Y-331786D01*
X167803Y-331899D01*
Y-332012D01*
Y-332087D01*
Y-332124D01*
Y-332143D01*
X167784Y-332632D01*
X167747Y-333102D01*
X167709Y-333515D01*
X167634Y-333854D01*
X167577Y-334154D01*
X167559Y-334267D01*
X167540Y-334361D01*
X167521Y-334436D01*
X167502Y-334493D01*
X167484Y-334530D01*
Y-334549D01*
X167352Y-334906D01*
X167202Y-335244D01*
X167051Y-335526D01*
X166901Y-335790D01*
X166751Y-335978D01*
X166638Y-336128D01*
X166563Y-336222D01*
X166544Y-336259D01*
X166299Y-336504D01*
X166036Y-336711D01*
X165773Y-336898D01*
X165529Y-337049D01*
X165303Y-337162D01*
X165134Y-337237D01*
X165021Y-337293D01*
X165002Y-337312D01*
X164984D01*
X164627Y-337425D01*
X164269Y-337500D01*
X163912Y-337575D01*
X163593Y-337613D01*
X163292Y-337632D01*
X163179D01*
X163085Y-337650D01*
X162597D01*
X162334Y-337632D01*
X162089Y-337594D01*
X161882Y-337575D01*
X161694Y-337538D01*
X161563Y-337519D01*
X161488Y-337500D01*
X161450D01*
X160924Y-337368D01*
X160679Y-337312D01*
X160473Y-337237D01*
X160285Y-337162D01*
X160134Y-337124D01*
X160040Y-337086D01*
X160003Y-337068D01*
Y-335113D01*
X160210Y-335207D01*
X160416Y-335301D01*
X160491Y-335320D01*
X160567Y-335357D01*
X160604Y-335376D01*
X160623D01*
X160867Y-335451D01*
X161074Y-335526D01*
X161149Y-335545D01*
X161224Y-335564D01*
X161262Y-335583D01*
X161281D01*
X161525Y-335639D01*
X161732Y-335696D01*
X161807Y-335714D01*
X161882D01*
X161920Y-335733D01*
X161939D01*
X162164Y-335752D01*
X162352Y-335771D01*
X162540D01*
X162822Y-335752D01*
X163067Y-335733D01*
X163292Y-335696D01*
X163499Y-335639D01*
X163649Y-335602D01*
X163781Y-335564D01*
X163856Y-335545D01*
X163875Y-335526D01*
X164081Y-335414D01*
X164251Y-335301D01*
X164420Y-335169D01*
X164551Y-335056D01*
X164664Y-334944D01*
X164739Y-334850D01*
X164796Y-334793D01*
X164814Y-334775D01*
X164946Y-334587D01*
X165040Y-334380D01*
X165134Y-334192D01*
X165209Y-334004D01*
X165266Y-333835D01*
X165303Y-333703D01*
X165341Y-333628D01*
Y-333590D01*
X165435Y-333027D01*
X165472Y-332763D01*
X165491Y-332519D01*
Y-332294D01*
X165510Y-332124D01*
Y-332012D01*
Y-331993D01*
Y-331974D01*
Y-331673D01*
X165491Y-331372D01*
X165454Y-331109D01*
X165435Y-330884D01*
X165397Y-330696D01*
X165378Y-330546D01*
X165360Y-330470D01*
Y-330433D01*
X165284Y-330170D01*
X165209Y-329944D01*
X165115Y-329737D01*
X165040Y-329549D01*
X164946Y-329418D01*
X164890Y-329305D01*
X164852Y-329230D01*
X164833Y-329211D01*
X164683Y-329023D01*
X164533Y-328873D01*
X164382Y-328741D01*
X164232Y-328628D01*
X164100Y-328534D01*
X164006Y-328478D01*
X163931Y-328440D01*
X163912Y-328422D01*
X163687Y-328328D01*
X163461Y-328252D01*
X163236Y-328196D01*
X163029Y-328158D01*
X162841Y-328140D01*
X162691Y-328121D01*
X162559D01*
X162146Y-328140D01*
X161957Y-328158D01*
X161770Y-328196D01*
X161619Y-328215D01*
X161506Y-328252D01*
X161413Y-328271D01*
X161394D01*
X160905Y-328403D01*
X160661Y-328478D01*
X160454Y-328553D01*
X160266Y-328628D01*
X160134Y-328685D01*
X160040Y-328722D01*
X160003Y-328741D01*
Y-326674D01*
X160266Y-326598D01*
X160491Y-326542D01*
X160567Y-326523D01*
X160642Y-326504D01*
X160679Y-326486D01*
X160698D01*
X160943Y-326429D01*
X161149Y-326392D01*
X161243D01*
X161300Y-326373D01*
X161356D01*
X161600Y-326335D01*
X161807Y-326316D01*
X161882Y-326298D01*
X162014D01*
X162258Y-326279D01*
X162728D01*
X163160Y-326298D01*
D02*
G37*
G36*
X176750Y-328140D02*
X174325D01*
Y-335790D01*
X176750D01*
Y-337500D01*
X169777D01*
Y-335790D01*
X172201D01*
Y-328140D01*
X169777D01*
Y-326448D01*
X176750D01*
Y-328140D01*
D02*
G37*
G36*
X148293Y-337500D02*
X146188D01*
Y-333948D01*
X145135D01*
X144740Y-333929D01*
X144365Y-333910D01*
X144026Y-333854D01*
X143744Y-333797D01*
X143500Y-333760D01*
X143331Y-333703D01*
X143218Y-333684D01*
X143180Y-333666D01*
X142880Y-333534D01*
X142598Y-333402D01*
X142353Y-333271D01*
X142165Y-333139D01*
X141996Y-333027D01*
X141865Y-332933D01*
X141789Y-332857D01*
X141771Y-332839D01*
X141564Y-332632D01*
X141395Y-332406D01*
X141263Y-332200D01*
X141132Y-332012D01*
X141038Y-331842D01*
X140981Y-331692D01*
X140944Y-331617D01*
X140925Y-331579D01*
X140831Y-331297D01*
X140756Y-331015D01*
X140699Y-330752D01*
X140662Y-330508D01*
X140643Y-330301D01*
X140624Y-330132D01*
Y-330019D01*
Y-329982D01*
X140643Y-329681D01*
X140662Y-329380D01*
X140718Y-329136D01*
X140774Y-328910D01*
X140831Y-328722D01*
X140868Y-328591D01*
X140906Y-328516D01*
X140925Y-328478D01*
X141056Y-328234D01*
X141188Y-328027D01*
X141338Y-327839D01*
X141470Y-327670D01*
X141601Y-327538D01*
X141695Y-327444D01*
X141771Y-327388D01*
X141789Y-327369D01*
X141996Y-327219D01*
X142240Y-327068D01*
X142466Y-326955D01*
X142673Y-326861D01*
X142880Y-326786D01*
X143030Y-326730D01*
X143124Y-326711D01*
X143143Y-326692D01*
X143161D01*
X143481Y-326617D01*
X143801Y-326542D01*
X144120Y-326504D01*
X144421Y-326486D01*
X144684Y-326467D01*
X144872Y-326448D01*
X148293D01*
Y-337500D01*
D02*
G37*
G36*
X154477Y-326279D02*
X154815Y-326316D01*
X155116Y-326373D01*
X155379Y-326429D01*
X155586Y-326486D01*
X155755Y-326542D01*
X155868Y-326580D01*
X155886Y-326598D01*
X155905D01*
X156206Y-326749D01*
X156488Y-326899D01*
X156732Y-327087D01*
X156939Y-327256D01*
X157108Y-327407D01*
X157240Y-327538D01*
X157315Y-327613D01*
X157353Y-327651D01*
X157559Y-327933D01*
X157747Y-328215D01*
X157916Y-328516D01*
X158048Y-328797D01*
X158161Y-329061D01*
X158236Y-329249D01*
X158273Y-329324D01*
X158292Y-329380D01*
X158311Y-329418D01*
Y-329436D01*
X158424Y-329869D01*
X158499Y-330301D01*
X158574Y-330733D01*
X158612Y-331147D01*
X158631Y-331504D01*
Y-331655D01*
X158649Y-331786D01*
Y-331880D01*
Y-331955D01*
Y-332012D01*
Y-332030D01*
X158631Y-332538D01*
X158593Y-333008D01*
X158555Y-333440D01*
X158480Y-333854D01*
X158405Y-334230D01*
X158311Y-334568D01*
X158198Y-334887D01*
X158104Y-335169D01*
X158010Y-335414D01*
X157898Y-335639D01*
X157804Y-335827D01*
X157728Y-335978D01*
X157653Y-336090D01*
X157597Y-336166D01*
X157578Y-336222D01*
X157559Y-336241D01*
X157334Y-336504D01*
X157108Y-336711D01*
X156845Y-336917D01*
X156582Y-337068D01*
X156300Y-337218D01*
X156037Y-337331D01*
X155755Y-337425D01*
X155492Y-337500D01*
X155247Y-337575D01*
X155022Y-337613D01*
X154815Y-337650D01*
X154627Y-337669D01*
X154477D01*
X154364Y-337688D01*
X154270D01*
X153932Y-337669D01*
X153593Y-337632D01*
X153293Y-337594D01*
X153029Y-337519D01*
X152823Y-337462D01*
X152654Y-337425D01*
X152541Y-337387D01*
X152503Y-337368D01*
X152202Y-337218D01*
X151939Y-337068D01*
X151695Y-336898D01*
X151469Y-336729D01*
X151300Y-336579D01*
X151187Y-336447D01*
X151093Y-336372D01*
X151075Y-336335D01*
X150849Y-336053D01*
X150661Y-335752D01*
X150492Y-335451D01*
X150360Y-335169D01*
X150248Y-334906D01*
X150154Y-334718D01*
X150135Y-334643D01*
X150116Y-334587D01*
X150097Y-334549D01*
Y-334530D01*
X149985Y-334098D01*
X149890Y-333666D01*
X149834Y-333233D01*
X149778Y-332820D01*
X149759Y-332463D01*
Y-332312D01*
X149740Y-332181D01*
Y-332087D01*
Y-332012D01*
Y-331955D01*
Y-331936D01*
X149759Y-331429D01*
X149796Y-330959D01*
X149834Y-330508D01*
X149909Y-330094D01*
X150003Y-329719D01*
X150097Y-329380D01*
X150191Y-329061D01*
X150285Y-328779D01*
X150398Y-328534D01*
X150492Y-328309D01*
X150586Y-328121D01*
X150680Y-327970D01*
X150755Y-327858D01*
X150793Y-327783D01*
X150830Y-327726D01*
X150849Y-327707D01*
X151075Y-327444D01*
X151300Y-327237D01*
X151563Y-327031D01*
X151826Y-326861D01*
X152108Y-326730D01*
X152372Y-326617D01*
X152654Y-326523D01*
X152917Y-326448D01*
X153161Y-326373D01*
X153387Y-326335D01*
X153593Y-326298D01*
X153781Y-326279D01*
X153932Y-326260D01*
X154138D01*
X154477Y-326279D01*
D02*
G37*
G36*
X172574Y-342779D02*
X172931Y-342816D01*
X173250Y-342892D01*
X173551Y-342967D01*
X173795Y-343042D01*
X173983Y-343117D01*
X174040Y-343136D01*
X174096Y-343155D01*
X174115Y-343173D01*
X174133D01*
X174453Y-343324D01*
X174773Y-343512D01*
X175036Y-343681D01*
X175280Y-343850D01*
X175468Y-344001D01*
X175618Y-344132D01*
X175712Y-344207D01*
X175750Y-344245D01*
X174660Y-345636D01*
X174472Y-345467D01*
X174284Y-345316D01*
X174115Y-345185D01*
X173946Y-345091D01*
X173814Y-344997D01*
X173701Y-344940D01*
X173626Y-344903D01*
X173607Y-344884D01*
X173400Y-344790D01*
X173175Y-344715D01*
X172987Y-344677D01*
X172799Y-344640D01*
X172630Y-344621D01*
X172517Y-344602D01*
X172404D01*
X172141Y-344621D01*
X171916Y-344658D01*
X171840Y-344696D01*
X171784Y-344715D01*
X171746Y-344734D01*
X171728D01*
X171521Y-344828D01*
X171371Y-344940D01*
X171276Y-345015D01*
X171239Y-345034D01*
Y-345053D01*
X171107Y-345222D01*
X171013Y-345373D01*
X170957Y-345485D01*
X170938Y-345523D01*
Y-345542D01*
X170863Y-345749D01*
X170844Y-345955D01*
X170825Y-346031D01*
Y-346087D01*
Y-346124D01*
Y-346143D01*
X170844Y-346406D01*
X170863Y-346651D01*
X170882Y-346745D01*
X170901Y-346820D01*
X170919Y-346857D01*
Y-346876D01*
X170995Y-347158D01*
X171107Y-347403D01*
X171164Y-347515D01*
X171201Y-347591D01*
X171220Y-347647D01*
X171239Y-347666D01*
X171333Y-347816D01*
X171446Y-347985D01*
X171558Y-348136D01*
X171653Y-348286D01*
X171765Y-348418D01*
X171840Y-348512D01*
X171897Y-348587D01*
X171916Y-348606D01*
X172085Y-348812D01*
X172292Y-349019D01*
X172479Y-349226D01*
X172667Y-349433D01*
X172837Y-349602D01*
X172968Y-349733D01*
X173062Y-349827D01*
X173100Y-349865D01*
X175694Y-352496D01*
Y-354000D01*
X168194D01*
Y-352102D01*
X172855D01*
X171258Y-350579D01*
X171032Y-350354D01*
X170807Y-350147D01*
X170619Y-349959D01*
X170450Y-349771D01*
X170318Y-349639D01*
X170224Y-349527D01*
X170149Y-349451D01*
X170130Y-349433D01*
X169942Y-349226D01*
X169792Y-349038D01*
X169641Y-348850D01*
X169510Y-348700D01*
X169416Y-348549D01*
X169341Y-348455D01*
X169303Y-348380D01*
X169284Y-348361D01*
X169059Y-347966D01*
X168983Y-347779D01*
X168908Y-347609D01*
X168852Y-347459D01*
X168814Y-347346D01*
X168777Y-347271D01*
Y-347252D01*
X168664Y-346820D01*
X168626Y-346594D01*
X168608Y-346406D01*
X168589Y-346256D01*
Y-346124D01*
Y-346049D01*
Y-346012D01*
X168608Y-345730D01*
X168626Y-345467D01*
X168664Y-345222D01*
X168720Y-345015D01*
X168777Y-344846D01*
X168814Y-344734D01*
X168833Y-344640D01*
X168852Y-344621D01*
X168965Y-344395D01*
X169077Y-344207D01*
X169190Y-344019D01*
X169322Y-343888D01*
X169416Y-343756D01*
X169510Y-343681D01*
X169566Y-343625D01*
X169585Y-343606D01*
X169773Y-343456D01*
X169961Y-343343D01*
X170149Y-343230D01*
X170318Y-343136D01*
X170487Y-343080D01*
X170600Y-343023D01*
X170675Y-342986D01*
X170713D01*
X170957Y-342910D01*
X171220Y-342854D01*
X171465Y-342816D01*
X171690Y-342779D01*
X171897D01*
X172047Y-342760D01*
X172179D01*
X172574Y-342779D01*
D02*
G37*
G36*
X153514D02*
X153871Y-342816D01*
X154191Y-342892D01*
X154492Y-342967D01*
X154736Y-343042D01*
X154924Y-343117D01*
X154980Y-343136D01*
X155037Y-343155D01*
X155056Y-343173D01*
X155074D01*
X155394Y-343324D01*
X155714Y-343512D01*
X155977Y-343681D01*
X156221Y-343850D01*
X156409Y-344001D01*
X156559Y-344132D01*
X156653Y-344207D01*
X156691Y-344245D01*
X155601Y-345636D01*
X155413Y-345467D01*
X155225Y-345316D01*
X155056Y-345185D01*
X154886Y-345091D01*
X154755Y-344997D01*
X154642Y-344940D01*
X154567Y-344903D01*
X154548Y-344884D01*
X154341Y-344790D01*
X154116Y-344715D01*
X153928Y-344677D01*
X153740Y-344640D01*
X153571Y-344621D01*
X153458Y-344602D01*
X153345D01*
X153082Y-344621D01*
X152857Y-344658D01*
X152781Y-344696D01*
X152725Y-344715D01*
X152687Y-344734D01*
X152669D01*
X152462Y-344828D01*
X152311Y-344940D01*
X152217Y-345015D01*
X152180Y-345034D01*
Y-345053D01*
X152048Y-345222D01*
X151954Y-345373D01*
X151898Y-345485D01*
X151879Y-345523D01*
Y-345542D01*
X151804Y-345749D01*
X151785Y-345955D01*
X151766Y-346031D01*
Y-346087D01*
Y-346124D01*
Y-346143D01*
X151785Y-346406D01*
X151804Y-346651D01*
X151823Y-346745D01*
X151841Y-346820D01*
X151860Y-346857D01*
Y-346876D01*
X151936Y-347158D01*
X152048Y-347403D01*
X152105Y-347515D01*
X152142Y-347591D01*
X152161Y-347647D01*
X152180Y-347666D01*
X152274Y-347816D01*
X152387Y-347985D01*
X152499Y-348136D01*
X152593Y-348286D01*
X152706Y-348418D01*
X152781Y-348512D01*
X152838Y-348587D01*
X152857Y-348606D01*
X153026Y-348812D01*
X153232Y-349019D01*
X153420Y-349226D01*
X153608Y-349433D01*
X153778Y-349602D01*
X153909Y-349733D01*
X154003Y-349827D01*
X154041Y-349865D01*
X156635Y-352496D01*
Y-354000D01*
X149135D01*
Y-352102D01*
X153796D01*
X152199Y-350579D01*
X151973Y-350354D01*
X151748Y-350147D01*
X151559Y-349959D01*
X151390Y-349771D01*
X151259Y-349639D01*
X151165Y-349527D01*
X151090Y-349451D01*
X151071Y-349433D01*
X150883Y-349226D01*
X150732Y-349038D01*
X150582Y-348850D01*
X150451Y-348700D01*
X150357Y-348549D01*
X150281Y-348455D01*
X150244Y-348380D01*
X150225Y-348361D01*
X150000Y-347966D01*
X149924Y-347779D01*
X149849Y-347609D01*
X149793Y-347459D01*
X149755Y-347346D01*
X149718Y-347271D01*
Y-347252D01*
X149605Y-346820D01*
X149567Y-346594D01*
X149548Y-346406D01*
X149530Y-346256D01*
Y-346124D01*
Y-346049D01*
Y-346012D01*
X149548Y-345730D01*
X149567Y-345467D01*
X149605Y-345222D01*
X149661Y-345015D01*
X149718Y-344846D01*
X149755Y-344734D01*
X149774Y-344640D01*
X149793Y-344621D01*
X149906Y-344395D01*
X150018Y-344207D01*
X150131Y-344019D01*
X150263Y-343888D01*
X150357Y-343756D01*
X150451Y-343681D01*
X150507Y-343625D01*
X150526Y-343606D01*
X150714Y-343456D01*
X150902Y-343343D01*
X151090Y-343230D01*
X151259Y-343136D01*
X151428Y-343080D01*
X151541Y-343023D01*
X151616Y-342986D01*
X151653D01*
X151898Y-342910D01*
X152161Y-342854D01*
X152405Y-342816D01*
X152631Y-342779D01*
X152838D01*
X152988Y-342760D01*
X153120D01*
X153514Y-342779D01*
D02*
G37*
G36*
X115396D02*
X115753Y-342816D01*
X116073Y-342892D01*
X116373Y-342967D01*
X116618Y-343042D01*
X116806Y-343117D01*
X116862Y-343136D01*
X116918Y-343155D01*
X116937Y-343173D01*
X116956D01*
X117276Y-343324D01*
X117595Y-343512D01*
X117858Y-343681D01*
X118103Y-343850D01*
X118291Y-344001D01*
X118441Y-344132D01*
X118535Y-344207D01*
X118573Y-344245D01*
X117482Y-345636D01*
X117294Y-345467D01*
X117107Y-345316D01*
X116937Y-345185D01*
X116768Y-345091D01*
X116637Y-344997D01*
X116524Y-344940D01*
X116449Y-344903D01*
X116430Y-344884D01*
X116223Y-344790D01*
X115997Y-344715D01*
X115809Y-344677D01*
X115622Y-344640D01*
X115452Y-344621D01*
X115340Y-344602D01*
X115227D01*
X114964Y-344621D01*
X114738Y-344658D01*
X114663Y-344696D01*
X114607Y-344715D01*
X114569Y-344734D01*
X114550D01*
X114344Y-344828D01*
X114193Y-344940D01*
X114099Y-345015D01*
X114061Y-345034D01*
Y-345053D01*
X113930Y-345222D01*
X113836Y-345373D01*
X113780Y-345485D01*
X113761Y-345523D01*
Y-345542D01*
X113686Y-345749D01*
X113667Y-345955D01*
X113648Y-346031D01*
Y-346087D01*
Y-346124D01*
Y-346143D01*
X113667Y-346406D01*
X113686Y-346651D01*
X113704Y-346745D01*
X113723Y-346820D01*
X113742Y-346857D01*
Y-346876D01*
X113817Y-347158D01*
X113930Y-347403D01*
X113986Y-347515D01*
X114024Y-347591D01*
X114043Y-347647D01*
X114061Y-347666D01*
X114156Y-347816D01*
X114268Y-347985D01*
X114381Y-348136D01*
X114475Y-348286D01*
X114588Y-348418D01*
X114663Y-348512D01*
X114719Y-348587D01*
X114738Y-348606D01*
X114907Y-348812D01*
X115114Y-349019D01*
X115302Y-349226D01*
X115490Y-349433D01*
X115659Y-349602D01*
X115791Y-349733D01*
X115885Y-349827D01*
X115922Y-349865D01*
X118516Y-352496D01*
Y-354000D01*
X111017D01*
Y-352102D01*
X115678D01*
X114080Y-350579D01*
X113855Y-350354D01*
X113629Y-350147D01*
X113441Y-349959D01*
X113272Y-349771D01*
X113140Y-349639D01*
X113047Y-349527D01*
X112971Y-349451D01*
X112953Y-349433D01*
X112765Y-349226D01*
X112614Y-349038D01*
X112464Y-348850D01*
X112332Y-348700D01*
X112238Y-348549D01*
X112163Y-348455D01*
X112126Y-348380D01*
X112107Y-348361D01*
X111881Y-347966D01*
X111806Y-347779D01*
X111731Y-347609D01*
X111674Y-347459D01*
X111637Y-347346D01*
X111599Y-347271D01*
Y-347252D01*
X111487Y-346820D01*
X111449Y-346594D01*
X111430Y-346406D01*
X111411Y-346256D01*
Y-346124D01*
Y-346049D01*
Y-346012D01*
X111430Y-345730D01*
X111449Y-345467D01*
X111487Y-345222D01*
X111543Y-345015D01*
X111599Y-344846D01*
X111637Y-344734D01*
X111656Y-344640D01*
X111674Y-344621D01*
X111787Y-344395D01*
X111900Y-344207D01*
X112013Y-344019D01*
X112144Y-343888D01*
X112238Y-343756D01*
X112332Y-343681D01*
X112389Y-343625D01*
X112408Y-343606D01*
X112595Y-343456D01*
X112783Y-343343D01*
X112971Y-343230D01*
X113140Y-343136D01*
X113310Y-343080D01*
X113422Y-343023D01*
X113498Y-342986D01*
X113535D01*
X113780Y-342910D01*
X114043Y-342854D01*
X114287Y-342816D01*
X114513Y-342779D01*
X114719D01*
X114870Y-342760D01*
X115001D01*
X115396Y-342779D01*
D02*
G37*
G36*
X162743D02*
X163100Y-342816D01*
X163420Y-342892D01*
X163702Y-342948D01*
X163927Y-343023D01*
X164097Y-343098D01*
X164209Y-343136D01*
X164228Y-343155D01*
X164247D01*
X164548Y-343324D01*
X164811Y-343493D01*
X165055Y-343681D01*
X165262Y-343869D01*
X165431Y-344038D01*
X165544Y-344170D01*
X165638Y-344264D01*
X165657Y-344301D01*
X165863Y-344583D01*
X166033Y-344884D01*
X166183Y-345185D01*
X166296Y-345485D01*
X166390Y-345730D01*
X166465Y-345918D01*
X166484Y-345993D01*
X166502Y-346049D01*
X166521Y-346087D01*
Y-346106D01*
X166615Y-346519D01*
X166690Y-346933D01*
X166728Y-347346D01*
X166765Y-347722D01*
X166784Y-348042D01*
X166803Y-348192D01*
Y-348305D01*
Y-348399D01*
Y-348474D01*
Y-348512D01*
Y-348530D01*
X166784Y-349076D01*
X166747Y-349564D01*
X166709Y-349996D01*
X166653Y-350372D01*
X166615Y-350542D01*
X166596Y-350692D01*
X166577Y-350805D01*
X166540Y-350918D01*
X166521Y-350993D01*
Y-351049D01*
X166502Y-351087D01*
Y-351105D01*
X166371Y-351481D01*
X166239Y-351838D01*
X166089Y-352139D01*
X165957Y-352384D01*
X165826Y-352590D01*
X165732Y-352741D01*
X165657Y-352835D01*
X165638Y-352872D01*
X165412Y-353117D01*
X165187Y-353305D01*
X164961Y-353493D01*
X164754Y-353624D01*
X164585Y-353737D01*
X164435Y-353812D01*
X164341Y-353850D01*
X164303Y-353868D01*
X164002Y-353981D01*
X163721Y-354056D01*
X163420Y-354113D01*
X163176Y-354150D01*
X162950Y-354169D01*
X162762Y-354188D01*
X162612D01*
X162236Y-354169D01*
X161879Y-354132D01*
X161559Y-354075D01*
X161277Y-354000D01*
X161070Y-353925D01*
X160901Y-353868D01*
X160788Y-353831D01*
X160751Y-353812D01*
X160450Y-353643D01*
X160187Y-353474D01*
X159943Y-353286D01*
X159736Y-353098D01*
X159585Y-352929D01*
X159454Y-352797D01*
X159379Y-352722D01*
X159360Y-352684D01*
X159153Y-352384D01*
X158984Y-352083D01*
X158815Y-351782D01*
X158702Y-351481D01*
X158608Y-351237D01*
X158533Y-351030D01*
X158514Y-350955D01*
X158495Y-350899D01*
X158476Y-350880D01*
Y-350861D01*
X158383Y-350448D01*
X158307Y-350034D01*
X158251Y-349621D01*
X158213Y-349245D01*
X158195Y-348925D01*
X158176Y-348775D01*
Y-348662D01*
Y-348568D01*
Y-348493D01*
Y-348455D01*
Y-348436D01*
X158195Y-347891D01*
X158232Y-347403D01*
X158270Y-346951D01*
X158326Y-346576D01*
X158364Y-346425D01*
X158401Y-346275D01*
X158420Y-346162D01*
X158439Y-346049D01*
X158458Y-345974D01*
X158476Y-345918D01*
X158495Y-345880D01*
Y-345861D01*
X158627Y-345485D01*
X158758Y-345128D01*
X158909Y-344828D01*
X159059Y-344583D01*
X159191Y-344376D01*
X159285Y-344226D01*
X159360Y-344151D01*
X159379Y-344113D01*
X159585Y-343869D01*
X159811Y-343662D01*
X160037Y-343493D01*
X160243Y-343343D01*
X160413Y-343230D01*
X160563Y-343155D01*
X160657Y-343117D01*
X160694Y-343098D01*
X160995Y-342986D01*
X161277Y-342910D01*
X161559Y-342835D01*
X161822Y-342798D01*
X162048Y-342779D01*
X162217Y-342760D01*
X162367D01*
X162743Y-342779D01*
D02*
G37*
G36*
X143684D02*
X144041Y-342816D01*
X144361Y-342892D01*
X144643Y-342948D01*
X144868Y-343023D01*
X145037Y-343098D01*
X145150Y-343136D01*
X145169Y-343155D01*
X145188D01*
X145488Y-343324D01*
X145752Y-343493D01*
X145996Y-343681D01*
X146203Y-343869D01*
X146372Y-344038D01*
X146485Y-344170D01*
X146579Y-344264D01*
X146597Y-344301D01*
X146804Y-344583D01*
X146973Y-344884D01*
X147124Y-345185D01*
X147236Y-345485D01*
X147330Y-345730D01*
X147406Y-345918D01*
X147424Y-345993D01*
X147443Y-346049D01*
X147462Y-346087D01*
Y-346106D01*
X147556Y-346519D01*
X147631Y-346933D01*
X147669Y-347346D01*
X147706Y-347722D01*
X147725Y-348042D01*
X147744Y-348192D01*
Y-348305D01*
Y-348399D01*
Y-348474D01*
Y-348512D01*
Y-348530D01*
X147725Y-349076D01*
X147688Y-349564D01*
X147650Y-349996D01*
X147594Y-350372D01*
X147556Y-350542D01*
X147537Y-350692D01*
X147518Y-350805D01*
X147481Y-350918D01*
X147462Y-350993D01*
Y-351049D01*
X147443Y-351087D01*
Y-351105D01*
X147312Y-351481D01*
X147180Y-351838D01*
X147030Y-352139D01*
X146898Y-352384D01*
X146767Y-352590D01*
X146673Y-352741D01*
X146597Y-352835D01*
X146579Y-352872D01*
X146353Y-353117D01*
X146128Y-353305D01*
X145902Y-353493D01*
X145695Y-353624D01*
X145526Y-353737D01*
X145376Y-353812D01*
X145282Y-353850D01*
X145244Y-353868D01*
X144943Y-353981D01*
X144661Y-354056D01*
X144361Y-354113D01*
X144116Y-354150D01*
X143891Y-354169D01*
X143703Y-354188D01*
X143552D01*
X143176Y-354169D01*
X142819Y-354132D01*
X142500Y-354075D01*
X142218Y-354000D01*
X142011Y-353925D01*
X141842Y-353868D01*
X141729Y-353831D01*
X141692Y-353812D01*
X141391Y-353643D01*
X141128Y-353474D01*
X140883Y-353286D01*
X140677Y-353098D01*
X140526Y-352929D01*
X140395Y-352797D01*
X140319Y-352722D01*
X140301Y-352684D01*
X140094Y-352384D01*
X139925Y-352083D01*
X139756Y-351782D01*
X139643Y-351481D01*
X139549Y-351237D01*
X139474Y-351030D01*
X139455Y-350955D01*
X139436Y-350899D01*
X139417Y-350880D01*
Y-350861D01*
X139323Y-350448D01*
X139248Y-350034D01*
X139192Y-349621D01*
X139154Y-349245D01*
X139135Y-348925D01*
X139117Y-348775D01*
Y-348662D01*
Y-348568D01*
Y-348493D01*
Y-348455D01*
Y-348436D01*
X139135Y-347891D01*
X139173Y-347403D01*
X139211Y-346951D01*
X139267Y-346576D01*
X139305Y-346425D01*
X139342Y-346275D01*
X139361Y-346162D01*
X139380Y-346049D01*
X139398Y-345974D01*
X139417Y-345918D01*
X139436Y-345880D01*
Y-345861D01*
X139568Y-345485D01*
X139699Y-345128D01*
X139850Y-344828D01*
X140000Y-344583D01*
X140132Y-344376D01*
X140226Y-344226D01*
X140301Y-344151D01*
X140319Y-344113D01*
X140526Y-343869D01*
X140752Y-343662D01*
X140977Y-343493D01*
X141184Y-343343D01*
X141353Y-343230D01*
X141504Y-343155D01*
X141598Y-343117D01*
X141635Y-343098D01*
X141936Y-342986D01*
X142218Y-342910D01*
X142500Y-342835D01*
X142763Y-342798D01*
X142989Y-342779D01*
X143158Y-342760D01*
X143308D01*
X143684Y-342779D01*
D02*
G37*
G36*
X134154D02*
X134512Y-342816D01*
X134831Y-342892D01*
X135113Y-342948D01*
X135339Y-343023D01*
X135508Y-343098D01*
X135620Y-343136D01*
X135639Y-343155D01*
X135658D01*
X135959Y-343324D01*
X136222Y-343493D01*
X136466Y-343681D01*
X136673Y-343869D01*
X136842Y-344038D01*
X136955Y-344170D01*
X137049Y-344264D01*
X137068Y-344301D01*
X137275Y-344583D01*
X137444Y-344884D01*
X137594Y-345185D01*
X137707Y-345485D01*
X137801Y-345730D01*
X137876Y-345918D01*
X137895Y-345993D01*
X137914Y-346049D01*
X137932Y-346087D01*
Y-346106D01*
X138026Y-346519D01*
X138102Y-346933D01*
X138139Y-347346D01*
X138177Y-347722D01*
X138196Y-348042D01*
X138214Y-348192D01*
Y-348305D01*
Y-348399D01*
Y-348474D01*
Y-348512D01*
Y-348530D01*
X138196Y-349076D01*
X138158Y-349564D01*
X138120Y-349996D01*
X138064Y-350372D01*
X138026Y-350542D01*
X138008Y-350692D01*
X137989Y-350805D01*
X137951Y-350918D01*
X137932Y-350993D01*
Y-351049D01*
X137914Y-351087D01*
Y-351105D01*
X137782Y-351481D01*
X137650Y-351838D01*
X137500Y-352139D01*
X137369Y-352384D01*
X137237Y-352590D01*
X137143Y-352741D01*
X137068Y-352835D01*
X137049Y-352872D01*
X136824Y-353117D01*
X136598Y-353305D01*
X136372Y-353493D01*
X136166Y-353624D01*
X135997Y-353737D01*
X135846Y-353812D01*
X135752Y-353850D01*
X135715Y-353868D01*
X135414Y-353981D01*
X135132Y-354056D01*
X134831Y-354113D01*
X134587Y-354150D01*
X134361Y-354169D01*
X134173Y-354188D01*
X134023D01*
X133647Y-354169D01*
X133290Y-354132D01*
X132970Y-354075D01*
X132688Y-354000D01*
X132482Y-353925D01*
X132312Y-353868D01*
X132200Y-353831D01*
X132162Y-353812D01*
X131861Y-353643D01*
X131598Y-353474D01*
X131354Y-353286D01*
X131147Y-353098D01*
X130997Y-352929D01*
X130865Y-352797D01*
X130790Y-352722D01*
X130771Y-352684D01*
X130564Y-352384D01*
X130395Y-352083D01*
X130226Y-351782D01*
X130113Y-351481D01*
X130019Y-351237D01*
X129944Y-351030D01*
X129925Y-350955D01*
X129907Y-350899D01*
X129888Y-350880D01*
Y-350861D01*
X129794Y-350448D01*
X129719Y-350034D01*
X129662Y-349621D01*
X129625Y-349245D01*
X129606Y-348925D01*
X129587Y-348775D01*
Y-348662D01*
Y-348568D01*
Y-348493D01*
Y-348455D01*
Y-348436D01*
X129606Y-347891D01*
X129643Y-347403D01*
X129681Y-346951D01*
X129737Y-346576D01*
X129775Y-346425D01*
X129813Y-346275D01*
X129831Y-346162D01*
X129850Y-346049D01*
X129869Y-345974D01*
X129888Y-345918D01*
X129907Y-345880D01*
Y-345861D01*
X130038Y-345485D01*
X130170Y-345128D01*
X130320Y-344828D01*
X130470Y-344583D01*
X130602Y-344376D01*
X130696Y-344226D01*
X130771Y-344151D01*
X130790Y-344113D01*
X130997Y-343869D01*
X131222Y-343662D01*
X131448Y-343493D01*
X131655Y-343343D01*
X131824Y-343230D01*
X131974Y-343155D01*
X132068Y-343117D01*
X132106Y-343098D01*
X132406Y-342986D01*
X132688Y-342910D01*
X132970Y-342835D01*
X133233Y-342798D01*
X133459Y-342779D01*
X133628Y-342760D01*
X133778D01*
X134154Y-342779D01*
D02*
G37*
G36*
X124663D02*
X124982Y-342798D01*
X125264Y-342835D01*
X125508Y-342873D01*
X125696Y-342929D01*
X125847Y-342967D01*
X125941Y-342986D01*
X125978Y-343004D01*
X126222Y-343098D01*
X126448Y-343192D01*
X126655Y-343305D01*
X126824Y-343399D01*
X126956Y-343493D01*
X127050Y-343549D01*
X127125Y-343606D01*
X127143Y-343625D01*
X127294Y-343775D01*
X127444Y-343925D01*
X127557Y-344095D01*
X127651Y-344226D01*
X127726Y-344358D01*
X127783Y-344452D01*
X127801Y-344527D01*
X127820Y-344546D01*
X127895Y-344752D01*
X127952Y-344940D01*
X127989Y-345128D01*
X128008Y-345298D01*
X128027Y-345448D01*
X128046Y-345579D01*
Y-345655D01*
Y-345673D01*
X128027Y-346049D01*
X128008Y-346200D01*
X127971Y-346331D01*
X127952Y-346463D01*
X127933Y-346538D01*
X127914Y-346594D01*
Y-346613D01*
X127783Y-346895D01*
X127651Y-347121D01*
X127613Y-347215D01*
X127557Y-347290D01*
X127538Y-347327D01*
X127520Y-347346D01*
X127313Y-347572D01*
X127125Y-347760D01*
X127031Y-347835D01*
X126974Y-347891D01*
X126937Y-347910D01*
X126918Y-347929D01*
X126655Y-348117D01*
X126429Y-348267D01*
X126335Y-348324D01*
X126260Y-348361D01*
X126222Y-348380D01*
X126204Y-348399D01*
X126504Y-348587D01*
X126636Y-348681D01*
X126749Y-348756D01*
X126843Y-348831D01*
X126918Y-348887D01*
X126974Y-348925D01*
X126993Y-348944D01*
X127256Y-349170D01*
X127463Y-349376D01*
X127557Y-349470D01*
X127613Y-349545D01*
X127651Y-349583D01*
X127670Y-349602D01*
X127858Y-349884D01*
X128008Y-350147D01*
X128046Y-350241D01*
X128083Y-350335D01*
X128121Y-350391D01*
Y-350410D01*
X128215Y-350748D01*
X128234Y-350918D01*
X128252Y-351068D01*
X128271Y-351199D01*
Y-351312D01*
Y-351387D01*
Y-351406D01*
X128252Y-351632D01*
X128234Y-351857D01*
X128196Y-352064D01*
X128140Y-352233D01*
X128102Y-352365D01*
X128064Y-352478D01*
X128046Y-352553D01*
X128027Y-352571D01*
X127933Y-352760D01*
X127801Y-352929D01*
X127689Y-353060D01*
X127576Y-353192D01*
X127463Y-353305D01*
X127369Y-353380D01*
X127313Y-353417D01*
X127294Y-353436D01*
X127106Y-353568D01*
X126899Y-353680D01*
X126692Y-353774D01*
X126504Y-353850D01*
X126335Y-353906D01*
X126204Y-353962D01*
X126129Y-353981D01*
X126091Y-354000D01*
X125809Y-354056D01*
X125527Y-354113D01*
X125264Y-354150D01*
X125001Y-354169D01*
X124775D01*
X124606Y-354188D01*
X124136D01*
X123854Y-354150D01*
X123591Y-354132D01*
X123365Y-354094D01*
X123159Y-354056D01*
X123027Y-354038D01*
X122933Y-354000D01*
X122896D01*
X122633Y-353925D01*
X122388Y-353831D01*
X122181Y-353737D01*
X121993Y-353643D01*
X121843Y-353549D01*
X121730Y-353474D01*
X121655Y-353436D01*
X121636Y-353417D01*
X121448Y-353267D01*
X121279Y-353098D01*
X121129Y-352948D01*
X121016Y-352797D01*
X120922Y-352665D01*
X120847Y-352553D01*
X120809Y-352478D01*
X120791Y-352459D01*
X120678Y-352233D01*
X120603Y-352008D01*
X120546Y-351782D01*
X120508Y-351575D01*
X120490Y-351387D01*
X120471Y-351256D01*
Y-351162D01*
Y-351124D01*
X120490Y-350729D01*
X120527Y-350560D01*
X120546Y-350410D01*
X120584Y-350278D01*
X120621Y-350184D01*
X120640Y-350128D01*
Y-350109D01*
X120791Y-349790D01*
X120866Y-349658D01*
X120922Y-349527D01*
X120997Y-349433D01*
X121035Y-349357D01*
X121072Y-349320D01*
X121091Y-349301D01*
X121317Y-349038D01*
X121524Y-348831D01*
X121617Y-348756D01*
X121693Y-348700D01*
X121730Y-348681D01*
X121749Y-348662D01*
X122031Y-348455D01*
X122275Y-348305D01*
X122388Y-348248D01*
X122463Y-348192D01*
X122520Y-348173D01*
X122538Y-348154D01*
X122275Y-347966D01*
X122031Y-347816D01*
X121956Y-347741D01*
X121881Y-347685D01*
X121843Y-347666D01*
X121824Y-347647D01*
X121599Y-347421D01*
X121411Y-347234D01*
X121336Y-347140D01*
X121279Y-347083D01*
X121260Y-347046D01*
X121242Y-347027D01*
X121072Y-346764D01*
X120960Y-346519D01*
X120903Y-346425D01*
X120866Y-346350D01*
X120847Y-346294D01*
Y-346275D01*
X120753Y-345937D01*
X120734Y-345786D01*
X120715Y-345636D01*
X120696Y-345504D01*
Y-345410D01*
Y-345335D01*
Y-345316D01*
X120715Y-345109D01*
X120734Y-344922D01*
X120772Y-344734D01*
X120809Y-344583D01*
X120866Y-344452D01*
X120903Y-344358D01*
X120922Y-344301D01*
X120941Y-344282D01*
X121035Y-344113D01*
X121148Y-343963D01*
X121279Y-343813D01*
X121392Y-343700D01*
X121486Y-343606D01*
X121580Y-343531D01*
X121636Y-343493D01*
X121655Y-343474D01*
X121824Y-343362D01*
X122012Y-343249D01*
X122200Y-343155D01*
X122388Y-343080D01*
X122538Y-343023D01*
X122670Y-342986D01*
X122745Y-342948D01*
X122783D01*
X123309Y-342835D01*
X123572Y-342798D01*
X123798Y-342779D01*
X124023Y-342760D01*
X124324D01*
X124663Y-342779D01*
D02*
G37*
G36*
X105603D02*
X105923Y-342798D01*
X106205Y-342835D01*
X106449Y-342873D01*
X106637Y-342929D01*
X106788Y-342967D01*
X106881Y-342986D01*
X106919Y-343004D01*
X107163Y-343098D01*
X107389Y-343192D01*
X107596Y-343305D01*
X107765Y-343399D01*
X107896Y-343493D01*
X107990Y-343549D01*
X108066Y-343606D01*
X108084Y-343625D01*
X108235Y-343775D01*
X108385Y-343925D01*
X108498Y-344095D01*
X108592Y-344226D01*
X108667Y-344358D01*
X108723Y-344452D01*
X108742Y-344527D01*
X108761Y-344546D01*
X108836Y-344752D01*
X108893Y-344940D01*
X108930Y-345128D01*
X108949Y-345298D01*
X108968Y-345448D01*
X108987Y-345579D01*
Y-345655D01*
Y-345673D01*
X108968Y-346049D01*
X108949Y-346200D01*
X108911Y-346331D01*
X108893Y-346463D01*
X108874Y-346538D01*
X108855Y-346594D01*
Y-346613D01*
X108723Y-346895D01*
X108592Y-347121D01*
X108554Y-347215D01*
X108498Y-347290D01*
X108479Y-347327D01*
X108460Y-347346D01*
X108254Y-347572D01*
X108066Y-347760D01*
X107972Y-347835D01*
X107915Y-347891D01*
X107878Y-347910D01*
X107859Y-347929D01*
X107596Y-348117D01*
X107370Y-348267D01*
X107276Y-348324D01*
X107201Y-348361D01*
X107163Y-348380D01*
X107145Y-348399D01*
X107445Y-348587D01*
X107577Y-348681D01*
X107690Y-348756D01*
X107784Y-348831D01*
X107859Y-348887D01*
X107915Y-348925D01*
X107934Y-348944D01*
X108197Y-349170D01*
X108404Y-349376D01*
X108498Y-349470D01*
X108554Y-349545D01*
X108592Y-349583D01*
X108611Y-349602D01*
X108799Y-349884D01*
X108949Y-350147D01*
X108987Y-350241D01*
X109024Y-350335D01*
X109062Y-350391D01*
Y-350410D01*
X109156Y-350748D01*
X109175Y-350918D01*
X109193Y-351068D01*
X109212Y-351199D01*
Y-351312D01*
Y-351387D01*
Y-351406D01*
X109193Y-351632D01*
X109175Y-351857D01*
X109137Y-352064D01*
X109081Y-352233D01*
X109043Y-352365D01*
X109005Y-352478D01*
X108987Y-352553D01*
X108968Y-352571D01*
X108874Y-352760D01*
X108742Y-352929D01*
X108630Y-353060D01*
X108517Y-353192D01*
X108404Y-353305D01*
X108310Y-353380D01*
X108254Y-353417D01*
X108235Y-353436D01*
X108047Y-353568D01*
X107840Y-353680D01*
X107633Y-353774D01*
X107445Y-353850D01*
X107276Y-353906D01*
X107145Y-353962D01*
X107069Y-353981D01*
X107032Y-354000D01*
X106750Y-354056D01*
X106468Y-354113D01*
X106205Y-354150D01*
X105942Y-354169D01*
X105716D01*
X105547Y-354188D01*
X105077D01*
X104795Y-354150D01*
X104532Y-354132D01*
X104306Y-354094D01*
X104100Y-354056D01*
X103968Y-354038D01*
X103874Y-354000D01*
X103836D01*
X103573Y-353925D01*
X103329Y-353831D01*
X103122Y-353737D01*
X102934Y-353643D01*
X102784Y-353549D01*
X102671Y-353474D01*
X102596Y-353436D01*
X102577Y-353417D01*
X102389Y-353267D01*
X102220Y-353098D01*
X102070Y-352948D01*
X101957Y-352797D01*
X101863Y-352665D01*
X101788Y-352553D01*
X101750Y-352478D01*
X101731Y-352459D01*
X101619Y-352233D01*
X101543Y-352008D01*
X101487Y-351782D01*
X101449Y-351575D01*
X101431Y-351387D01*
X101412Y-351256D01*
Y-351162D01*
Y-351124D01*
X101431Y-350730D01*
X101468Y-350560D01*
X101487Y-350410D01*
X101525Y-350278D01*
X101562Y-350185D01*
X101581Y-350128D01*
Y-350109D01*
X101731Y-349790D01*
X101806Y-349658D01*
X101863Y-349527D01*
X101938Y-349433D01*
X101976Y-349357D01*
X102013Y-349320D01*
X102032Y-349301D01*
X102258Y-349038D01*
X102464Y-348831D01*
X102558Y-348756D01*
X102634Y-348700D01*
X102671Y-348681D01*
X102690Y-348662D01*
X102972Y-348455D01*
X103216Y-348305D01*
X103329Y-348248D01*
X103404Y-348192D01*
X103461Y-348173D01*
X103479Y-348154D01*
X103216Y-347966D01*
X102972Y-347816D01*
X102897Y-347741D01*
X102822Y-347685D01*
X102784Y-347666D01*
X102765Y-347647D01*
X102540Y-347421D01*
X102352Y-347234D01*
X102276Y-347140D01*
X102220Y-347083D01*
X102201Y-347046D01*
X102182Y-347027D01*
X102013Y-346764D01*
X101901Y-346519D01*
X101844Y-346425D01*
X101806Y-346350D01*
X101788Y-346294D01*
Y-346275D01*
X101694Y-345937D01*
X101675Y-345786D01*
X101656Y-345636D01*
X101637Y-345504D01*
Y-345410D01*
Y-345335D01*
Y-345316D01*
X101656Y-345109D01*
X101675Y-344922D01*
X101713Y-344734D01*
X101750Y-344583D01*
X101806Y-344452D01*
X101844Y-344358D01*
X101863Y-344301D01*
X101882Y-344282D01*
X101976Y-344113D01*
X102088Y-343963D01*
X102220Y-343813D01*
X102333Y-343700D01*
X102427Y-343606D01*
X102521Y-343531D01*
X102577Y-343493D01*
X102596Y-343474D01*
X102765Y-343362D01*
X102953Y-343249D01*
X103141Y-343155D01*
X103329Y-343080D01*
X103479Y-343023D01*
X103611Y-342986D01*
X103686Y-342948D01*
X103724D01*
X104250Y-342835D01*
X104513Y-342798D01*
X104739Y-342779D01*
X104964Y-342760D01*
X105265D01*
X105603Y-342779D01*
D02*
G37*
G36*
X-50600Y-288279D02*
X-50506D01*
X-50431Y-288298D01*
X-50374D01*
X-50130Y-288316D01*
X-49904Y-288354D01*
X-49810Y-288373D01*
X-49735D01*
X-49697Y-288392D01*
X-49679D01*
X-49434Y-288429D01*
X-49209Y-288486D01*
X-49115Y-288504D01*
X-49040Y-288523D01*
X-49002Y-288542D01*
X-48983D01*
X-48739Y-288598D01*
X-48495Y-288655D01*
X-48401Y-288692D01*
X-48325Y-288711D01*
X-48288Y-288730D01*
X-48269D01*
Y-290459D01*
X-48758Y-290328D01*
X-48983Y-290252D01*
X-49190Y-290215D01*
X-49340Y-290177D01*
X-49472Y-290140D01*
X-49566Y-290121D01*
X-49585D01*
X-50055Y-290046D01*
X-50280Y-290027D01*
X-50487Y-290008D01*
X-50656Y-289989D01*
X-50901D01*
X-51220Y-290008D01*
X-51502Y-290046D01*
X-51727Y-290102D01*
X-51915Y-290158D01*
X-52066Y-290234D01*
X-52179Y-290290D01*
X-52235Y-290328D01*
X-52254Y-290346D01*
X-52404Y-290497D01*
X-52517Y-290666D01*
X-52592Y-290835D01*
X-52649Y-291004D01*
X-52686Y-291155D01*
X-52705Y-291267D01*
Y-291343D01*
Y-291380D01*
X-52686Y-291606D01*
X-52649Y-291812D01*
X-52630Y-291888D01*
X-52611Y-291944D01*
X-52592Y-291982D01*
Y-292000D01*
X-52479Y-292207D01*
X-52366Y-292376D01*
X-52254Y-292489D01*
X-52235Y-292508D01*
X-52216Y-292527D01*
X-51991Y-292677D01*
X-51765Y-292790D01*
X-51671Y-292827D01*
X-51596Y-292865D01*
X-51540Y-292884D01*
X-51521D01*
X-51352Y-292921D01*
X-51164Y-292940D01*
X-50994Y-292978D01*
X-50806D01*
X-50656Y-292997D01*
X-49303D01*
Y-294576D01*
X-50769D01*
X-51013Y-294594D01*
X-51220Y-294613D01*
X-51389Y-294632D01*
X-51540Y-294669D01*
X-51634Y-294688D01*
X-51709Y-294707D01*
X-51727D01*
X-51915Y-294745D01*
X-52066Y-294801D01*
X-52216Y-294857D01*
X-52329Y-294914D01*
X-52423Y-294951D01*
X-52498Y-294989D01*
X-52536Y-295008D01*
X-52554Y-295027D01*
X-52780Y-295196D01*
X-52930Y-295365D01*
X-52987Y-295421D01*
X-53024Y-295478D01*
X-53062Y-295515D01*
Y-295534D01*
X-53156Y-295760D01*
X-53212Y-295966D01*
X-53231Y-296060D01*
Y-296136D01*
Y-296173D01*
Y-296192D01*
X-53212Y-296474D01*
X-53175Y-296605D01*
X-53156Y-296718D01*
X-53118Y-296812D01*
X-53081Y-296887D01*
X-53062Y-296925D01*
Y-296944D01*
X-52930Y-297169D01*
X-52761Y-297339D01*
X-52686Y-297395D01*
X-52630Y-297451D01*
X-52592Y-297470D01*
X-52573Y-297489D01*
X-52310Y-297639D01*
X-52047Y-297733D01*
X-51915Y-297771D01*
X-51840Y-297808D01*
X-51765Y-297827D01*
X-51746D01*
X-51352Y-297884D01*
X-51145Y-297921D01*
X-50957D01*
X-50788Y-297940D01*
X-50280D01*
X-50017Y-297921D01*
X-49773D01*
X-49566Y-297902D01*
X-49397D01*
X-49265Y-297884D01*
X-49152D01*
X-48908Y-297865D01*
X-48682Y-297827D01*
X-48495Y-297808D01*
X-48307Y-297771D01*
X-48175Y-297752D01*
X-48062Y-297733D01*
X-47987Y-297714D01*
X-47968D01*
Y-299500D01*
X-48137Y-299519D01*
X-48325Y-299538D01*
X-48382Y-299556D01*
X-48495D01*
X-48720Y-299575D01*
X-48908Y-299594D01*
X-48983Y-299613D01*
X-49096D01*
X-49340Y-299632D01*
X-49528D01*
X-49622Y-299650D01*
X-49735D01*
X-49961Y-299669D01*
X-50337D01*
X-50806Y-299650D01*
X-51239Y-299632D01*
X-51615Y-299594D01*
X-51934Y-299538D01*
X-52216Y-299500D01*
X-52404Y-299462D01*
X-52479Y-299444D01*
X-52536D01*
X-52554Y-299425D01*
X-52573D01*
X-52912Y-299331D01*
X-53231Y-299218D01*
X-53494Y-299105D01*
X-53720Y-298993D01*
X-53908Y-298880D01*
X-54039Y-298805D01*
X-54133Y-298748D01*
X-54152Y-298729D01*
X-54378Y-298541D01*
X-54566Y-298354D01*
X-54735Y-298165D01*
X-54866Y-297996D01*
X-54960Y-297827D01*
X-55036Y-297714D01*
X-55073Y-297639D01*
X-55092Y-297602D01*
X-55205Y-297357D01*
X-55280Y-297094D01*
X-55336Y-296850D01*
X-55374Y-296624D01*
X-55393Y-296418D01*
X-55412Y-296267D01*
Y-296173D01*
Y-296136D01*
X-55393Y-295760D01*
X-55355Y-295609D01*
X-55336Y-295459D01*
X-55299Y-295346D01*
X-55261Y-295271D01*
X-55242Y-295215D01*
Y-295196D01*
X-55092Y-294895D01*
X-55017Y-294764D01*
X-54942Y-294651D01*
X-54866Y-294576D01*
X-54810Y-294500D01*
X-54772Y-294463D01*
X-54754Y-294444D01*
X-54509Y-294218D01*
X-54284Y-294068D01*
X-54171Y-293993D01*
X-54096Y-293955D01*
X-54039Y-293918D01*
X-54021D01*
X-53701Y-293786D01*
X-53532Y-293730D01*
X-53382Y-293692D01*
X-53250Y-293654D01*
X-53156Y-293636D01*
X-53081Y-293617D01*
X-53062D01*
X-53363Y-293485D01*
X-53607Y-293316D01*
X-53833Y-293166D01*
X-54021Y-293015D01*
X-54171Y-292865D01*
X-54265Y-292752D01*
X-54340Y-292677D01*
X-54359Y-292658D01*
X-54509Y-292414D01*
X-54622Y-292151D01*
X-54716Y-291869D01*
X-54772Y-291625D01*
X-54810Y-291380D01*
X-54829Y-291211D01*
Y-291136D01*
Y-291080D01*
Y-291061D01*
Y-291042D01*
X-54810Y-290816D01*
X-54791Y-290591D01*
X-54754Y-290403D01*
X-54716Y-290234D01*
X-54660Y-290083D01*
X-54622Y-289989D01*
X-54603Y-289914D01*
X-54584Y-289895D01*
X-54490Y-289707D01*
X-54378Y-289538D01*
X-54246Y-289388D01*
X-54133Y-289256D01*
X-54039Y-289143D01*
X-53945Y-289068D01*
X-53889Y-289031D01*
X-53870Y-289012D01*
X-53682Y-288880D01*
X-53494Y-288768D01*
X-53288Y-288673D01*
X-53118Y-288598D01*
X-52949Y-288542D01*
X-52818Y-288504D01*
X-52743Y-288467D01*
X-52705D01*
X-52442Y-288392D01*
X-52179Y-288354D01*
X-51915Y-288316D01*
X-51671Y-288279D01*
X-51445D01*
X-51276Y-288260D01*
X-50844D01*
X-50600Y-288279D01*
D02*
G37*
G36*
X-115709Y-287414D02*
X-115540Y-287433D01*
X-115389Y-287471D01*
X-115277Y-287508D01*
X-115183Y-287546D01*
X-115126Y-287565D01*
X-115108Y-287583D01*
X-114807Y-287753D01*
X-114694Y-287847D01*
X-114581Y-287941D01*
X-114487Y-288016D01*
X-114431Y-288091D01*
X-114393Y-288129D01*
X-114375Y-288147D01*
X-114187Y-288410D01*
X-114036Y-288692D01*
X-113980Y-288805D01*
X-113961Y-288899D01*
X-113923Y-288955D01*
Y-288974D01*
X-113829Y-289331D01*
X-113811Y-289501D01*
X-113792Y-289670D01*
X-113773Y-289801D01*
Y-289914D01*
Y-289989D01*
Y-290008D01*
X-113792Y-290459D01*
X-113867Y-290835D01*
X-113961Y-291155D01*
X-114074Y-291437D01*
X-114168Y-291643D01*
X-114262Y-291794D01*
X-114337Y-291869D01*
X-114356Y-291907D01*
X-114600Y-292113D01*
X-114863Y-292282D01*
X-115145Y-292395D01*
X-115427Y-292470D01*
X-115653Y-292508D01*
X-115859Y-292527D01*
X-115935Y-292546D01*
X-116029D01*
X-116404Y-292508D01*
X-116574Y-292489D01*
X-116724Y-292452D01*
X-116837Y-292414D01*
X-116931Y-292395D01*
X-116987Y-292358D01*
X-117006D01*
X-117307Y-292188D01*
X-117438Y-292094D01*
X-117551Y-292019D01*
X-117626Y-291944D01*
X-117683Y-291869D01*
X-117720Y-291831D01*
X-117739Y-291812D01*
X-117946Y-291531D01*
X-118096Y-291267D01*
X-118134Y-291155D01*
X-118171Y-291061D01*
X-118209Y-291004D01*
Y-290986D01*
X-118303Y-290628D01*
X-118341Y-290440D01*
X-118359Y-290290D01*
X-118378Y-290140D01*
Y-290027D01*
Y-289952D01*
Y-289933D01*
X-118359Y-289482D01*
X-118284Y-289106D01*
X-118190Y-288786D01*
X-118077Y-288504D01*
X-117965Y-288298D01*
X-117871Y-288147D01*
X-117795Y-288072D01*
X-117777Y-288034D01*
X-117532Y-287809D01*
X-117269Y-287659D01*
X-116987Y-287546D01*
X-116724Y-287452D01*
X-116480Y-287414D01*
X-116273Y-287395D01*
X-116217Y-287377D01*
X-115897D01*
X-115709Y-287414D01*
D02*
G37*
G36*
X-85711Y-299500D02*
X-87797D01*
Y-294688D01*
X-91556D01*
Y-299500D01*
X-93643D01*
Y-288448D01*
X-91556D01*
Y-292884D01*
X-87797D01*
Y-288448D01*
X-85711D01*
Y-299500D01*
D02*
G37*
G36*
X-18985Y-299500D02*
X-20883D01*
Y-296079D01*
Y-291493D01*
X-21485Y-292921D01*
X-24436Y-299500D01*
X-26992D01*
Y-288448D01*
X-25094D01*
Y-291512D01*
Y-296380D01*
X-24548Y-295102D01*
X-21541Y-288448D01*
X-18985D01*
Y-299500D01*
D02*
G37*
G36*
X-98266Y-292132D02*
X-95315D01*
Y-293730D01*
X-98266D01*
Y-296700D01*
X-100146D01*
Y-293730D01*
X-103097D01*
Y-292132D01*
X-100146D01*
Y-289125D01*
X-98266D01*
Y-292132D01*
D02*
G37*
G36*
X-76538Y-296681D02*
Y-296925D01*
X-76557Y-297151D01*
X-76595Y-297376D01*
X-76613Y-297545D01*
X-76651Y-297714D01*
X-76670Y-297827D01*
X-76689Y-297902D01*
Y-297921D01*
X-76764Y-298109D01*
X-76839Y-298297D01*
X-76914Y-298466D01*
X-76989Y-298598D01*
X-77064Y-298711D01*
X-77121Y-298805D01*
X-77158Y-298861D01*
X-77177Y-298880D01*
X-77459Y-299143D01*
X-77722Y-299331D01*
X-77835Y-299387D01*
X-77929Y-299444D01*
X-77986Y-299463D01*
X-78004Y-299481D01*
X-78192Y-299556D01*
X-78399Y-299594D01*
X-78606Y-299632D01*
X-78775Y-299669D01*
X-78944D01*
X-79057Y-299688D01*
X-79170D01*
X-79508Y-299669D01*
X-79640Y-299650D01*
X-79771Y-299632D01*
X-79865Y-299613D01*
X-79959Y-299594D01*
X-79997Y-299575D01*
X-80015D01*
X-80297Y-299500D01*
X-80523Y-299406D01*
X-80617Y-299350D01*
X-80673Y-299331D01*
X-80711Y-299293D01*
X-80730D01*
X-80974Y-299143D01*
X-81162Y-298993D01*
X-81237Y-298936D01*
X-81294Y-298880D01*
X-81312Y-298861D01*
X-81331Y-298842D01*
X-81538Y-298635D01*
X-81726Y-298429D01*
X-81782Y-298354D01*
X-81839Y-298297D01*
X-81876Y-298260D01*
X-81895Y-298241D01*
X-81933Y-299500D01*
X-83737D01*
Y-290910D01*
X-81670D01*
Y-296342D01*
X-81463Y-296605D01*
X-81275Y-296831D01*
X-81106Y-297038D01*
X-80955Y-297207D01*
X-80824Y-297339D01*
X-80730Y-297432D01*
X-80654Y-297489D01*
X-80636Y-297508D01*
X-80467Y-297639D01*
X-80279Y-297752D01*
X-80128Y-297827D01*
X-79978Y-297865D01*
X-79846Y-297902D01*
X-79752Y-297921D01*
X-79658D01*
X-79470Y-297902D01*
X-79301Y-297865D01*
X-79170Y-297808D01*
X-79057Y-297733D01*
X-78963Y-297677D01*
X-78906Y-297621D01*
X-78869Y-297583D01*
X-78850Y-297564D01*
X-78775Y-297414D01*
X-78719Y-297244D01*
X-78643Y-296906D01*
X-78625Y-296756D01*
X-78606Y-296624D01*
Y-296549D01*
Y-296511D01*
Y-290910D01*
X-76538D01*
Y-296681D01*
D02*
G37*
G36*
X18250Y-299500D02*
X11465D01*
Y-297714D01*
X16126D01*
Y-288448D01*
X18250D01*
Y-299500D01*
D02*
G37*
G36*
X8833D02*
X6709D01*
Y-294970D01*
X2537D01*
Y-293260D01*
X6709D01*
Y-290215D01*
X2292D01*
Y-288448D01*
X8833D01*
Y-299500D01*
D02*
G37*
G36*
X-8703D02*
X-10771D01*
X-11391Y-297320D01*
X-15244D01*
X-15865Y-299500D01*
X-18158D01*
X-14887Y-288448D01*
X-11974D01*
X-8703Y-299500D01*
D02*
G37*
G36*
X-28402Y-290177D02*
X-31428D01*
Y-299500D01*
X-33552D01*
Y-290177D01*
X-36578D01*
Y-288448D01*
X-28402D01*
Y-290177D01*
D02*
G37*
G36*
X-56652Y-295478D02*
Y-297244D01*
X-61783D01*
Y-299500D01*
X-63813D01*
Y-297244D01*
X-65486D01*
Y-295421D01*
X-63813D01*
Y-288448D01*
X-60956D01*
X-56652Y-295478D01*
D02*
G37*
G36*
X-95560Y-299500D02*
X-102853D01*
Y-297865D01*
X-95560D01*
Y-299500D01*
D02*
G37*
G36*
X-113491D02*
X-115164D01*
X-123021Y-287546D01*
X-121348D01*
X-113491Y-299500D01*
D02*
G37*
G36*
X-120070Y-294519D02*
X-119901Y-294538D01*
X-119750Y-294576D01*
X-119637Y-294613D01*
X-119543Y-294651D01*
X-119487Y-294669D01*
X-119468Y-294688D01*
X-119167Y-294857D01*
X-119055Y-294951D01*
X-118942Y-295045D01*
X-118848Y-295121D01*
X-118792Y-295196D01*
X-118754Y-295233D01*
X-118735Y-295252D01*
X-118547Y-295515D01*
X-118397Y-295779D01*
X-118341Y-295891D01*
X-118322Y-295985D01*
X-118284Y-296042D01*
Y-296060D01*
X-118190Y-296418D01*
X-118171Y-296605D01*
X-118153Y-296756D01*
X-118134Y-296906D01*
Y-297019D01*
Y-297094D01*
Y-297113D01*
X-118153Y-297564D01*
X-118228Y-297959D01*
X-118322Y-298278D01*
X-118434Y-298542D01*
X-118528Y-298767D01*
X-118622Y-298917D01*
X-118698Y-298993D01*
X-118716Y-299030D01*
X-118961Y-299237D01*
X-119224Y-299387D01*
X-119506Y-299500D01*
X-119788Y-299575D01*
X-120013Y-299613D01*
X-120220Y-299632D01*
X-120295Y-299650D01*
X-120389D01*
X-120765Y-299613D01*
X-120934Y-299594D01*
X-121085Y-299556D01*
X-121198Y-299519D01*
X-121292Y-299500D01*
X-121348Y-299463D01*
X-121367D01*
X-121667Y-299293D01*
X-121799Y-299199D01*
X-121912Y-299124D01*
X-121987Y-299049D01*
X-122043Y-298974D01*
X-122081Y-298936D01*
X-122100Y-298917D01*
X-122306Y-298635D01*
X-122457Y-298372D01*
X-122494Y-298260D01*
X-122532Y-298165D01*
X-122570Y-298109D01*
Y-298090D01*
X-122664Y-297733D01*
X-122701Y-297545D01*
X-122720Y-297395D01*
X-122739Y-297244D01*
Y-297132D01*
Y-297057D01*
Y-297038D01*
X-122720Y-296587D01*
X-122645Y-296211D01*
X-122551Y-295891D01*
X-122438Y-295609D01*
X-122325Y-295403D01*
X-122231Y-295252D01*
X-122156Y-295177D01*
X-122137Y-295139D01*
X-121893Y-294914D01*
X-121630Y-294764D01*
X-121348Y-294651D01*
X-121085Y-294557D01*
X-120840Y-294519D01*
X-120634Y-294500D01*
X-120577Y-294482D01*
X-120258D01*
X-120070Y-294519D01*
D02*
G37*
G36*
X-67366Y-294331D02*
X-69527D01*
X-70016Y-294350D01*
X-70411Y-294406D01*
X-70768Y-294482D01*
X-71031Y-294557D01*
X-71256Y-294632D01*
X-71407Y-294707D01*
X-71482Y-294764D01*
X-71520Y-294782D01*
X-71726Y-294970D01*
X-71877Y-295177D01*
X-71990Y-295384D01*
X-72065Y-295609D01*
X-72102Y-295797D01*
X-72140Y-295948D01*
Y-296060D01*
Y-296079D01*
Y-296098D01*
X-72102Y-296399D01*
X-72027Y-296681D01*
X-71933Y-296906D01*
X-71802Y-297094D01*
X-71670Y-297244D01*
X-71576Y-297357D01*
X-71501Y-297432D01*
X-71463Y-297451D01*
X-71200Y-297602D01*
X-70881Y-297714D01*
X-70561Y-297808D01*
X-70241Y-297865D01*
X-69960Y-297902D01*
X-69847D01*
X-69734Y-297921D01*
X-69527D01*
X-69057Y-297902D01*
X-68851D01*
X-68644Y-297884D01*
X-68493D01*
X-68362Y-297865D01*
X-68249D01*
X-68024Y-297827D01*
X-67817Y-297808D01*
X-67629Y-297771D01*
X-67478Y-297733D01*
X-67347Y-297696D01*
X-67234Y-297677D01*
X-67178Y-297658D01*
X-67159D01*
Y-299463D01*
X-67347Y-299481D01*
X-67516Y-299519D01*
X-67591D01*
X-67629Y-299538D01*
X-67685D01*
X-67892Y-299556D01*
X-68080Y-299575D01*
X-68155Y-299594D01*
X-68268D01*
X-68493Y-299613D01*
X-68682Y-299632D01*
X-68757Y-299650D01*
X-68869D01*
X-69076Y-299669D01*
X-69433D01*
X-69828Y-299650D01*
X-70185Y-299632D01*
X-70524Y-299594D01*
X-70805Y-299538D01*
X-71050Y-299500D01*
X-71238Y-299463D01*
X-71294Y-299444D01*
X-71350D01*
X-71369Y-299425D01*
X-71388D01*
X-71708Y-299331D01*
X-72008Y-299218D01*
X-72271Y-299086D01*
X-72516Y-298974D01*
X-72685Y-298880D01*
X-72835Y-298786D01*
X-72911Y-298729D01*
X-72948Y-298711D01*
X-73174Y-298523D01*
X-73380Y-298335D01*
X-73568Y-298147D01*
X-73719Y-297959D01*
X-73832Y-297808D01*
X-73907Y-297677D01*
X-73963Y-297602D01*
X-73982Y-297564D01*
X-74113Y-297301D01*
X-74208Y-297019D01*
X-74264Y-296756D01*
X-74320Y-296511D01*
X-74339Y-296286D01*
X-74358Y-296117D01*
Y-296004D01*
Y-295985D01*
Y-295966D01*
X-74339Y-295609D01*
X-74302Y-295309D01*
X-74245Y-295027D01*
X-74189Y-294782D01*
X-74113Y-294594D01*
X-74057Y-294463D01*
X-74019Y-294387D01*
X-74001Y-294350D01*
X-73850Y-294124D01*
X-73700Y-293918D01*
X-73550Y-293748D01*
X-73399Y-293598D01*
X-73268Y-293485D01*
X-73155Y-293410D01*
X-73080Y-293354D01*
X-73061Y-293335D01*
X-72835Y-293203D01*
X-72610Y-293091D01*
X-72384Y-292997D01*
X-72159Y-292922D01*
X-71990Y-292884D01*
X-71839Y-292846D01*
X-71745Y-292809D01*
X-71708D01*
X-71125Y-292715D01*
X-70862Y-292677D01*
X-70617Y-292658D01*
X-70392Y-292640D01*
X-69302D01*
Y-290403D01*
X-73756D01*
Y-288448D01*
X-67366D01*
Y-294331D01*
D02*
G37*
G36*
X-105484D02*
X-107646D01*
X-108134Y-294350D01*
X-108529Y-294406D01*
X-108886Y-294482D01*
X-109149Y-294557D01*
X-109375Y-294632D01*
X-109525Y-294707D01*
X-109600Y-294764D01*
X-109638Y-294782D01*
X-109845Y-294970D01*
X-109995Y-295177D01*
X-110108Y-295384D01*
X-110183Y-295609D01*
X-110221Y-295797D01*
X-110258Y-295948D01*
Y-296060D01*
Y-296079D01*
Y-296098D01*
X-110221Y-296399D01*
X-110145Y-296681D01*
X-110051Y-296906D01*
X-109920Y-297094D01*
X-109788Y-297244D01*
X-109694Y-297357D01*
X-109619Y-297432D01*
X-109582Y-297451D01*
X-109318Y-297602D01*
X-108999Y-297714D01*
X-108679Y-297808D01*
X-108360Y-297865D01*
X-108078Y-297902D01*
X-107965D01*
X-107852Y-297921D01*
X-107646D01*
X-107176Y-297902D01*
X-106969D01*
X-106762Y-297884D01*
X-106612D01*
X-106480Y-297865D01*
X-106368D01*
X-106142Y-297827D01*
X-105935Y-297808D01*
X-105747Y-297771D01*
X-105597Y-297733D01*
X-105465Y-297696D01*
X-105352Y-297677D01*
X-105296Y-297658D01*
X-105277D01*
Y-299463D01*
X-105465Y-299481D01*
X-105634Y-299519D01*
X-105710D01*
X-105747Y-299538D01*
X-105804D01*
X-106010Y-299556D01*
X-106198Y-299575D01*
X-106273Y-299594D01*
X-106386D01*
X-106612Y-299613D01*
X-106800Y-299632D01*
X-106875Y-299650D01*
X-106988D01*
X-107194Y-299669D01*
X-107552D01*
X-107946Y-299650D01*
X-108303Y-299632D01*
X-108642Y-299594D01*
X-108924Y-299538D01*
X-109168Y-299500D01*
X-109356Y-299463D01*
X-109412Y-299444D01*
X-109469D01*
X-109488Y-299425D01*
X-109506D01*
X-109826Y-299331D01*
X-110127Y-299218D01*
X-110390Y-299086D01*
X-110634Y-298974D01*
X-110803Y-298880D01*
X-110954Y-298786D01*
X-111029Y-298729D01*
X-111067Y-298711D01*
X-111292Y-298523D01*
X-111499Y-298335D01*
X-111687Y-298147D01*
X-111837Y-297959D01*
X-111950Y-297808D01*
X-112025Y-297677D01*
X-112081Y-297602D01*
X-112100Y-297564D01*
X-112232Y-297301D01*
X-112326Y-297019D01*
X-112382Y-296756D01*
X-112439Y-296511D01*
X-112457Y-296286D01*
X-112476Y-296117D01*
Y-296004D01*
Y-295985D01*
Y-295966D01*
X-112457Y-295609D01*
X-112420Y-295309D01*
X-112363Y-295027D01*
X-112307Y-294782D01*
X-112232Y-294594D01*
X-112175Y-294463D01*
X-112138Y-294387D01*
X-112119Y-294350D01*
X-111969Y-294124D01*
X-111818Y-293918D01*
X-111668Y-293748D01*
X-111518Y-293598D01*
X-111386Y-293485D01*
X-111273Y-293410D01*
X-111198Y-293354D01*
X-111179Y-293335D01*
X-110954Y-293203D01*
X-110728Y-293091D01*
X-110503Y-292997D01*
X-110277Y-292922D01*
X-110108Y-292884D01*
X-109958Y-292846D01*
X-109864Y-292809D01*
X-109826D01*
X-109243Y-292715D01*
X-108980Y-292677D01*
X-108736Y-292658D01*
X-108510Y-292640D01*
X-107420D01*
Y-290403D01*
X-111875D01*
Y-288448D01*
X-105484D01*
Y-294331D01*
D02*
G37*
G36*
X864Y-302977D02*
X-8666D01*
Y-301342D01*
X864D01*
Y-302977D01*
D02*
G37*
G36*
X-37255D02*
X-46784D01*
Y-301342D01*
X-37255D01*
Y-302977D01*
D02*
G37*
G36*
X-108642Y-308279D02*
X-108548D01*
X-108473Y-308298D01*
X-108416D01*
X-108172Y-308316D01*
X-107946Y-308354D01*
X-107852Y-308373D01*
X-107777D01*
X-107740Y-308392D01*
X-107721D01*
X-107476Y-308429D01*
X-107251Y-308486D01*
X-107157Y-308504D01*
X-107082Y-308523D01*
X-107044Y-308542D01*
X-107025D01*
X-106781Y-308598D01*
X-106537Y-308655D01*
X-106443Y-308692D01*
X-106368Y-308711D01*
X-106330Y-308730D01*
X-106311D01*
Y-310459D01*
X-106800Y-310328D01*
X-107025Y-310252D01*
X-107232Y-310215D01*
X-107382Y-310177D01*
X-107514Y-310140D01*
X-107608Y-310121D01*
X-107627D01*
X-108097Y-310046D01*
X-108322Y-310027D01*
X-108529Y-310008D01*
X-108698Y-309989D01*
X-108942D01*
X-109262Y-310008D01*
X-109544Y-310046D01*
X-109769Y-310102D01*
X-109958Y-310158D01*
X-110108Y-310234D01*
X-110221Y-310290D01*
X-110277Y-310328D01*
X-110296Y-310346D01*
X-110446Y-310497D01*
X-110559Y-310666D01*
X-110634Y-310835D01*
X-110690Y-311004D01*
X-110728Y-311155D01*
X-110747Y-311267D01*
Y-311343D01*
Y-311380D01*
X-110728Y-311606D01*
X-110690Y-311812D01*
X-110672Y-311888D01*
X-110653Y-311944D01*
X-110634Y-311982D01*
Y-312000D01*
X-110521Y-312207D01*
X-110409Y-312376D01*
X-110296Y-312489D01*
X-110277Y-312508D01*
X-110258Y-312527D01*
X-110033Y-312677D01*
X-109807Y-312790D01*
X-109713Y-312827D01*
X-109638Y-312865D01*
X-109582Y-312884D01*
X-109563D01*
X-109394Y-312921D01*
X-109206Y-312940D01*
X-109037Y-312978D01*
X-108848D01*
X-108698Y-312997D01*
X-107345D01*
Y-314576D01*
X-108811D01*
X-109055Y-314594D01*
X-109262Y-314613D01*
X-109431Y-314632D01*
X-109582Y-314669D01*
X-109676Y-314688D01*
X-109751Y-314707D01*
X-109769D01*
X-109958Y-314745D01*
X-110108Y-314801D01*
X-110258Y-314857D01*
X-110371Y-314914D01*
X-110465Y-314951D01*
X-110540Y-314989D01*
X-110578Y-315008D01*
X-110597Y-315027D01*
X-110822Y-315196D01*
X-110972Y-315365D01*
X-111029Y-315421D01*
X-111067Y-315478D01*
X-111104Y-315515D01*
Y-315534D01*
X-111198Y-315760D01*
X-111254Y-315966D01*
X-111273Y-316060D01*
Y-316136D01*
Y-316173D01*
Y-316192D01*
X-111254Y-316474D01*
X-111217Y-316605D01*
X-111198Y-316718D01*
X-111160Y-316812D01*
X-111123Y-316887D01*
X-111104Y-316925D01*
Y-316944D01*
X-110972Y-317169D01*
X-110803Y-317339D01*
X-110728Y-317395D01*
X-110672Y-317451D01*
X-110634Y-317470D01*
X-110615Y-317489D01*
X-110352Y-317639D01*
X-110089Y-317733D01*
X-109958Y-317771D01*
X-109882Y-317808D01*
X-109807Y-317827D01*
X-109788D01*
X-109394Y-317884D01*
X-109187Y-317921D01*
X-108999D01*
X-108830Y-317940D01*
X-108322D01*
X-108059Y-317921D01*
X-107815D01*
X-107608Y-317902D01*
X-107439D01*
X-107307Y-317884D01*
X-107194D01*
X-106950Y-317865D01*
X-106725Y-317827D01*
X-106537Y-317808D01*
X-106349Y-317771D01*
X-106217Y-317752D01*
X-106104Y-317733D01*
X-106029Y-317714D01*
X-106010D01*
Y-319500D01*
X-106180Y-319519D01*
X-106368Y-319538D01*
X-106424Y-319556D01*
X-106537D01*
X-106762Y-319575D01*
X-106950Y-319594D01*
X-107025Y-319613D01*
X-107138D01*
X-107382Y-319632D01*
X-107570D01*
X-107664Y-319650D01*
X-107777D01*
X-108003Y-319669D01*
X-108379D01*
X-108848Y-319650D01*
X-109281Y-319632D01*
X-109657Y-319594D01*
X-109976Y-319538D01*
X-110258Y-319500D01*
X-110446Y-319463D01*
X-110521Y-319444D01*
X-110578D01*
X-110597Y-319425D01*
X-110615D01*
X-110954Y-319331D01*
X-111273Y-319218D01*
X-111536Y-319105D01*
X-111762Y-318993D01*
X-111950Y-318880D01*
X-112081Y-318805D01*
X-112175Y-318748D01*
X-112194Y-318729D01*
X-112420Y-318542D01*
X-112608Y-318354D01*
X-112777Y-318165D01*
X-112908Y-317996D01*
X-113002Y-317827D01*
X-113078Y-317714D01*
X-113115Y-317639D01*
X-113134Y-317602D01*
X-113247Y-317357D01*
X-113322Y-317094D01*
X-113378Y-316850D01*
X-113416Y-316624D01*
X-113435Y-316418D01*
X-113454Y-316267D01*
Y-316173D01*
Y-316136D01*
X-113435Y-315760D01*
X-113397Y-315609D01*
X-113378Y-315459D01*
X-113341Y-315346D01*
X-113303Y-315271D01*
X-113284Y-315215D01*
Y-315196D01*
X-113134Y-314895D01*
X-113059Y-314764D01*
X-112984Y-314651D01*
X-112908Y-314576D01*
X-112852Y-314500D01*
X-112815Y-314463D01*
X-112796Y-314444D01*
X-112551Y-314218D01*
X-112326Y-314068D01*
X-112213Y-313993D01*
X-112138Y-313955D01*
X-112081Y-313918D01*
X-112063D01*
X-111743Y-313786D01*
X-111574Y-313730D01*
X-111424Y-313692D01*
X-111292Y-313654D01*
X-111198Y-313636D01*
X-111123Y-313617D01*
X-111104D01*
X-111405Y-313485D01*
X-111649Y-313316D01*
X-111875Y-313166D01*
X-112063Y-313015D01*
X-112213Y-312865D01*
X-112307Y-312752D01*
X-112382Y-312677D01*
X-112401Y-312658D01*
X-112551Y-312414D01*
X-112664Y-312151D01*
X-112758Y-311869D01*
X-112815Y-311625D01*
X-112852Y-311380D01*
X-112871Y-311211D01*
Y-311136D01*
Y-311079D01*
Y-311061D01*
Y-311042D01*
X-112852Y-310816D01*
X-112833Y-310591D01*
X-112796Y-310403D01*
X-112758Y-310234D01*
X-112702Y-310083D01*
X-112664Y-309989D01*
X-112645Y-309914D01*
X-112626Y-309895D01*
X-112533Y-309707D01*
X-112420Y-309538D01*
X-112288Y-309388D01*
X-112175Y-309256D01*
X-112081Y-309144D01*
X-111987Y-309068D01*
X-111931Y-309031D01*
X-111912Y-309012D01*
X-111724Y-308880D01*
X-111536Y-308768D01*
X-111330Y-308674D01*
X-111160Y-308598D01*
X-110991Y-308542D01*
X-110860Y-308504D01*
X-110785Y-308467D01*
X-110747D01*
X-110484Y-308392D01*
X-110221Y-308354D01*
X-109958Y-308316D01*
X-109713Y-308279D01*
X-109488D01*
X-109318Y-308260D01*
X-108886D01*
X-108642Y-308279D01*
D02*
G37*
G36*
X-48607Y-310215D02*
X-49284Y-311906D01*
X-51746Y-310572D01*
Y-317658D01*
X-48927D01*
Y-319500D01*
X-56295Y-319500D01*
Y-317658D01*
X-53870Y-317658D01*
Y-308373D01*
X-52122D01*
X-48607Y-310215D01*
D02*
G37*
G36*
X-116574Y-307414D02*
X-116404Y-307433D01*
X-116254Y-307471D01*
X-116141Y-307508D01*
X-116047Y-307546D01*
X-115991Y-307565D01*
X-115972Y-307583D01*
X-115672Y-307752D01*
X-115559Y-307847D01*
X-115446Y-307941D01*
X-115352Y-308016D01*
X-115296Y-308091D01*
X-115258Y-308129D01*
X-115239Y-308147D01*
X-115051Y-308410D01*
X-114901Y-308692D01*
X-114844Y-308805D01*
X-114826Y-308899D01*
X-114788Y-308955D01*
Y-308974D01*
X-114694Y-309331D01*
X-114675Y-309501D01*
X-114656Y-309670D01*
X-114638Y-309801D01*
Y-309914D01*
Y-309989D01*
Y-310008D01*
X-114656Y-310459D01*
X-114732Y-310835D01*
X-114826Y-311155D01*
X-114938Y-311437D01*
X-115032Y-311643D01*
X-115126Y-311794D01*
X-115202Y-311869D01*
X-115220Y-311907D01*
X-115465Y-312113D01*
X-115728Y-312282D01*
X-116010Y-312395D01*
X-116292Y-312470D01*
X-116517Y-312508D01*
X-116724Y-312527D01*
X-116799Y-312546D01*
X-116893D01*
X-117269Y-312508D01*
X-117438Y-312489D01*
X-117589Y-312451D01*
X-117701Y-312414D01*
X-117795Y-312395D01*
X-117852Y-312358D01*
X-117871D01*
X-118171Y-312188D01*
X-118303Y-312094D01*
X-118416Y-312019D01*
X-118491Y-311944D01*
X-118547Y-311869D01*
X-118585Y-311831D01*
X-118604Y-311812D01*
X-118810Y-311530D01*
X-118961Y-311267D01*
X-118998Y-311155D01*
X-119036Y-311061D01*
X-119073Y-311004D01*
Y-310986D01*
X-119167Y-310628D01*
X-119205Y-310440D01*
X-119224Y-310290D01*
X-119243Y-310140D01*
Y-310027D01*
Y-309952D01*
Y-309933D01*
X-119224Y-309482D01*
X-119149Y-309106D01*
X-119055Y-308786D01*
X-118942Y-308504D01*
X-118829Y-308298D01*
X-118735Y-308147D01*
X-118660Y-308072D01*
X-118641Y-308034D01*
X-118397Y-307809D01*
X-118134Y-307659D01*
X-117852Y-307546D01*
X-117589Y-307452D01*
X-117344Y-307414D01*
X-117138Y-307395D01*
X-117081Y-307377D01*
X-116762D01*
X-116574Y-307414D01*
D02*
G37*
G36*
X18250Y-319500D02*
X16164D01*
Y-314688D01*
X12405D01*
Y-319500D01*
X10318D01*
Y-308448D01*
X12405D01*
Y-312884D01*
X16164D01*
Y-308448D01*
X18250D01*
Y-319500D01*
D02*
G37*
G36*
X-86575Y-319500D02*
X-88662D01*
Y-314688D01*
X-92421D01*
Y-319500D01*
X-94507D01*
Y-308448D01*
X-92421D01*
Y-312884D01*
X-88662D01*
Y-308448D01*
X-86575D01*
Y-319500D01*
D02*
G37*
G36*
X-71031Y-308279D02*
X-70730Y-308298D01*
X-70448Y-308354D01*
X-70204Y-308392D01*
X-69997Y-308448D01*
X-69847Y-308504D01*
X-69753Y-308523D01*
X-69715Y-308542D01*
X-69452Y-308655D01*
X-69208Y-308768D01*
X-68982Y-308899D01*
X-68794Y-309012D01*
X-68644Y-309125D01*
X-68531Y-309219D01*
X-68456Y-309275D01*
X-68437Y-309294D01*
X-68249Y-309482D01*
X-68080Y-309670D01*
X-67948Y-309876D01*
X-67836Y-310046D01*
X-67742Y-310215D01*
X-67667Y-310346D01*
X-67629Y-310422D01*
X-67610Y-310459D01*
X-67516Y-310722D01*
X-67441Y-310986D01*
X-67385Y-311230D01*
X-67347Y-311455D01*
X-67328Y-311662D01*
X-67309Y-311831D01*
Y-311925D01*
Y-311944D01*
Y-311963D01*
X-67328Y-312301D01*
X-67347Y-312602D01*
X-67385Y-312865D01*
X-67441Y-313091D01*
X-67478Y-313279D01*
X-67516Y-313410D01*
X-67535Y-313485D01*
X-67554Y-313523D01*
X-67667Y-313748D01*
X-67779Y-313955D01*
X-67911Y-314143D01*
X-68024Y-314294D01*
X-68118Y-314406D01*
X-68212Y-314500D01*
X-68268Y-314557D01*
X-68287Y-314576D01*
X-68475Y-314726D01*
X-68682Y-314839D01*
X-68869Y-314951D01*
X-69039Y-315027D01*
X-69208Y-315102D01*
X-69321Y-315139D01*
X-69396Y-315158D01*
X-69433Y-315177D01*
X-69960Y-315271D01*
X-70204Y-315308D01*
X-70430Y-315327D01*
X-70636D01*
X-70787Y-315346D01*
X-70918D01*
X-71350Y-315327D01*
X-71539Y-315308D01*
X-71708Y-315271D01*
X-71858Y-315252D01*
X-71971Y-315233D01*
X-72046Y-315215D01*
X-72065D01*
X-72271Y-315158D01*
X-72478Y-315102D01*
X-72647Y-315045D01*
X-72798Y-314989D01*
X-72929Y-314933D01*
X-73023Y-314895D01*
X-73080Y-314857D01*
X-73099D01*
X-73080Y-315083D01*
X-73042Y-315327D01*
X-73005Y-315534D01*
X-72967Y-315741D01*
X-72911Y-315910D01*
X-72873Y-316060D01*
X-72835Y-316154D01*
X-72817Y-316229D01*
X-72798Y-316248D01*
X-72723Y-316418D01*
X-72629Y-316587D01*
X-72535Y-316718D01*
X-72422Y-316850D01*
X-72347Y-316944D01*
X-72271Y-317019D01*
X-72215Y-317057D01*
X-72196Y-317075D01*
X-72027Y-317188D01*
X-71858Y-317282D01*
X-71670Y-317376D01*
X-71501Y-317432D01*
X-71350Y-317489D01*
X-71238Y-317526D01*
X-71163Y-317564D01*
X-71125D01*
X-70862Y-317620D01*
X-70599Y-317658D01*
X-70317Y-317696D01*
X-70054Y-317714D01*
X-69828D01*
X-69640Y-317733D01*
X-67967D01*
Y-319500D01*
X-69546D01*
X-69847Y-319481D01*
X-70110D01*
X-70354Y-319463D01*
X-70561Y-319444D01*
X-70711D01*
X-70805Y-319425D01*
X-70843D01*
X-71125Y-319387D01*
X-71388Y-319331D01*
X-71632Y-319275D01*
X-71858Y-319218D01*
X-72027Y-319162D01*
X-72178Y-319124D01*
X-72253Y-319105D01*
X-72290Y-319086D01*
X-72535Y-318974D01*
X-72779Y-318861D01*
X-72986Y-318748D01*
X-73174Y-318635D01*
X-73324Y-318542D01*
X-73437Y-318466D01*
X-73512Y-318410D01*
X-73531Y-318391D01*
X-73738Y-318203D01*
X-73926Y-318015D01*
X-74076Y-317827D01*
X-74226Y-317658D01*
X-74339Y-317508D01*
X-74414Y-317376D01*
X-74471Y-317301D01*
X-74489Y-317263D01*
X-74640Y-317000D01*
X-74771Y-316718D01*
X-74865Y-316436D01*
X-74959Y-316173D01*
X-75034Y-315948D01*
X-75091Y-315778D01*
X-75110Y-315703D01*
Y-315647D01*
X-75128Y-315628D01*
Y-315609D01*
X-75204Y-315233D01*
X-75260Y-314839D01*
X-75298Y-314463D01*
X-75335Y-314106D01*
Y-313805D01*
X-75354Y-313673D01*
Y-313561D01*
Y-313466D01*
Y-313391D01*
Y-313354D01*
Y-313335D01*
X-75335Y-312809D01*
X-75317Y-312339D01*
X-75260Y-311925D01*
X-75204Y-311587D01*
X-75147Y-311286D01*
X-75128Y-311173D01*
X-75110Y-311079D01*
X-75091Y-311004D01*
X-75072Y-310948D01*
X-75053Y-310929D01*
Y-310910D01*
X-74941Y-310553D01*
X-74790Y-310252D01*
X-74659Y-309989D01*
X-74527Y-309764D01*
X-74395Y-309595D01*
X-74302Y-309463D01*
X-74226Y-309369D01*
X-74208Y-309350D01*
X-74001Y-309144D01*
X-73775Y-308974D01*
X-73568Y-308824D01*
X-73362Y-308711D01*
X-73193Y-308636D01*
X-73061Y-308561D01*
X-72967Y-308542D01*
X-72929Y-308523D01*
X-72647Y-308429D01*
X-72365Y-308373D01*
X-72102Y-308316D01*
X-71858Y-308298D01*
X-71651Y-308279D01*
X-71501Y-308260D01*
X-71350D01*
X-71031Y-308279D01*
D02*
G37*
G36*
X-19849Y-319500D02*
X-21748D01*
Y-316079D01*
Y-311493D01*
X-22349Y-312921D01*
X-25300Y-319500D01*
X-27857D01*
Y-308448D01*
X-25958D01*
Y-311512D01*
Y-316380D01*
X-25413Y-315102D01*
X-22406Y-308448D01*
X-19849D01*
Y-319500D01*
D02*
G37*
G36*
X-99131Y-312132D02*
X-96180D01*
Y-313730D01*
X-99131D01*
Y-316699D01*
X-101011D01*
Y-313730D01*
X-103962D01*
Y-312132D01*
X-101011D01*
Y-309125D01*
X-99131D01*
Y-312132D01*
D02*
G37*
G36*
X-77403Y-316681D02*
Y-316925D01*
X-77422Y-317150D01*
X-77459Y-317376D01*
X-77478Y-317545D01*
X-77516Y-317714D01*
X-77534Y-317827D01*
X-77553Y-317902D01*
Y-317921D01*
X-77628Y-318109D01*
X-77704Y-318297D01*
X-77779Y-318466D01*
X-77854Y-318598D01*
X-77929Y-318711D01*
X-77986Y-318805D01*
X-78023Y-318861D01*
X-78042Y-318880D01*
X-78324Y-319143D01*
X-78587Y-319331D01*
X-78700Y-319387D01*
X-78794Y-319444D01*
X-78850Y-319463D01*
X-78869Y-319481D01*
X-79057Y-319556D01*
X-79264Y-319594D01*
X-79470Y-319632D01*
X-79640Y-319669D01*
X-79809D01*
X-79921Y-319688D01*
X-80034D01*
X-80373Y-319669D01*
X-80504Y-319650D01*
X-80636Y-319632D01*
X-80730Y-319613D01*
X-80824Y-319594D01*
X-80861Y-319575D01*
X-80880D01*
X-81162Y-319500D01*
X-81388Y-319406D01*
X-81482Y-319350D01*
X-81538Y-319331D01*
X-81575Y-319293D01*
X-81594D01*
X-81839Y-319143D01*
X-82027Y-318993D01*
X-82102Y-318936D01*
X-82158Y-318880D01*
X-82177Y-318861D01*
X-82196Y-318842D01*
X-82403Y-318635D01*
X-82591Y-318429D01*
X-82647Y-318354D01*
X-82703Y-318297D01*
X-82741Y-318260D01*
X-82760Y-318241D01*
X-82797Y-319500D01*
X-84602D01*
Y-310910D01*
X-82534D01*
Y-316342D01*
X-82327Y-316605D01*
X-82139Y-316831D01*
X-81970Y-317038D01*
X-81820Y-317207D01*
X-81688Y-317339D01*
X-81594Y-317432D01*
X-81519Y-317489D01*
X-81500Y-317508D01*
X-81331Y-317639D01*
X-81143Y-317752D01*
X-80993Y-317827D01*
X-80843Y-317865D01*
X-80711Y-317902D01*
X-80617Y-317921D01*
X-80523D01*
X-80335Y-317902D01*
X-80166Y-317865D01*
X-80034Y-317808D01*
X-79921Y-317733D01*
X-79827Y-317677D01*
X-79771Y-317620D01*
X-79734Y-317583D01*
X-79715Y-317564D01*
X-79640Y-317414D01*
X-79583Y-317244D01*
X-79508Y-316906D01*
X-79489Y-316756D01*
X-79470Y-316624D01*
Y-316549D01*
Y-316511D01*
Y-310910D01*
X-77403D01*
Y-316681D01*
D02*
G37*
G36*
X7969Y-319500D02*
X5845D01*
Y-314970D01*
X1672D01*
Y-313260D01*
X5845D01*
Y-310215D01*
X1428D01*
Y-308448D01*
X7969D01*
Y-319500D01*
D02*
G37*
G36*
X-9568D02*
X-11636D01*
X-12256Y-317320D01*
X-16109D01*
X-16729Y-319500D01*
X-19022D01*
X-15752Y-308448D01*
X-12839D01*
X-9568Y-319500D01*
D02*
G37*
G36*
X-29266Y-310177D02*
X-32292D01*
Y-319500D01*
X-34416D01*
Y-310177D01*
X-37443D01*
Y-308448D01*
X-29266D01*
Y-310177D01*
D02*
G37*
G36*
X-96424Y-319500D02*
X-103717D01*
Y-317865D01*
X-96424D01*
Y-319500D01*
D02*
G37*
G36*
X-114356D02*
X-116029D01*
X-123885Y-307546D01*
X-122212D01*
X-114356Y-319500D01*
D02*
G37*
G36*
X-120934Y-314519D02*
X-120765Y-314538D01*
X-120615Y-314576D01*
X-120502Y-314613D01*
X-120408Y-314651D01*
X-120352Y-314669D01*
X-120333Y-314688D01*
X-120032Y-314857D01*
X-119919Y-314951D01*
X-119807Y-315045D01*
X-119713Y-315121D01*
X-119656Y-315196D01*
X-119619Y-315233D01*
X-119600Y-315252D01*
X-119412Y-315515D01*
X-119262Y-315778D01*
X-119205Y-315891D01*
X-119186Y-315985D01*
X-119149Y-316042D01*
Y-316060D01*
X-119055Y-316418D01*
X-119036Y-316605D01*
X-119017Y-316756D01*
X-118998Y-316906D01*
Y-317019D01*
Y-317094D01*
Y-317113D01*
X-119017Y-317564D01*
X-119092Y-317959D01*
X-119186Y-318278D01*
X-119299Y-318542D01*
X-119393Y-318767D01*
X-119487Y-318917D01*
X-119562Y-318993D01*
X-119581Y-319030D01*
X-119825Y-319237D01*
X-120089Y-319387D01*
X-120371Y-319500D01*
X-120652Y-319575D01*
X-120878Y-319613D01*
X-121085Y-319632D01*
X-121160Y-319650D01*
X-121254D01*
X-121630Y-319613D01*
X-121799Y-319594D01*
X-121949Y-319556D01*
X-122062Y-319519D01*
X-122156Y-319500D01*
X-122212Y-319463D01*
X-122231D01*
X-122532Y-319293D01*
X-122664Y-319199D01*
X-122776Y-319124D01*
X-122851Y-319049D01*
X-122908Y-318974D01*
X-122945Y-318936D01*
X-122964Y-318917D01*
X-123171Y-318635D01*
X-123321Y-318372D01*
X-123359Y-318260D01*
X-123397Y-318165D01*
X-123434Y-318109D01*
Y-318090D01*
X-123528Y-317733D01*
X-123566Y-317545D01*
X-123585Y-317395D01*
X-123603Y-317244D01*
Y-317132D01*
Y-317057D01*
Y-317038D01*
X-123585Y-316587D01*
X-123509Y-316211D01*
X-123415Y-315891D01*
X-123303Y-315609D01*
X-123190Y-315403D01*
X-123096Y-315252D01*
X-123021Y-315177D01*
X-123002Y-315139D01*
X-122758Y-314914D01*
X-122494Y-314764D01*
X-122212Y-314651D01*
X-121949Y-314557D01*
X-121705Y-314519D01*
X-121498Y-314500D01*
X-121442Y-314482D01*
X-121122D01*
X-120934Y-314519D01*
D02*
G37*
G36*
X-61633Y-316399D02*
X-61426Y-316436D01*
X-61351Y-316474D01*
X-61295Y-316493D01*
X-61257Y-316511D01*
X-61238D01*
X-61031Y-316624D01*
X-60862Y-316737D01*
X-60750Y-316831D01*
X-60731Y-316850D01*
X-60712Y-316869D01*
X-60580Y-317057D01*
X-60468Y-317226D01*
X-60430Y-317301D01*
X-60392Y-317357D01*
X-60374Y-317395D01*
Y-317414D01*
X-60317Y-317639D01*
X-60280Y-317846D01*
X-60261Y-317921D01*
Y-317996D01*
Y-318034D01*
Y-318053D01*
X-60280Y-318297D01*
X-60317Y-318504D01*
X-60336Y-318579D01*
X-60355Y-318635D01*
X-60374Y-318673D01*
Y-318692D01*
X-60486Y-318899D01*
X-60599Y-319068D01*
X-60674Y-319181D01*
X-60712Y-319199D01*
Y-319218D01*
X-60881Y-319368D01*
X-61069Y-319463D01*
X-61125Y-319500D01*
X-61182Y-319538D01*
X-61220Y-319556D01*
X-61238D01*
X-61464Y-319632D01*
X-61671Y-319669D01*
X-61746Y-319688D01*
X-61877D01*
X-62140Y-319669D01*
X-62347Y-319613D01*
X-62422Y-319594D01*
X-62479Y-319575D01*
X-62516Y-319556D01*
X-62535D01*
X-62742Y-319463D01*
X-62911Y-319350D01*
X-63024Y-319256D01*
X-63043Y-319218D01*
X-63061D01*
X-63212Y-319049D01*
X-63325Y-318861D01*
X-63362Y-318805D01*
X-63400Y-318748D01*
X-63419Y-318711D01*
Y-318692D01*
X-63494Y-318466D01*
X-63531Y-318260D01*
X-63550Y-318184D01*
Y-318109D01*
Y-318072D01*
Y-318053D01*
X-63531Y-317808D01*
X-63494Y-317602D01*
X-63456Y-317526D01*
X-63437Y-317470D01*
X-63419Y-317432D01*
Y-317414D01*
X-63306Y-317188D01*
X-63193Y-317019D01*
X-63099Y-316906D01*
X-63080Y-316887D01*
X-63061Y-316869D01*
X-62892Y-316718D01*
X-62723Y-316605D01*
X-62648Y-316568D01*
X-62592Y-316530D01*
X-62554Y-316511D01*
X-62535D01*
X-62310Y-316436D01*
X-62103Y-316399D01*
X-62009Y-316380D01*
X-61877D01*
X-61633Y-316399D01*
D02*
G37*
G36*
X-1Y-322977D02*
X-9531D01*
Y-321342D01*
X-1D01*
Y-322977D01*
D02*
G37*
G36*
X-38119D02*
X-47649D01*
Y-321342D01*
X-38119D01*
Y-322977D01*
D02*
G37*
%LPC*%
G36*
X-82218Y-348858D02*
X-82312D01*
X-82576Y-348876D01*
X-82801Y-348895D01*
X-82895Y-348914D01*
X-82970D01*
X-83008Y-348933D01*
X-83027D01*
X-83271Y-348970D01*
X-83478Y-349027D01*
X-83553Y-349045D01*
X-83609Y-349064D01*
X-83628Y-349083D01*
X-83647D01*
Y-352842D01*
X-83440Y-353106D01*
X-83252Y-353331D01*
X-83083Y-353538D01*
X-82933Y-353707D01*
X-82801Y-353839D01*
X-82707Y-353932D01*
X-82651Y-353989D01*
X-82632Y-354008D01*
X-82463Y-354139D01*
X-82275Y-354252D01*
X-82106Y-354327D01*
X-81955Y-354365D01*
X-81824Y-354402D01*
X-81730Y-354421D01*
X-81636D01*
X-81391Y-354402D01*
X-81185Y-354346D01*
X-81110Y-354327D01*
X-81053Y-354308D01*
X-81016Y-354290D01*
X-80997D01*
X-80809Y-354158D01*
X-80658Y-353989D01*
X-80564Y-353876D01*
X-80527Y-353839D01*
Y-353820D01*
X-80395Y-353538D01*
X-80320Y-353275D01*
X-80282Y-353162D01*
X-80264Y-353068D01*
X-80245Y-353012D01*
Y-352993D01*
X-80207Y-352786D01*
X-80189Y-352579D01*
X-80170Y-352391D01*
Y-352184D01*
X-80151Y-352015D01*
Y-351884D01*
Y-351809D01*
Y-351771D01*
Y-351527D01*
X-80170Y-351301D01*
X-80207Y-351094D01*
X-80226Y-350906D01*
X-80264Y-350775D01*
X-80282Y-350662D01*
X-80301Y-350587D01*
Y-350568D01*
X-80358Y-350380D01*
X-80433Y-350192D01*
X-80508Y-350042D01*
X-80583Y-349910D01*
X-80640Y-349797D01*
X-80696Y-349722D01*
X-80715Y-349666D01*
X-80733Y-349647D01*
X-80959Y-349403D01*
X-81185Y-349215D01*
X-81279Y-349158D01*
X-81354Y-349102D01*
X-81391Y-349064D01*
X-81410D01*
X-81561Y-348989D01*
X-81711Y-348951D01*
X-82012Y-348876D01*
X-82124D01*
X-82218Y-348858D01*
D02*
G37*
G36*
X-186950Y-350812D02*
X-187119D01*
X-187438Y-350831D01*
X-187589Y-350850D01*
X-187702Y-350869D01*
X-187796Y-350906D01*
X-187871Y-350925D01*
X-187908Y-350944D01*
X-187927D01*
X-188153Y-351057D01*
X-188322Y-351188D01*
X-188435Y-351282D01*
X-188472Y-351301D01*
Y-351320D01*
X-188623Y-351508D01*
X-188717Y-351677D01*
X-188754Y-351771D01*
X-188773Y-351827D01*
X-188792Y-351865D01*
Y-351884D01*
X-188867Y-352128D01*
X-188886Y-352354D01*
X-188904Y-352448D01*
Y-352523D01*
Y-352579D01*
Y-352598D01*
X-188886Y-352880D01*
X-188867Y-353012D01*
X-188848Y-353124D01*
X-188811Y-353218D01*
X-188792Y-353293D01*
X-188773Y-353331D01*
Y-353350D01*
X-188660Y-353594D01*
X-188529Y-353782D01*
X-188491Y-353857D01*
X-188435Y-353895D01*
X-188416Y-353932D01*
X-188397Y-353951D01*
X-188209Y-354120D01*
X-188040Y-354233D01*
X-187946Y-354271D01*
X-187889Y-354308D01*
X-187852Y-354327D01*
X-187833D01*
X-187589Y-354402D01*
X-187344Y-354440D01*
X-187250Y-354459D01*
X-187100D01*
X-186781Y-354440D01*
X-186630Y-354402D01*
X-186517Y-354384D01*
X-186405Y-354346D01*
X-186329Y-354327D01*
X-186292Y-354308D01*
X-186273D01*
X-186141Y-354233D01*
X-186029Y-354158D01*
X-185841Y-353970D01*
X-185766Y-353895D01*
X-185709Y-353820D01*
X-185690Y-353782D01*
X-185672Y-353763D01*
X-185578Y-353613D01*
X-185521Y-353463D01*
X-185408Y-353143D01*
X-185371Y-353012D01*
X-185333Y-352899D01*
X-185315Y-352823D01*
Y-352805D01*
X-185277Y-352579D01*
X-185258Y-352335D01*
X-185221Y-352090D01*
Y-351865D01*
X-185202Y-351658D01*
Y-351508D01*
Y-351395D01*
Y-351357D01*
X-185333Y-351282D01*
X-185465Y-351226D01*
X-185559Y-351188D01*
X-185578Y-351170D01*
X-185596D01*
X-185766Y-351094D01*
X-185916Y-351057D01*
X-186029Y-351019D01*
X-186047Y-351000D01*
X-186066D01*
X-186254Y-350944D01*
X-186405Y-350906D01*
X-186536Y-350869D01*
X-186574D01*
X-186781Y-350831D01*
X-186950Y-350812D01*
D02*
G37*
G36*
X-138663Y-345700D02*
X-138776D01*
X-138982Y-345719D01*
X-139133Y-345756D01*
X-139246Y-345794D01*
X-139264Y-345813D01*
X-139283D01*
X-139433Y-345888D01*
X-139565Y-345982D01*
X-139640Y-346038D01*
X-139659Y-346076D01*
X-139753Y-346207D01*
X-139828Y-346339D01*
X-139866Y-346433D01*
X-139885Y-346452D01*
Y-346470D01*
X-139941Y-346621D01*
X-139960Y-346771D01*
X-139979Y-346865D01*
Y-346884D01*
Y-346903D01*
X-139960Y-347128D01*
X-139922Y-347316D01*
X-139885Y-347392D01*
X-139866Y-347448D01*
X-139847Y-347467D01*
Y-347486D01*
X-139734Y-347673D01*
X-139621Y-347824D01*
X-139527Y-347937D01*
X-139509Y-347955D01*
X-139490Y-347974D01*
X-139321Y-348143D01*
X-139151Y-348275D01*
X-139095Y-348331D01*
X-139039Y-348369D01*
X-139001Y-348388D01*
X-138982Y-348406D01*
X-138776Y-348538D01*
X-138569Y-348670D01*
X-138494Y-348726D01*
X-138437Y-348764D01*
X-138400Y-348782D01*
X-138381Y-348801D01*
X-138362Y-348764D01*
X-138118Y-348425D01*
X-138005Y-348275D01*
X-137930Y-348143D01*
X-137855Y-348031D01*
X-137798Y-347955D01*
X-137779Y-347899D01*
X-137761Y-347880D01*
X-137685Y-347730D01*
X-137648Y-347561D01*
X-137610Y-347429D01*
X-137573Y-347298D01*
Y-347185D01*
X-137554Y-347091D01*
Y-347034D01*
Y-347016D01*
X-137573Y-346828D01*
X-137591Y-346677D01*
X-137610Y-346564D01*
X-137629Y-346546D01*
Y-346527D01*
X-137704Y-346358D01*
X-137779Y-346226D01*
X-137836Y-346151D01*
X-137855Y-346113D01*
X-137986Y-345982D01*
X-138118Y-345888D01*
X-138212Y-345831D01*
X-138230Y-345813D01*
X-138249D01*
X-138419Y-345737D01*
X-138606Y-345719D01*
X-138663Y-345700D01*
D02*
G37*
G36*
X-137761Y-351000D02*
X-140185Y-353970D01*
X-139941Y-354158D01*
X-139697Y-354290D01*
X-139603Y-354327D01*
X-139527Y-354365D01*
X-139471Y-354384D01*
X-139452D01*
X-139151Y-354459D01*
X-138888Y-354496D01*
X-138776Y-354515D01*
X-138606D01*
X-138324Y-354496D01*
X-138099Y-354459D01*
X-138005Y-354440D01*
X-137930Y-354421D01*
X-137892Y-354402D01*
X-137873D01*
X-137648Y-354290D01*
X-137479Y-354177D01*
X-137403Y-354139D01*
X-137347Y-354102D01*
X-137328Y-354064D01*
X-137310D01*
X-137159Y-353895D01*
X-137046Y-353707D01*
X-137009Y-353651D01*
X-136971Y-353594D01*
X-136952Y-353557D01*
Y-353538D01*
X-136896Y-353293D01*
X-136858Y-353068D01*
X-136840Y-352974D01*
Y-352899D01*
Y-352861D01*
Y-352842D01*
X-136858Y-352617D01*
X-136877Y-352410D01*
X-136915Y-352241D01*
X-136971Y-352090D01*
X-137009Y-351959D01*
X-137046Y-351865D01*
X-137065Y-351809D01*
X-137084Y-351790D01*
X-137310Y-351489D01*
X-137422Y-351357D01*
X-137516Y-351226D01*
X-137610Y-351132D01*
X-137685Y-351057D01*
X-137742Y-351019D01*
X-137761Y-351000D01*
D02*
G37*
G36*
X3698Y-348764D02*
X3566D01*
X3303Y-348782D01*
X3097Y-348820D01*
X3021Y-348857D01*
X2965Y-348876D01*
X2928Y-348895D01*
X2909D01*
X2683Y-348989D01*
X2514Y-349121D01*
X2401Y-349215D01*
X2382Y-349234D01*
X2364Y-349252D01*
X2194Y-349459D01*
X2082Y-349647D01*
X2044Y-349741D01*
X2006Y-349816D01*
X1988Y-349854D01*
Y-349873D01*
X1912Y-350173D01*
X1875Y-350436D01*
X1856Y-350568D01*
Y-350662D01*
Y-350718D01*
Y-350737D01*
X5427D01*
X5371Y-350399D01*
X5296Y-350117D01*
X5202Y-349873D01*
X5108Y-349666D01*
X4995Y-349497D01*
X4920Y-349384D01*
X4863Y-349309D01*
X4845Y-349290D01*
X4638Y-349121D01*
X4431Y-348989D01*
X4224Y-348895D01*
X4018Y-348820D01*
X3830Y-348782D01*
X3698Y-348764D01*
D02*
G37*
G36*
X-24891D02*
X-25022D01*
X-25285Y-348782D01*
X-25492Y-348820D01*
X-25567Y-348857D01*
X-25624Y-348876D01*
X-25661Y-348895D01*
X-25680D01*
X-25906Y-348989D01*
X-26075Y-349121D01*
X-26188Y-349215D01*
X-26206Y-349234D01*
X-26225Y-349252D01*
X-26394Y-349459D01*
X-26507Y-349647D01*
X-26545Y-349741D01*
X-26582Y-349816D01*
X-26601Y-349854D01*
Y-349873D01*
X-26676Y-350173D01*
X-26714Y-350436D01*
X-26733Y-350568D01*
Y-350662D01*
Y-350718D01*
Y-350737D01*
X-23161D01*
X-23218Y-350399D01*
X-23293Y-350117D01*
X-23387Y-349873D01*
X-23481Y-349666D01*
X-23594Y-349497D01*
X-23669Y-349384D01*
X-23725Y-349309D01*
X-23744Y-349290D01*
X-23951Y-349121D01*
X-24158Y-348989D01*
X-24364Y-348895D01*
X-24571Y-348820D01*
X-24759Y-348782D01*
X-24891Y-348764D01*
D02*
G37*
G36*
X-72538Y-348764D02*
X-72670D01*
X-72933Y-348782D01*
X-73140Y-348820D01*
X-73215Y-348858D01*
X-73271Y-348876D01*
X-73309Y-348895D01*
X-73328D01*
X-73554Y-348989D01*
X-73723Y-349121D01*
X-73835Y-349215D01*
X-73854Y-349234D01*
X-73873Y-349252D01*
X-74042Y-349459D01*
X-74155Y-349647D01*
X-74193Y-349741D01*
X-74230Y-349816D01*
X-74249Y-349854D01*
Y-349873D01*
X-74324Y-350173D01*
X-74362Y-350436D01*
X-74380Y-350568D01*
Y-350662D01*
Y-350718D01*
Y-350737D01*
X-70809D01*
X-70866Y-350399D01*
X-70941Y-350117D01*
X-71035Y-349873D01*
X-71129Y-349666D01*
X-71242Y-349497D01*
X-71317Y-349384D01*
X-71373Y-349309D01*
X-71392Y-349290D01*
X-71599Y-349121D01*
X-71805Y-348989D01*
X-72012Y-348895D01*
X-72219Y-348820D01*
X-72407Y-348782D01*
X-72538Y-348764D01*
D02*
G37*
G36*
X-4888Y-334203D02*
X-6354D01*
Y-335350D01*
X-6147Y-335557D01*
X-5959Y-335745D01*
X-5771Y-335895D01*
X-5621Y-336026D01*
X-5508Y-336120D01*
X-5395Y-336196D01*
X-5339Y-336233D01*
X-5320Y-336252D01*
X-5151Y-336346D01*
X-4982Y-336421D01*
X-4831Y-336478D01*
X-4700Y-336515D01*
X-4587Y-336534D01*
X-4493Y-336553D01*
X-4418D01*
X-4211Y-336534D01*
X-4023Y-336515D01*
X-3873Y-336478D01*
X-3741Y-336421D01*
X-3629Y-336365D01*
X-3553Y-336327D01*
X-3516Y-336308D01*
X-3497Y-336290D01*
X-3384Y-336177D01*
X-3309Y-336045D01*
X-3234Y-335914D01*
X-3196Y-335782D01*
X-3177Y-335669D01*
X-3159Y-335575D01*
Y-335519D01*
Y-335500D01*
X-3177Y-335312D01*
X-3215Y-335162D01*
X-3234Y-335049D01*
X-3253Y-335030D01*
Y-335011D01*
X-3347Y-334842D01*
X-3459Y-334711D01*
X-3553Y-334636D01*
X-3591Y-334598D01*
X-3779Y-334466D01*
X-3967Y-334391D01*
X-4042Y-334354D01*
X-4117Y-334335D01*
X-4155Y-334316D01*
X-4174D01*
X-4474Y-334241D01*
X-4775Y-334222D01*
X-4888Y-334203D01*
D02*
G37*
G36*
X-81087Y-332812D02*
X-81256D01*
X-81575Y-332831D01*
X-81726Y-332850D01*
X-81839Y-332869D01*
X-81933Y-332906D01*
X-82008Y-332925D01*
X-82045Y-332944D01*
X-82064D01*
X-82290Y-333057D01*
X-82459Y-333188D01*
X-82572Y-333282D01*
X-82609Y-333301D01*
Y-333320D01*
X-82760Y-333508D01*
X-82854Y-333677D01*
X-82891Y-333771D01*
X-82910Y-333827D01*
X-82929Y-333865D01*
Y-333884D01*
X-83004Y-334128D01*
X-83023Y-334354D01*
X-83042Y-334448D01*
Y-334523D01*
Y-334579D01*
Y-334598D01*
X-83023Y-334880D01*
X-83004Y-335011D01*
X-82985Y-335124D01*
X-82948Y-335218D01*
X-82929Y-335293D01*
X-82910Y-335331D01*
Y-335350D01*
X-82797Y-335594D01*
X-82666Y-335782D01*
X-82628Y-335857D01*
X-82572Y-335895D01*
X-82553Y-335933D01*
X-82534Y-335951D01*
X-82346Y-336120D01*
X-82177Y-336233D01*
X-82083Y-336271D01*
X-82027Y-336308D01*
X-81989Y-336327D01*
X-81970D01*
X-81726Y-336402D01*
X-81482Y-336440D01*
X-81388Y-336459D01*
X-81237D01*
X-80918Y-336440D01*
X-80767Y-336402D01*
X-80654Y-336384D01*
X-80542Y-336346D01*
X-80466Y-336327D01*
X-80429Y-336308D01*
X-80410D01*
X-80279Y-336233D01*
X-80166Y-336158D01*
X-79978Y-335970D01*
X-79903Y-335895D01*
X-79846Y-335820D01*
X-79827Y-335782D01*
X-79809Y-335763D01*
X-79715Y-335613D01*
X-79658Y-335463D01*
X-79545Y-335143D01*
X-79508Y-335011D01*
X-79470Y-334899D01*
X-79452Y-334823D01*
Y-334805D01*
X-79414Y-334579D01*
X-79395Y-334335D01*
X-79358Y-334090D01*
Y-333865D01*
X-79339Y-333658D01*
Y-333508D01*
Y-333395D01*
Y-333357D01*
X-79470Y-333282D01*
X-79602Y-333226D01*
X-79696Y-333188D01*
X-79715Y-333170D01*
X-79734D01*
X-79903Y-333094D01*
X-80053Y-333057D01*
X-80166Y-333019D01*
X-80185Y-333000D01*
X-80203D01*
X-80391Y-332944D01*
X-80542Y-332906D01*
X-80673Y-332869D01*
X-80711D01*
X-80918Y-332831D01*
X-81087Y-332812D01*
D02*
G37*
G36*
X16164Y-328696D02*
X15111D01*
X14810Y-328715D01*
X14528Y-328734D01*
X14284Y-328771D01*
X14096Y-328828D01*
X13927Y-328884D01*
X13795Y-328922D01*
X13720Y-328940D01*
X13701Y-328959D01*
X13495Y-329053D01*
X13307Y-329185D01*
X13156Y-329297D01*
X13025Y-329410D01*
X12912Y-329523D01*
X12837Y-329617D01*
X12799Y-329673D01*
X12780Y-329692D01*
X12668Y-329880D01*
X12555Y-330087D01*
X12480Y-330294D01*
X12405Y-330482D01*
X12348Y-330651D01*
X12311Y-330782D01*
X12292Y-330858D01*
Y-330895D01*
X12198Y-331440D01*
X12179Y-331703D01*
X12160Y-331948D01*
X12141Y-332155D01*
Y-332324D01*
Y-332436D01*
Y-332455D01*
Y-332474D01*
Y-332831D01*
X12179Y-333151D01*
X12217Y-333470D01*
X12273Y-333752D01*
X12329Y-334015D01*
X12405Y-334241D01*
X12461Y-334448D01*
X12536Y-334636D01*
X12611Y-334805D01*
X12686Y-334955D01*
X12762Y-335068D01*
X12818Y-335181D01*
X12874Y-335256D01*
X12912Y-335312D01*
X12931Y-335331D01*
X12950Y-335350D01*
X13100Y-335500D01*
X13269Y-335650D01*
X13645Y-335876D01*
X14021Y-336026D01*
X14397Y-336139D01*
X14735Y-336196D01*
X14886Y-336233D01*
X15017D01*
X15111Y-336252D01*
X16164D01*
Y-328696D01*
D02*
G37*
G36*
X-33345Y-328978D02*
X-34773Y-334128D01*
X-31879D01*
X-33345Y-328978D01*
D02*
G37*
G36*
X-119938Y-328959D02*
Y-333921D01*
X-116780D01*
X-119938Y-328959D01*
D02*
G37*
G36*
X146188Y-328177D02*
X144891D01*
X144703Y-328196D01*
X144534Y-328215D01*
X144365Y-328252D01*
X144252Y-328271D01*
X144158Y-328309D01*
X144101Y-328328D01*
X144082D01*
X143782Y-328440D01*
X143669Y-328516D01*
X143556Y-328572D01*
X143481Y-328628D01*
X143425Y-328685D01*
X143387Y-328703D01*
X143368Y-328722D01*
X143180Y-328910D01*
X143049Y-329117D01*
X143011Y-329192D01*
X142974Y-329267D01*
X142955Y-329305D01*
Y-329324D01*
X142861Y-329606D01*
X142823Y-329850D01*
X142804Y-329963D01*
Y-330038D01*
Y-330094D01*
Y-330113D01*
X142823Y-330452D01*
X142842Y-330602D01*
X142880Y-330733D01*
X142898Y-330846D01*
X142936Y-330921D01*
X142955Y-330978D01*
Y-330997D01*
X143086Y-331260D01*
X143218Y-331466D01*
X143293Y-331542D01*
X143331Y-331598D01*
X143368Y-331636D01*
X143387Y-331655D01*
X143613Y-331842D01*
X143838Y-331974D01*
X143932Y-332030D01*
X144007Y-332049D01*
X144064Y-332087D01*
X144082D01*
X144402Y-332162D01*
X144571Y-332181D01*
X144722Y-332200D01*
X144853Y-332218D01*
X146188D01*
Y-328177D01*
D02*
G37*
G36*
X154289Y-328140D02*
X154195D01*
X153969Y-328158D01*
X153781Y-328177D01*
X153424Y-328290D01*
X153123Y-328440D01*
X152879Y-328628D01*
X152691Y-328816D01*
X152559Y-328967D01*
X152484Y-329079D01*
X152466Y-329098D01*
Y-329117D01*
X152372Y-329305D01*
X152296Y-329512D01*
X152165Y-329982D01*
X152071Y-330452D01*
X151996Y-330940D01*
X151977Y-331147D01*
X151958Y-331354D01*
Y-331542D01*
X151939Y-331711D01*
Y-331842D01*
Y-331936D01*
Y-332012D01*
Y-332030D01*
Y-332369D01*
X151958Y-332669D01*
X151977Y-332951D01*
X151996Y-333196D01*
X152033Y-333384D01*
X152052Y-333534D01*
X152071Y-333628D01*
Y-333666D01*
X152127Y-333910D01*
X152184Y-334136D01*
X152259Y-334342D01*
X152334Y-334511D01*
X152390Y-334662D01*
X152447Y-334756D01*
X152466Y-334831D01*
X152484Y-334850D01*
X152597Y-335019D01*
X152710Y-335150D01*
X152823Y-335282D01*
X152935Y-335376D01*
X153029Y-335470D01*
X153105Y-335526D01*
X153161Y-335545D01*
X153180Y-335564D01*
X153349Y-335639D01*
X153518Y-335696D01*
X153687Y-335752D01*
X153838Y-335771D01*
X153988Y-335790D01*
X154101Y-335808D01*
X154195D01*
X154420Y-335790D01*
X154608Y-335771D01*
X154965Y-335658D01*
X155266Y-335508D01*
X155511Y-335320D01*
X155698Y-335150D01*
X155830Y-335000D01*
X155905Y-334887D01*
X155924Y-334869D01*
Y-334850D01*
X156018Y-334662D01*
X156093Y-334455D01*
X156225Y-333985D01*
X156319Y-333515D01*
X156375Y-333027D01*
X156413Y-332820D01*
Y-332613D01*
X156432Y-332425D01*
X156450Y-332256D01*
Y-332124D01*
Y-332030D01*
Y-331955D01*
Y-331936D01*
Y-331598D01*
X156432Y-331297D01*
X156413Y-331015D01*
X156394Y-330790D01*
X156375Y-330583D01*
X156356Y-330452D01*
X156337Y-330358D01*
Y-330320D01*
X156281Y-330057D01*
X156225Y-329831D01*
X156150Y-329624D01*
X156093Y-329455D01*
X156037Y-329324D01*
X155980Y-329211D01*
X155962Y-329155D01*
X155943Y-329136D01*
X155830Y-328967D01*
X155717Y-328816D01*
X155604Y-328685D01*
X155492Y-328591D01*
X155398Y-328497D01*
X155323Y-328440D01*
X155266Y-328422D01*
X155247Y-328403D01*
X155078Y-328309D01*
X154909Y-328252D01*
X154721Y-328196D01*
X154552Y-328177D01*
X154420Y-328158D01*
X154289Y-328140D01*
D02*
G37*
G36*
X162574Y-344452D02*
X162499D01*
X162255Y-344470D01*
X162048Y-344508D01*
X161841Y-344583D01*
X161672Y-344658D01*
X161540Y-344734D01*
X161446Y-344809D01*
X161371Y-344846D01*
X161352Y-344865D01*
X161183Y-345034D01*
X161033Y-345222D01*
X160901Y-345429D01*
X160788Y-345617D01*
X160694Y-345805D01*
X160638Y-345955D01*
X160600Y-346049D01*
X160582Y-346068D01*
Y-346087D01*
X164717Y-349076D01*
Y-348963D01*
Y-348869D01*
Y-348812D01*
Y-348793D01*
Y-348681D01*
Y-348568D01*
Y-348493D01*
Y-348474D01*
Y-348098D01*
X164698Y-347760D01*
X164660Y-347459D01*
X164623Y-347196D01*
X164604Y-346989D01*
X164566Y-346820D01*
X164548Y-346726D01*
Y-346688D01*
X164472Y-346425D01*
X164397Y-346181D01*
X164322Y-345974D01*
X164247Y-345786D01*
X164191Y-345636D01*
X164134Y-345542D01*
X164097Y-345467D01*
X164078Y-345448D01*
X163965Y-345260D01*
X163833Y-345109D01*
X163721Y-344978D01*
X163608Y-344884D01*
X163514Y-344809D01*
X163439Y-344734D01*
X163401Y-344715D01*
X163382Y-344696D01*
X163232Y-344621D01*
X163063Y-344546D01*
X162912Y-344508D01*
X162781Y-344489D01*
X162668Y-344470D01*
X162574Y-344452D01*
D02*
G37*
G36*
X160281Y-347929D02*
Y-348042D01*
Y-348136D01*
Y-348211D01*
Y-348230D01*
X160262Y-348324D01*
Y-348418D01*
Y-348493D01*
Y-348512D01*
Y-348887D01*
X160281Y-349207D01*
X160319Y-349508D01*
X160337Y-349771D01*
X160375Y-349978D01*
X160413Y-350147D01*
X160431Y-350241D01*
Y-350278D01*
X160506Y-350542D01*
X160582Y-350786D01*
X160657Y-351012D01*
X160732Y-351181D01*
X160788Y-351331D01*
X160845Y-351444D01*
X160882Y-351519D01*
X160901Y-351538D01*
X161014Y-351707D01*
X161145Y-351857D01*
X161258Y-351989D01*
X161371Y-352083D01*
X161465Y-352158D01*
X161540Y-352233D01*
X161597Y-352252D01*
X161615Y-352271D01*
X161766Y-352346D01*
X161935Y-352402D01*
X162085Y-352440D01*
X162217Y-352459D01*
X162330Y-352478D01*
X162424Y-352496D01*
X162499D01*
X162743Y-352478D01*
X162950Y-352440D01*
X163157Y-352384D01*
X163326Y-352308D01*
X163457Y-352233D01*
X163551Y-352177D01*
X163627Y-352139D01*
X163645Y-352120D01*
X163815Y-351951D01*
X163965Y-351763D01*
X164097Y-351557D01*
X164209Y-351369D01*
X164284Y-351181D01*
X164341Y-351030D01*
X164378Y-350936D01*
X164397Y-350899D01*
X160281Y-347929D01*
D02*
G37*
G36*
X143515Y-344452D02*
X143440D01*
X143195Y-344470D01*
X142989Y-344508D01*
X142782Y-344583D01*
X142613Y-344658D01*
X142481Y-344734D01*
X142387Y-344809D01*
X142312Y-344846D01*
X142293Y-344865D01*
X142124Y-345034D01*
X141974Y-345222D01*
X141842Y-345429D01*
X141729Y-345617D01*
X141635Y-345805D01*
X141579Y-345955D01*
X141541Y-346049D01*
X141523Y-346068D01*
Y-346087D01*
X145658Y-349076D01*
Y-348963D01*
Y-348869D01*
Y-348812D01*
Y-348793D01*
Y-348681D01*
Y-348568D01*
Y-348493D01*
Y-348474D01*
Y-348098D01*
X145639Y-347760D01*
X145601Y-347459D01*
X145564Y-347196D01*
X145545Y-346989D01*
X145507Y-346820D01*
X145488Y-346726D01*
Y-346688D01*
X145413Y-346425D01*
X145338Y-346181D01*
X145263Y-345974D01*
X145188Y-345786D01*
X145131Y-345636D01*
X145075Y-345542D01*
X145037Y-345467D01*
X145019Y-345448D01*
X144906Y-345260D01*
X144774Y-345109D01*
X144661Y-344978D01*
X144549Y-344884D01*
X144455Y-344809D01*
X144380Y-344734D01*
X144342Y-344715D01*
X144323Y-344696D01*
X144173Y-344621D01*
X144003Y-344546D01*
X143853Y-344508D01*
X143722Y-344489D01*
X143609Y-344470D01*
X143515Y-344452D01*
D02*
G37*
G36*
X141222Y-347929D02*
Y-348042D01*
Y-348136D01*
Y-348211D01*
Y-348230D01*
X141203Y-348324D01*
Y-348418D01*
Y-348493D01*
Y-348512D01*
Y-348887D01*
X141222Y-349207D01*
X141259Y-349508D01*
X141278Y-349771D01*
X141316Y-349978D01*
X141353Y-350147D01*
X141372Y-350241D01*
Y-350278D01*
X141447Y-350542D01*
X141523Y-350786D01*
X141598Y-351012D01*
X141673Y-351181D01*
X141729Y-351331D01*
X141786Y-351444D01*
X141823Y-351519D01*
X141842Y-351538D01*
X141955Y-351707D01*
X142086Y-351857D01*
X142199Y-351989D01*
X142312Y-352083D01*
X142406Y-352158D01*
X142481Y-352233D01*
X142537Y-352252D01*
X142556Y-352271D01*
X142707Y-352346D01*
X142876Y-352402D01*
X143026Y-352440D01*
X143158Y-352459D01*
X143271Y-352478D01*
X143364Y-352496D01*
X143440D01*
X143684Y-352478D01*
X143891Y-352440D01*
X144097Y-352384D01*
X144267Y-352308D01*
X144398Y-352233D01*
X144492Y-352177D01*
X144567Y-352139D01*
X144586Y-352120D01*
X144755Y-351951D01*
X144906Y-351763D01*
X145037Y-351557D01*
X145150Y-351369D01*
X145225Y-351181D01*
X145282Y-351030D01*
X145319Y-350936D01*
X145338Y-350899D01*
X141222Y-347929D01*
D02*
G37*
G36*
X133985Y-344452D02*
X133910D01*
X133666Y-344470D01*
X133459Y-344508D01*
X133252Y-344583D01*
X133083Y-344658D01*
X132951Y-344734D01*
X132858Y-344809D01*
X132782Y-344846D01*
X132764Y-344865D01*
X132594Y-345034D01*
X132444Y-345222D01*
X132312Y-345429D01*
X132200Y-345617D01*
X132106Y-345805D01*
X132049Y-345955D01*
X132012Y-346049D01*
X131993Y-346068D01*
Y-346087D01*
X136128Y-349076D01*
Y-348963D01*
Y-348869D01*
Y-348812D01*
Y-348793D01*
Y-348681D01*
Y-348568D01*
Y-348493D01*
Y-348474D01*
Y-348098D01*
X136109Y-347760D01*
X136072Y-347459D01*
X136034Y-347196D01*
X136015Y-346989D01*
X135978Y-346820D01*
X135959Y-346726D01*
Y-346688D01*
X135884Y-346425D01*
X135808Y-346181D01*
X135733Y-345974D01*
X135658Y-345786D01*
X135602Y-345636D01*
X135545Y-345542D01*
X135508Y-345467D01*
X135489Y-345448D01*
X135376Y-345260D01*
X135245Y-345109D01*
X135132Y-344978D01*
X135019Y-344884D01*
X134925Y-344809D01*
X134850Y-344734D01*
X134812Y-344715D01*
X134794Y-344696D01*
X134643Y-344621D01*
X134474Y-344546D01*
X134324Y-344508D01*
X134192Y-344489D01*
X134079Y-344470D01*
X133985Y-344452D01*
D02*
G37*
G36*
X131692Y-347929D02*
Y-348042D01*
Y-348136D01*
Y-348211D01*
Y-348230D01*
X131673Y-348324D01*
Y-348418D01*
Y-348493D01*
Y-348512D01*
Y-348887D01*
X131692Y-349207D01*
X131730Y-349508D01*
X131749Y-349771D01*
X131786Y-349978D01*
X131824Y-350147D01*
X131842Y-350241D01*
Y-350278D01*
X131918Y-350542D01*
X131993Y-350786D01*
X132068Y-351012D01*
X132143Y-351181D01*
X132200Y-351331D01*
X132256Y-351444D01*
X132294Y-351519D01*
X132312Y-351538D01*
X132425Y-351707D01*
X132557Y-351857D01*
X132670Y-351989D01*
X132782Y-352083D01*
X132876Y-352158D01*
X132951Y-352233D01*
X133008Y-352252D01*
X133027Y-352271D01*
X133177Y-352346D01*
X133346Y-352402D01*
X133497Y-352440D01*
X133628Y-352459D01*
X133741Y-352478D01*
X133835Y-352496D01*
X133910D01*
X134154Y-352478D01*
X134361Y-352440D01*
X134568Y-352384D01*
X134737Y-352308D01*
X134869Y-352233D01*
X134963Y-352177D01*
X135038Y-352139D01*
X135057Y-352120D01*
X135226Y-351951D01*
X135376Y-351763D01*
X135508Y-351557D01*
X135620Y-351369D01*
X135696Y-351181D01*
X135752Y-351030D01*
X135790Y-350936D01*
X135808Y-350899D01*
X131692Y-347929D01*
D02*
G37*
G36*
X124512Y-344358D02*
X124381D01*
X124099Y-344376D01*
X123854Y-344395D01*
X123629Y-344452D01*
X123460Y-344508D01*
X123328Y-344564D01*
X123215Y-344602D01*
X123159Y-344640D01*
X123140Y-344658D01*
X122990Y-344771D01*
X122877Y-344903D01*
X122802Y-345034D01*
X122745Y-345185D01*
X122708Y-345298D01*
X122689Y-345392D01*
Y-345467D01*
Y-345485D01*
X122708Y-345711D01*
X122745Y-345899D01*
X122783Y-345974D01*
X122802Y-346031D01*
X122821Y-346068D01*
Y-346087D01*
X122914Y-346275D01*
X123027Y-346425D01*
X123102Y-346538D01*
X123121Y-346557D01*
X123140Y-346576D01*
X123290Y-346745D01*
X123441Y-346876D01*
X123553Y-346970D01*
X123572Y-346989D01*
X123591Y-347008D01*
X123798Y-347140D01*
X123986Y-347252D01*
X124061Y-347309D01*
X124117Y-347327D01*
X124155Y-347365D01*
X124174D01*
X124437Y-347234D01*
X124681Y-347102D01*
X124775Y-347064D01*
X124850Y-347027D01*
X124888Y-346989D01*
X124907D01*
X125151Y-346839D01*
X125339Y-346726D01*
X125414Y-346670D01*
X125452Y-346632D01*
X125490Y-346594D01*
X125508D01*
X125677Y-346425D01*
X125790Y-346275D01*
X125884Y-346162D01*
X125903Y-346143D01*
Y-346124D01*
X125978Y-345918D01*
X126016Y-345730D01*
X126035Y-345655D01*
Y-345598D01*
Y-345561D01*
Y-345542D01*
X126016Y-345335D01*
X125959Y-345166D01*
X125903Y-344997D01*
X125809Y-344884D01*
X125734Y-344790D01*
X125677Y-344715D01*
X125621Y-344677D01*
X125602Y-344658D01*
X125433Y-344564D01*
X125226Y-344489D01*
X125020Y-344433D01*
X124832Y-344395D01*
X124644Y-344376D01*
X124512Y-344358D01*
D02*
G37*
G36*
X124625Y-349226D02*
X124606D01*
X124305Y-349376D01*
X124174Y-349451D01*
X124061Y-349508D01*
X123948Y-349564D01*
X123873Y-349602D01*
X123835Y-349621D01*
X123817Y-349639D01*
X123553Y-349790D01*
X123347Y-349940D01*
X123272Y-349996D01*
X123215Y-350053D01*
X123196Y-350072D01*
X123178Y-350090D01*
X122990Y-350278D01*
X122839Y-350448D01*
X122802Y-350523D01*
X122764Y-350560D01*
X122726Y-350598D01*
Y-350617D01*
X122633Y-350842D01*
X122576Y-351049D01*
X122557Y-351124D01*
Y-351199D01*
Y-351237D01*
Y-351256D01*
X122576Y-351481D01*
X122633Y-351669D01*
X122651Y-351744D01*
X122689Y-351801D01*
X122708Y-351820D01*
Y-351838D01*
X122839Y-352008D01*
X122952Y-352139D01*
X123065Y-352214D01*
X123084Y-352252D01*
X123102D01*
X123290Y-352346D01*
X123478Y-352421D01*
X123572Y-352440D01*
X123629Y-352459D01*
X123666Y-352478D01*
X123685D01*
X123929Y-352515D01*
X124155Y-352534D01*
X124249Y-352553D01*
X124381D01*
X124681Y-352534D01*
X124926Y-352496D01*
X125151Y-352459D01*
X125339Y-352384D01*
X125490Y-352327D01*
X125602Y-352290D01*
X125677Y-352252D01*
X125696Y-352233D01*
X125865Y-352102D01*
X125978Y-351932D01*
X126072Y-351782D01*
X126129Y-351613D01*
X126166Y-351481D01*
X126185Y-351369D01*
Y-351275D01*
Y-351256D01*
X126166Y-350993D01*
X126129Y-350786D01*
X126110Y-350711D01*
X126091Y-350654D01*
X126072Y-350617D01*
Y-350598D01*
X125959Y-350391D01*
X125847Y-350203D01*
X125771Y-350090D01*
X125734Y-350072D01*
Y-350053D01*
X125565Y-349884D01*
X125395Y-349752D01*
X125264Y-349658D01*
X125245Y-349621D01*
X125226D01*
X125001Y-349470D01*
X124794Y-349339D01*
X124719Y-349301D01*
X124663Y-349263D01*
X124625Y-349226D01*
D02*
G37*
G36*
X105453Y-344358D02*
X105321D01*
X105039Y-344376D01*
X104795Y-344395D01*
X104570Y-344452D01*
X104400Y-344508D01*
X104269Y-344564D01*
X104156Y-344602D01*
X104100Y-344640D01*
X104081Y-344658D01*
X103931Y-344771D01*
X103818Y-344903D01*
X103743Y-345034D01*
X103686Y-345185D01*
X103649Y-345298D01*
X103630Y-345392D01*
Y-345467D01*
Y-345485D01*
X103649Y-345711D01*
X103686Y-345899D01*
X103724Y-345974D01*
X103743Y-346031D01*
X103761Y-346068D01*
Y-346087D01*
X103855Y-346275D01*
X103968Y-346425D01*
X104043Y-346538D01*
X104062Y-346557D01*
X104081Y-346576D01*
X104231Y-346745D01*
X104382Y-346876D01*
X104494Y-346970D01*
X104513Y-346989D01*
X104532Y-347008D01*
X104739Y-347140D01*
X104927Y-347252D01*
X105002Y-347309D01*
X105058Y-347327D01*
X105096Y-347365D01*
X105115D01*
X105378Y-347234D01*
X105622Y-347102D01*
X105716Y-347064D01*
X105791Y-347027D01*
X105829Y-346989D01*
X105848D01*
X106092Y-346839D01*
X106280Y-346726D01*
X106355Y-346670D01*
X106393Y-346632D01*
X106430Y-346594D01*
X106449D01*
X106618Y-346425D01*
X106731Y-346275D01*
X106825Y-346162D01*
X106844Y-346143D01*
Y-346124D01*
X106919Y-345918D01*
X106957Y-345730D01*
X106975Y-345655D01*
Y-345598D01*
Y-345561D01*
Y-345542D01*
X106957Y-345335D01*
X106900Y-345166D01*
X106844Y-344997D01*
X106750Y-344884D01*
X106675Y-344790D01*
X106618Y-344715D01*
X106562Y-344677D01*
X106543Y-344658D01*
X106374Y-344564D01*
X106167Y-344489D01*
X105960Y-344433D01*
X105772Y-344395D01*
X105584Y-344376D01*
X105453Y-344358D01*
D02*
G37*
G36*
X105566Y-349226D02*
X105547D01*
X105246Y-349376D01*
X105115Y-349451D01*
X105002Y-349508D01*
X104889Y-349564D01*
X104814Y-349602D01*
X104776Y-349621D01*
X104757Y-349639D01*
X104494Y-349790D01*
X104288Y-349940D01*
X104212Y-349996D01*
X104156Y-350053D01*
X104137Y-350072D01*
X104118Y-350090D01*
X103931Y-350278D01*
X103780Y-350448D01*
X103743Y-350523D01*
X103705Y-350560D01*
X103667Y-350598D01*
Y-350617D01*
X103573Y-350842D01*
X103517Y-351049D01*
X103498Y-351124D01*
Y-351199D01*
Y-351237D01*
Y-351256D01*
X103517Y-351481D01*
X103573Y-351669D01*
X103592Y-351744D01*
X103630Y-351801D01*
X103649Y-351820D01*
Y-351838D01*
X103780Y-352008D01*
X103893Y-352139D01*
X104006Y-352214D01*
X104024Y-352252D01*
X104043D01*
X104231Y-352346D01*
X104419Y-352421D01*
X104513Y-352440D01*
X104570Y-352459D01*
X104607Y-352478D01*
X104626D01*
X104870Y-352515D01*
X105096Y-352534D01*
X105190Y-352553D01*
X105321D01*
X105622Y-352534D01*
X105866Y-352496D01*
X106092Y-352459D01*
X106280Y-352384D01*
X106430Y-352327D01*
X106543Y-352290D01*
X106618Y-352252D01*
X106637Y-352233D01*
X106806Y-352102D01*
X106919Y-351932D01*
X107013Y-351782D01*
X107069Y-351613D01*
X107107Y-351481D01*
X107126Y-351369D01*
Y-351275D01*
Y-351256D01*
X107107Y-350993D01*
X107069Y-350786D01*
X107051Y-350711D01*
X107032Y-350654D01*
X107013Y-350617D01*
Y-350598D01*
X106900Y-350391D01*
X106788Y-350203D01*
X106712Y-350090D01*
X106675Y-350072D01*
Y-350053D01*
X106505Y-349884D01*
X106336Y-349752D01*
X106205Y-349658D01*
X106186Y-349621D01*
X106167D01*
X105942Y-349470D01*
X105735Y-349339D01*
X105660Y-349301D01*
X105603Y-349263D01*
X105566Y-349226D01*
D02*
G37*
G36*
X-116029Y-288655D02*
X-116066D01*
X-116198Y-288674D01*
X-116329Y-288711D01*
X-116517Y-288805D01*
X-116574Y-288880D01*
X-116630Y-288918D01*
X-116668Y-288955D01*
Y-288974D01*
X-116743Y-289106D01*
X-116780Y-289256D01*
X-116856Y-289595D01*
Y-289745D01*
X-116874Y-289858D01*
Y-289933D01*
Y-289970D01*
Y-290196D01*
X-116837Y-290403D01*
X-116799Y-290572D01*
X-116743Y-290722D01*
X-116686Y-290854D01*
X-116611Y-290948D01*
X-116555Y-291042D01*
X-116480Y-291098D01*
X-116329Y-291192D01*
X-116198Y-291249D01*
X-116104Y-291267D01*
X-116066D01*
X-115935Y-291249D01*
X-115803Y-291211D01*
X-115615Y-291117D01*
X-115559Y-291061D01*
X-115502Y-291004D01*
X-115484Y-290986D01*
X-115465Y-290967D01*
X-115408Y-290835D01*
X-115352Y-290685D01*
X-115296Y-290346D01*
Y-290196D01*
X-115277Y-290083D01*
Y-290008D01*
Y-289970D01*
X-115296Y-289745D01*
X-115314Y-289538D01*
X-115352Y-289369D01*
X-115408Y-289200D01*
X-115465Y-289087D01*
X-115521Y-288974D01*
X-115596Y-288880D01*
X-115672Y-288824D01*
X-115822Y-288730D01*
X-115935Y-288674D01*
X-116029Y-288655D01*
D02*
G37*
G36*
X-13346Y-290478D02*
X-14775Y-295628D01*
X-11880D01*
X-13346Y-290478D01*
D02*
G37*
G36*
X-61821Y-290459D02*
Y-295421D01*
X-58663D01*
X-61821Y-290459D01*
D02*
G37*
G36*
X-120389Y-295760D02*
X-120427D01*
X-120558Y-295779D01*
X-120690Y-295816D01*
X-120878Y-295910D01*
X-120934Y-295985D01*
X-120991Y-296023D01*
X-121028Y-296060D01*
Y-296079D01*
X-121103Y-296211D01*
X-121141Y-296361D01*
X-121216Y-296700D01*
Y-296850D01*
X-121235Y-296963D01*
Y-297038D01*
Y-297075D01*
Y-297301D01*
X-121198Y-297508D01*
X-121160Y-297677D01*
X-121103Y-297827D01*
X-121047Y-297959D01*
X-120972Y-298053D01*
X-120916Y-298147D01*
X-120840Y-298203D01*
X-120690Y-298297D01*
X-120558Y-298354D01*
X-120464Y-298372D01*
X-120427D01*
X-120295Y-298354D01*
X-120164Y-298316D01*
X-119976Y-298222D01*
X-119919Y-298165D01*
X-119863Y-298109D01*
X-119844Y-298090D01*
X-119825Y-298072D01*
X-119769Y-297940D01*
X-119713Y-297790D01*
X-119656Y-297451D01*
Y-297301D01*
X-119637Y-297188D01*
Y-297113D01*
Y-297075D01*
X-119656Y-296850D01*
X-119675Y-296643D01*
X-119713Y-296474D01*
X-119769Y-296305D01*
X-119825Y-296192D01*
X-119882Y-296079D01*
X-119957Y-295985D01*
X-120032Y-295929D01*
X-120183Y-295835D01*
X-120295Y-295779D01*
X-120389Y-295760D01*
D02*
G37*
G36*
X-116893Y-308655D02*
X-116931D01*
X-117062Y-308674D01*
X-117194Y-308711D01*
X-117382Y-308805D01*
X-117438Y-308880D01*
X-117495Y-308918D01*
X-117532Y-308955D01*
Y-308974D01*
X-117607Y-309106D01*
X-117645Y-309256D01*
X-117720Y-309595D01*
Y-309745D01*
X-117739Y-309858D01*
Y-309933D01*
Y-309970D01*
Y-310196D01*
X-117701Y-310403D01*
X-117664Y-310572D01*
X-117607Y-310722D01*
X-117551Y-310854D01*
X-117476Y-310948D01*
X-117420Y-311042D01*
X-117344Y-311098D01*
X-117194Y-311192D01*
X-117062Y-311249D01*
X-116968Y-311267D01*
X-116931D01*
X-116799Y-311249D01*
X-116668Y-311211D01*
X-116480Y-311117D01*
X-116423Y-311061D01*
X-116367Y-311004D01*
X-116348Y-310986D01*
X-116329Y-310967D01*
X-116273Y-310835D01*
X-116217Y-310685D01*
X-116160Y-310346D01*
Y-310196D01*
X-116141Y-310083D01*
Y-310008D01*
Y-309970D01*
X-116160Y-309745D01*
X-116179Y-309538D01*
X-116217Y-309369D01*
X-116273Y-309200D01*
X-116329Y-309087D01*
X-116386Y-308974D01*
X-116461Y-308880D01*
X-116536Y-308824D01*
X-116686Y-308730D01*
X-116799Y-308674D01*
X-116893Y-308655D01*
D02*
G37*
G36*
X-71087Y-309989D02*
X-71426D01*
X-71595Y-310027D01*
X-71745Y-310046D01*
X-71877Y-310083D01*
X-71990Y-310121D01*
X-72065Y-310158D01*
X-72102Y-310177D01*
X-72121Y-310196D01*
X-72365Y-310384D01*
X-72572Y-310572D01*
X-72629Y-310666D01*
X-72685Y-310741D01*
X-72704Y-310779D01*
X-72723Y-310798D01*
X-72873Y-311117D01*
X-72967Y-311437D01*
X-73005Y-311568D01*
X-73023Y-311681D01*
X-73042Y-311756D01*
Y-311775D01*
X-73080Y-312000D01*
X-73117Y-312226D01*
X-73136Y-312451D01*
Y-312658D01*
X-73155Y-312827D01*
Y-312978D01*
Y-313072D01*
Y-313109D01*
X-73005Y-313185D01*
X-72873Y-313241D01*
X-72760Y-313297D01*
X-72741Y-313316D01*
X-72723D01*
X-72553Y-313373D01*
X-72403Y-313429D01*
X-72271Y-313466D01*
X-72253Y-313485D01*
X-72234D01*
X-72046Y-313542D01*
X-71896Y-313561D01*
X-71764Y-313598D01*
X-71726D01*
X-71539Y-313617D01*
X-71388Y-313636D01*
X-71238D01*
X-70937Y-313617D01*
X-70674Y-313561D01*
X-70448Y-313504D01*
X-70260Y-313410D01*
X-70110Y-313335D01*
X-70016Y-313279D01*
X-69941Y-313222D01*
X-69922Y-313203D01*
X-69772Y-313015D01*
X-69659Y-312809D01*
X-69565Y-312583D01*
X-69509Y-312376D01*
X-69471Y-312170D01*
X-69452Y-312019D01*
Y-311907D01*
Y-311888D01*
Y-311869D01*
X-69471Y-311568D01*
X-69490Y-311455D01*
X-69509Y-311343D01*
X-69527Y-311249D01*
X-69546Y-311173D01*
X-69565Y-311136D01*
Y-311117D01*
X-69678Y-310873D01*
X-69790Y-310685D01*
X-69847Y-310609D01*
X-69884Y-310553D01*
X-69922Y-310534D01*
Y-310516D01*
X-70110Y-310346D01*
X-70298Y-310234D01*
X-70373Y-310196D01*
X-70430Y-310158D01*
X-70467Y-310140D01*
X-70486D01*
X-70749Y-310046D01*
X-70993Y-310008D01*
X-71087Y-309989D01*
D02*
G37*
G36*
X-14211Y-310478D02*
X-15639Y-315628D01*
X-12745D01*
X-14211Y-310478D01*
D02*
G37*
G36*
X-121254Y-315760D02*
X-121292D01*
X-121423Y-315778D01*
X-121555Y-315816D01*
X-121743Y-315910D01*
X-121799Y-315985D01*
X-121855Y-316023D01*
X-121893Y-316060D01*
Y-316079D01*
X-121968Y-316211D01*
X-122006Y-316361D01*
X-122081Y-316699D01*
Y-316850D01*
X-122100Y-316963D01*
Y-317038D01*
Y-317075D01*
Y-317301D01*
X-122062Y-317508D01*
X-122024Y-317677D01*
X-121968Y-317827D01*
X-121912Y-317959D01*
X-121837Y-318053D01*
X-121780Y-318147D01*
X-121705Y-318203D01*
X-121555Y-318297D01*
X-121423Y-318354D01*
X-121329Y-318372D01*
X-121292D01*
X-121160Y-318354D01*
X-121028Y-318316D01*
X-120840Y-318222D01*
X-120784Y-318165D01*
X-120728Y-318109D01*
X-120709Y-318090D01*
X-120690Y-318072D01*
X-120634Y-317940D01*
X-120577Y-317790D01*
X-120521Y-317451D01*
Y-317301D01*
X-120502Y-317188D01*
Y-317113D01*
Y-317075D01*
X-120521Y-316850D01*
X-120540Y-316643D01*
X-120577Y-316474D01*
X-120634Y-316305D01*
X-120690Y-316192D01*
X-120746Y-316079D01*
X-120822Y-315985D01*
X-120897Y-315929D01*
X-121047Y-315835D01*
X-121160Y-315778D01*
X-121254Y-315760D01*
D02*
G37*
%LPD*%
D17*
X19750Y-95570D02*
Y-86570D01*
X35250Y-95570D02*
Y-86570D01*
X43750Y-95570D02*
Y-86570D01*
X59250Y-95570D02*
Y-86570D01*
X94500Y-43700D02*
X96500D01*
X94500Y-51200D02*
X96500D01*
X-42750Y-95500D02*
Y-86500D01*
X-58250Y-95500D02*
Y-86500D01*
D47*
X222500Y-21000D02*
G03*
X182500Y19000I-40000J0D01*
G01*
X195500Y-21000D02*
G03*
X182500Y-8000I-13000J0D01*
G01*
X219500Y-21000D02*
G03*
X182500Y16000I-37000J0D01*
G01*
X192500Y-21000D02*
G03*
X182500Y-11000I-10000J0D01*
G01*
Y-171000D02*
G03*
X192500Y-161000I0J10000D01*
G01*
X182500Y-201000D02*
G03*
X222500Y-161000I0J40000D01*
G01*
X182500Y-174000D02*
G03*
X195500Y-161000I0J13000D01*
G01*
X182500Y-198000D02*
G03*
X219500Y-161000I0J37000D01*
G01*
X-182500Y-8000D02*
G03*
X-195500Y-21000I0J-13000D01*
G01*
X-182500Y19000D02*
G03*
X-222500Y-21000I0J-40000D01*
G01*
X-182500Y16000D02*
G03*
X-219500Y-21000I0J-37000D01*
G01*
X-195500Y-161000D02*
G03*
X-182500Y-174000I13000J0D01*
G01*
X-222500Y-161000D02*
G03*
X-182500Y-201000I40000J0D01*
G01*
X-219500Y-161000D02*
G03*
X-182500Y-198000I37000J0D01*
G01*
X-192500Y-161000D02*
G03*
X-182500Y-171000I10000J0D01*
G01*
Y-11000D02*
G03*
X-192500Y-21000I0J-10000D01*
G01*
X219500D02*
X222500D01*
X192500D02*
X195500D01*
X182500Y16000D02*
Y19000D01*
Y-11000D02*
Y-8000D01*
X219500Y-161000D02*
X222500D01*
X192500D02*
X195500D01*
X182500Y-174000D02*
Y-171000D01*
Y-201000D02*
Y-198000D01*
X-195500Y-161000D02*
X-192500D01*
X-195500Y-21000D02*
X-192500D01*
X-222500Y-161000D02*
X-219500D01*
X-182500Y16000D02*
Y19000D01*
Y-11000D02*
Y-8000D01*
Y-174000D02*
Y-171000D01*
Y-201000D02*
Y-198000D01*
X-222500Y-21000D02*
X-219500D01*
D48*
X46293Y-236903D02*
X77324Y-257055D01*
X24507Y-270450D02*
X55538Y-290602D01*
X77324Y-257055D01*
D49*
X33000Y-199500D02*
X178500Y-199500D01*
X-178500Y-199500D02*
X-33250D01*
X194000Y-157000D02*
Y-25000D01*
X-194000Y-157000D02*
Y-25000D01*
X-178500Y-9500D02*
X178500Y-9500D01*
X-178500Y-172500D02*
X178500Y-172500D01*
X-178500Y17500D02*
X178500Y17500D01*
X221000Y-157000D02*
Y-25000D01*
X-221000Y-157000D02*
Y-25000D01*
M02*
