G04*
G04 #@! TF.GenerationSoftware,Altium Limited,Altium Designer,20.0.13 (296)*
G04*
G04 Layer_Physical_Order=2*
G04 Layer_Color=16711680*
%FSLAX44Y44*%
%MOMM*%
G71*
G01*
G75*
%ADD11C,0.2540*%
%ADD23C,0.5080*%
%ADD26C,0.3048*%
%ADD28C,0.7620*%
%ADD30C,2.1000*%
%ADD31C,1.5000*%
%ADD32C,0.8128*%
G04:AMPARAMS|DCode=33|XSize=1.2mm|YSize=3mm|CornerRadius=0mm|HoleSize=0mm|Usage=FLASHONLY|Rotation=237.000|XOffset=0mm|YOffset=0mm|HoleType=Round|Shape=Rectangle|*
%AMROTATEDRECTD33*
4,1,4,-0.9312,1.3202,1.5848,-0.3138,0.9312,-1.3202,-1.5848,0.3138,-0.9312,1.3202,0.0*
%
%ADD33ROTATEDRECTD33*%

%ADD34R,1.7500X1.2000*%
%ADD35R,1.3000X1.1500*%
%ADD36R,0.7620X0.8382*%
%ADD37R,1.1500X1.3000*%
%ADD38O,2.1590X1.2700*%
%ADD39C,0.6350*%
%ADD40C,0.3050*%
D11*
X51500Y-75070D02*
Y-60000D01*
X51750Y-59750D01*
X27500Y-75070D02*
X27750Y-74820D01*
Y-60250D01*
X47375Y-154375D02*
X56500Y-163500D01*
Y-231300D02*
X81300Y-256100D01*
X56500Y-231300D02*
Y-163500D01*
X37250Y-151500D02*
X51900Y-166150D01*
X30320Y-107070D02*
X37250Y-114000D01*
Y-151500D02*
Y-114000D01*
X42000Y-149000D02*
X47375Y-154375D01*
X42000Y-114000D02*
X48930Y-107070D01*
X42000Y-149000D02*
Y-114000D01*
X51900Y-248050D02*
Y-166150D01*
X27500Y-107070D02*
X30320D01*
X48930D02*
X51500D01*
X52117Y-278700D02*
X69700D01*
X81300Y-267100D02*
Y-256100D01*
X69700Y-278700D02*
X81300Y-267100D01*
X49118Y-275701D02*
X52117Y-278700D01*
X51900Y-248050D02*
X61100Y-257250D01*
D23*
X225500Y-130500D02*
G03*
X181500Y-86500I-44000J0D01*
G01*
X216500Y-130500D02*
G03*
X181500Y-95500I-35000J0D01*
G01*
Y-380500D02*
G03*
X225500Y-336500I0J44000D01*
G01*
X181500Y-371500D02*
G03*
X216500Y-336500I0J35000D01*
G01*
X-181500Y-95500D02*
G03*
X-216500Y-130500I0J-35000D01*
G01*
X-181500Y-86500D02*
G03*
X-225500Y-130500I0J-44000D01*
G01*
Y-336500D02*
G03*
X-181500Y-380500I44000J0D01*
G01*
X-216500Y-336500D02*
G03*
X-181500Y-371500I35000J0D01*
G01*
X118500Y-86500D02*
X181500D01*
X225500Y-336500D02*
Y-130500D01*
X216500Y-336500D02*
Y-130500D01*
X114000Y-95500D02*
X181500D01*
X-181500Y-86500D02*
X105000D01*
X-181500Y-95500D02*
X95500D01*
X-181500Y-380500D02*
X181500D01*
X-181500Y-371500D02*
X181500D01*
X-216500Y-336500D02*
Y-130500D01*
X-225500Y-336500D02*
Y-130500D01*
X100500Y-44372D02*
Y-20000D01*
Y-44372D02*
X103628Y-47500D01*
X105000Y-86500D02*
X114000Y-95500D01*
X118500Y-86500D02*
Y-65500D01*
X72500Y-66000D02*
X85000D01*
X85500Y-65500D01*
X-147902Y-107757D02*
X-147145Y-107000D01*
X-50500D01*
D26*
X72500Y-66000D02*
X73000Y-65500D01*
D28*
X-75500Y-46000D02*
X-57000Y-27500D01*
X-80000Y-46000D02*
X-75500D01*
X-98000D02*
X-80000D01*
X-116000D02*
X-98000D01*
D30*
X220000Y29203D02*
D03*
X-220000D02*
D03*
D31*
X180000D02*
D03*
X-180000D02*
D03*
D32*
X131500Y-32750D02*
D03*
X27750Y-60250D02*
D03*
X116750Y-19250D02*
D03*
X51750Y-59750D02*
D03*
X-57000Y-27500D02*
D03*
X-29500Y-27250D02*
D03*
X95500Y-97000D02*
D03*
X-3500Y-28000D02*
D03*
X100500Y-20000D02*
D03*
X118500Y-65500D02*
D03*
X72500Y-66000D02*
D03*
D33*
X61100Y-257250D02*
D03*
X49118Y-275701D02*
D03*
D34*
X27500Y-75070D02*
D03*
Y-107070D02*
D03*
X51500Y-75070D02*
D03*
Y-107070D02*
D03*
X-50500Y-107000D02*
D03*
Y-75000D02*
D03*
D35*
X171500Y-46000D02*
D03*
Y-66000D02*
D03*
X152500D02*
D03*
Y-46000D02*
D03*
X133500Y-66000D02*
D03*
Y-46000D02*
D03*
X-80000Y-66000D02*
D03*
Y-46000D02*
D03*
X-98000Y-66000D02*
D03*
Y-46000D02*
D03*
X-116000Y-66000D02*
D03*
Y-46000D02*
D03*
D36*
X87372Y-47500D02*
D03*
X103628D02*
D03*
D37*
X85500Y-65500D02*
D03*
X105500D02*
D03*
D38*
X-147902Y-74257D02*
D03*
Y-107757D02*
D03*
D39*
X125875Y-38375D02*
X133500Y-46000D01*
X116750Y-29250D02*
X125875Y-38375D01*
X131500Y-32750D01*
Y-32750D01*
X116750Y-29250D02*
Y-19250D01*
X132500Y-65500D02*
X133500Y-64500D01*
X-68500Y-66000D02*
X-29500Y-27000D01*
Y-27250D02*
Y-27000D01*
X-80000Y-66000D02*
X-68500D01*
X-3500Y-28000D02*
X-3500D01*
X-3000Y-27500D01*
X-50500Y-75000D02*
X-3000Y-27500D01*
X133500Y-46000D02*
Y-46000D01*
X152500Y-46000D02*
X171000D01*
X133500D02*
X152500D01*
Y-66000D02*
X171000D01*
X133500D02*
X152500D01*
X118500Y-65500D02*
X132500D01*
X105500D02*
X118500D01*
X-98000Y-66000D02*
X-80000D01*
X-116000D02*
X-98000D01*
X-134000D02*
X-116000D01*
X-142257Y-74257D02*
X-134000Y-66000D01*
X-147902Y-74257D02*
X-142257D01*
D40*
X85500Y-65500D02*
X87372Y-63628D01*
Y-47500D01*
M02*
